<svg xmlns="http://www.w3.org/2000/svg" width="86.369" height="86.369" viewBox="0 0 86.369 86.369">
  <g id="Group_1111629" data-name="Group 1111629" transform="translate(-5587 6376)">
    <g id="Group_1099341" data-name="Group 1099341" transform="translate(5587 -6376)">
      <g id="Rectangle_402588" data-name="Rectangle 402588" transform="translate(0 0)" fill="#f4c5c5" stroke="#fff" stroke-width="5">
        <rect width="86.369" height="86.369" rx="14" stroke="none"/>
        <rect x="2.5" y="2.5" width="81.369" height="81.369" rx="11.5" fill="none"/>
      </g>
    </g>
    <g id="Group_1111628" data-name="Group 1111628" transform="translate(5598.999 -6375.73)">
      <g id="Group_1111626" data-name="Group 1111626" transform="translate(3.488 14.633)">
        <g id="Group_1111625" data-name="Group 1111625" transform="translate(0 0)">
          <path id="Path_900617" data-name="Path 900617" d="M96.551,29.033a2.186,2.186,0,0,1-1.591-2.057c0-1.5,1.538-2.479,2.2-3.694a2.384,2.384,0,0,0,.269-1.5.5.5,0,0,1,.614-.546,4.174,4.174,0,0,1,1.467.77C102.865,24.573,100.226,29.954,96.551,29.033Z" transform="translate(-87.01 -21.225)" fill="#b1abb4"/>
          <path id="Path_900618" data-name="Path 900618" d="M65.04,169.364a.756.756,0,0,1-.721.982H60.151a1.074,1.074,0,0,1-1.056-.87c-.421-2.167-1.508-8.021-2.078-13.466-6.228.639-10.2,3.178-15.1,1.277a9.2,9.2,0,0,1-5.327,4.084l.1,5.2,1.207,2.96a.755.755,0,0,1-.7,1.04H33.462a1.079,1.079,0,0,1-1.011-.707c-1-2.717-2.473-10.134-2.473-10.134a9.752,9.752,0,0,0,1.948-7c-.487-4.155-6.449-14.2,0-20.22,8.4-7.838,24.859-7.24,31.182-1.02l4.283,16.938-3.263,7.945v10.1Z" transform="translate(-28.949 -114.021)" fill="#a29aa5"/>
          <g id="Group_1111621" data-name="Group 1111621" transform="translate(4.943 12.708)">
            <path id="Path_900619" data-name="Path 900619" d="M198.271,166.48v-10.1l3.263-7.945L197.25,131.5c-3.334-3.28-9.488-5-15.792-4.737,5.393.223,10.408,1.891,13.3,4.737l4.283,16.938-3.263,7.945v10.1l.91,2.893a.756.756,0,0,1-.721.982h2.491a.756.756,0,0,0,.721-.982Z" transform="translate(-168.033 -126.738)" fill="#8c818f"/>
            <path id="Path_900620" data-name="Path 900620" d="M151.486,343.95c.064,1,.155,2.054.267,3.121-6.228.639-10.2,3.178-15.1,1.277a8.612,8.612,0,0,0,1.026-2.974C142.125,346.707,145.928,344.676,151.486,343.95Z" transform="translate(-128.628 -317.789)" fill="#8c818f"/>
            <path id="Path_900621" data-name="Path 900621" d="M77,293.848a1.3,1.3,0,0,0-1.145,1.65c2.982,10.564-5.864,11.116-5.864,11.116l.1,6.948,1.207,2.96a.755.755,0,0,1-.7,1.04h2.7a.755.755,0,0,0,.7-1.04l-1.207-2.96-.1-5.2s9.262-2.23,5.639-13.607A1.3,1.3,0,0,0,77,293.848Z" transform="translate(-69.991 -273.718)" fill="#8c818f"/>
          </g>
          <g id="Group_1111624" data-name="Group 1111624" transform="translate(15.248 12.674)">
            <g id="Group_1111622" data-name="Group 1111622" transform="translate(5.282 10.953)">
              <path id="Path_900622" data-name="Path 900622" d="M207.142,217.4l-7.731,6.263s4.326,4.406,8.053-1.814Z" transform="translate(-199.411 -217.396)" fill="#8c818f"/>
              <path id="Path_900623" data-name="Path 900623" d="M394.1,217.4l7.731,6.263s-4.326,4.406-8.053-1.814Z" transform="translate(-370.366 -217.396)" fill="#8c818f"/>
            </g>
            <path id="Path_900624" data-name="Path 900624" d="M259.132,153.635h-6.58c-4.865,1.837-7.375,4.983-6.783,9.487.81,6.16,4.227,9.52,8.645,12.367h2.855c4.417-2.847,7.835-6.207,8.645-12.367C266.507,158.617,264,155.472,259.132,153.635Z" transform="translate(-234.829 -150.362)" fill="#b5adb7"/>
            <g id="Group_1111623" data-name="Group 1111623">
              <path id="Path_900625" data-name="Path 900625" d="M293.789,279.722c-.965.777-1.929,4.1-1.064,4.99,1.632,1.682,6.761,1.682,8.393,0,.864-.891-.1-4.213-1.064-4.99a5.925,5.925,0,0,0-6.265,0Z" transform="translate(-275.908 -260.475)" fill="#ffeee8"/>
              <path id="Path_900626" data-name="Path 900626" d="M176.052,131.88c8.671,0,10.1,6.31,16.489,6.31,4.133,0,5.9-3.352,4.637-6.141a4.851,4.851,0,0,0-2.861-2.482.241.241,0,0,0-.3.351,3.554,3.554,0,0,1,.342.661c.991,2.571-.868,6.708-7.323.3a21.069,21.069,0,0,0-4.3-3.671c-1.965-1.086-4.668-1.212-6.17,1.023-1.5-2.235-4.205-2.109-6.17-1.023a21.065,21.065,0,0,0-4.3,3.671c-6.456,6.4-8.314,2.268-7.323-.3a3.562,3.562,0,0,1,.342-.661.241.241,0,0,0-.3-.351,4.851,4.851,0,0,0-2.861,2.482c-1.263,2.789.5,6.141,4.637,6.141C166.983,138.19,167.381,131.88,176.052,131.88Z" transform="translate(-155.552 -126.456)" fill="#ffeee8"/>
            </g>
          </g>
        </g>
      </g>
      <g id="Group_1111627" data-name="Group 1111627" transform="translate(0.001 13.73)">
        <path id="Path_900627" data-name="Path 900627" d="M24.353,57.107a13.159,13.159,0,0,1-6.632.261c1.436-3.409.642-7.327-.443-10.284a.9.9,0,1,0-1.7.622c1.468,4,1.5,7.257.114,9.7-.008.013-.017.026-.025.04A8.37,8.37,0,0,1,10.916,61.1a.9.9,0,0,0-.692.9l.1,5.2a.9.9,0,0,0,.067.323l1.124,2.756H7.994a.175.175,0,0,1-.164-.117,96.029,96.029,0,0,1-2.354-9.6,10.7,10.7,0,0,0,1.879-7.328,24.014,24.014,0,0,0-1.105-4.1c-1.535-4.722-3.638-11.19.824-15.354.235-.22.482-.436.732-.643a.9.9,0,1,0-1.152-1.392c-.278.23-.551.47-.813.714A9.841,9.841,0,0,0,2.9,37.538a3.07,3.07,0,0,1-.759-1.007,4.847,4.847,0,0,1,.479-4.418c2.33-3.856,7.764-4.789,10.917-8.678a4.506,4.506,0,0,0,4.371-2.706,4.809,4.809,0,0,0-1.372-6.03,4.855,4.855,0,0,0-1.816-.934,1.405,1.405,0,0,0-1.71,1.532,1.477,1.477,0,0,1-.165.959,6.852,6.852,0,0,1-.812,1.071,4.724,4.724,0,0,0-1.5,3.056,3.1,3.1,0,0,0,1.186,2.392c-2.99,3.19-8.111,4.214-10.643,8.4A6.664,6.664,0,0,0,.5,37.285a5.027,5.027,0,0,0,2.116,2.248c-.219,3.583.989,7.3,1.92,10.162a23.2,23.2,0,0,1,1.029,3.752,8.94,8.94,0,0,1-1.738,6.308.9.9,0,0,0-.2.762A103.247,103.247,0,0,0,6.137,70.791a1.991,1.991,0,0,0,1.858,1.3h3.743A1.659,1.659,0,0,0,13.273,69.8L12.129,67l-.086-4.36a10.1,10.1,0,0,0,4.79-3.648c2.836.894,5.367.457,7.919-.121a.9.9,0,1,0-.4-1.762ZM14.427,17.124a3.161,3.161,0,0,0,.4-1.391,4.722,4.722,0,0,1,.61.4,3.007,3.007,0,0,1,.842,3.811,2.673,2.673,0,0,1-3.036,1.621,1.29,1.29,0,0,1-.907-1.18c0-1.065,1.39-1.98,2.092-3.261Z" transform="translate(-0.001 -13.73)"/>
        <path id="Path_900628" data-name="Path 900628" d="M369.58,228.257a.9.9,0,0,0-.9.9v.473a.9.9,0,0,0,1.807,0v-.473A.9.9,0,0,0,369.58,228.257Z" transform="translate(-324.275 -202.42)"/>
        <path id="Path_900629" data-name="Path 900629" d="M281.429,228.257a.9.9,0,0,0-.9.9v.473a.9.9,0,0,0,1.807,0v-.473A.9.9,0,0,0,281.429,228.257Z" transform="translate(-246.74 -202.42)"/>
        <path id="Path_900630" data-name="Path 900630" d="M132.977,125.081a5.672,5.672,0,0,0-3.314-2.933,1.144,1.144,0,0,0-1.428,1.667,2.641,2.641,0,0,1,.257.495,2.079,2.079,0,0,1-.33,2.329c-1.112.727-3.665-1.158-5.514-2.992l-.469-.468a18.925,18.925,0,0,0-4.03-3.352,6.573,6.573,0,0,0-3.786-.842,4.731,4.731,0,0,0-2.82,1.263,4.731,4.731,0,0,0-2.821-1.263,6.574,6.574,0,0,0-3.786.842,10.257,10.257,0,0,0-.961.608A29.367,29.367,0,0,0,82.122,121.9a.9.9,0,1,0,.827,1.606,25.882,25.882,0,0,1,10.558-2.675,27.544,27.544,0,0,1,8.808.974c-.639.592-1.238,1.208-1.878,1.843-1.849,1.834-4.4,3.717-5.514,2.992a2.079,2.079,0,0,1-.33-2.329,2.639,2.639,0,0,1,.257-.495,1.144,1.144,0,0,0-1.429-1.666,5.673,5.673,0,0,0-3.314,2.933,5.119,5.119,0,0,0,.312,4.908,5.917,5.917,0,0,0,5.148,2.509,8.758,8.758,0,0,0,4.921-1.453,10.109,10.109,0,0,0,.022,1.061l-5.268,4.268a.9.9,0,0,0-.076,1.335,6.175,6.175,0,0,0,4.172,1.784,5.01,5.01,0,0,0,2.99-1.068,16.708,16.708,0,0,0,3.785,4.711,2.375,2.375,0,0,0,.584,1.59,6.431,6.431,0,0,0,4.142,1.513l-1.214,2.959a.9.9,0,0,0-.068.343v10.1a.9.9,0,0,0,.042.271l.85,2.7h-3.967a.172.172,0,0,1-.169-.14,130.424,130.424,0,0,1-2.408-18.128.9.9,0,1,0-1.806.052c.034,1.174.122,2.51.262,3.991-.67.09-1.364.2-2.1.349a.9.9,0,0,0,.349,1.773c.68-.134,1.321-.241,1.939-.325.456,4.01,1.229,8.71,1.99,12.631a1.981,1.981,0,0,0,1.943,1.6h4.167a1.643,1.643,0,0,0,1.336-.676,1.668,1.668,0,0,0,.247-1.481l-.869-2.761v-9.779l1.449-3.532a6.01,6.01,0,0,0,3.573-1.461,2.375,2.375,0,0,0,.584-1.591,16.712,16.712,0,0,0,3.784-4.711,5.007,5.007,0,0,0,3.05,1.069,6.342,6.342,0,0,0,4.113-1.784.9.9,0,0,0-.076-1.335l-5.269-4.268q.035-.477.026-.939a9.777,9.777,0,0,0,4.918,1.33c4.686,0,7.035-3.939,5.46-7.417ZM97.268,137.058l3.551-2.877a16.707,16.707,0,0,0,.739,2.541A3.32,3.32,0,0,1,97.268,137.058Zm17.823,6.409a6.884,6.884,0,0,1-7.089.009c-.215-.3,0-1.427.091-1.8a4.265,4.265,0,0,1,.883-1.869,5.084,5.084,0,0,1,5.132,0,5.43,5.43,0,0,1,1.059,2.93,1.631,1.631,0,0,1-.076.727Zm6.435-6.745a16.692,16.692,0,0,0,.739-2.541l3.55,2.876A3.32,3.32,0,0,1,121.526,136.722Zm-1.928-.038a13.866,13.866,0,0,1-2.935,4.258,5.337,5.337,0,0,0-1.421-2.539,6.845,6.845,0,0,0-7.4,0,5.337,5.337,0,0,0-1.421,2.54,13.859,13.859,0,0,1-2.934-4.257.9.9,0,0,0-.083-.193,15.529,15.529,0,0,1-1.04-3.99,7.625,7.625,0,0,1,.154-2.967l.043-.034c2.026-1.63,4.12-3.315,8.467-3.315,4.4,0,6.593,1.6,9.629,3.735.6,2.962-1.056,6.75-1.06,6.763Zm7.92-5.994c-5.923,0-7.539-6.31-16.489-6.31s-9.618,6.31-15.461,6.31c-3.419,0-4.829-2.624-3.814-4.865a3.117,3.117,0,0,1,.894-1.181,4.494,4.494,0,0,0,.009,1.41,3.048,3.048,0,0,0,1.279,2.1c3.724,2.432,8.81-5.049,11.874-6.743,1.215-.672,3.633-1.274,4.983.736a.9.9,0,0,0,1.5,0c1.35-2.009,3.768-1.408,4.983-.736a20.457,20.457,0,0,1,4.1,3.521c4.169,4.136,6.529,4.035,7.774,3.222a3.048,3.048,0,0,0,1.279-2.1,4.487,4.487,0,0,0,.009-1.41,3.117,3.117,0,0,1,.894,1.181c1.006,2.221-.375,4.864-3.814,4.864Z" transform="translate(-71.801 -106.284)"/>
      </g>
    </g>
  </g>
</svg>
