<svg xmlns="http://www.w3.org/2000/svg" width="86.369" height="86.369" viewBox="0 0 86.369 86.369">
  <g id="Group_1111620" data-name="Group 1111620" transform="translate(-1082.051 -5230)">
    <g id="Group_1099341" data-name="Group 1099341" transform="translate(1082.051 5230)">
      <g id="Rectangle_402588" data-name="Rectangle 402588" transform="translate(0 0)" fill="#f4c5c5" stroke="#fff" stroke-width="5">
        <rect width="86.369" height="86.369" rx="14" stroke="none"/>
        <rect x="2.5" y="2.5" width="81.369" height="81.369" rx="11.5" fill="none"/>
      </g>
    </g>
    <g id="Group_1111619" data-name="Group 1111619" transform="translate(1092.051 5224.172)">
      <g id="Group_1111617" data-name="Group 1111617" transform="translate(0.956 19.784)">
        <g id="Group_1111616" data-name="Group 1111616" transform="translate(0 0)">
          <ellipse id="Ellipse_11614" data-name="Ellipse 11614" cx="6.748" cy="2.942" rx="6.748" ry="2.942" transform="translate(0 28.284)" fill="#c8effe"/>
          <path id="Path_900599" data-name="Path 900599" d="M18.843,254.4c-.064,1.6-3.058,2.89-6.745,2.89a12.563,12.563,0,0,1-4.6-.788c0,.017,0,.034,0,.052,0,1.625,3.021,2.942,6.748,2.942S21,258.175,21,256.55C21,255.7,20.167,254.934,18.843,254.4Z" transform="translate(-7.499 -225.325)" fill="#99e6fc"/>
          <path id="Path_900600" data-name="Path 900600" d="M107.949,216.376c-12.437,0-22.52,4.395-22.52,9.816a4.6,4.6,0,0,0,.438,1.933.621.621,0,0,1-.536.879c-5.344.249-9.506,2.219-9.506,4.615,0,2.564,4.768,4.642,10.65,4.642,4.371,0,8.126-1.148,9.766-2.791a1.835,1.835,0,0,1,1.688-.485,47.656,47.656,0,0,0,10.02,1.023c12.437,0,22.52-4.395,22.52-9.816s-10.082-9.816-22.52-9.816Z" transform="translate(-67.115 -192.15)" fill="#c8effe"/>
          <path id="Path_900601" data-name="Path 900601" d="M129.082,266.726c-.75,5.126-10.523,9.182-22.472,9.182a47.662,47.662,0,0,1-10.02-1.023,1.835,1.835,0,0,0-1.688.485c-1.64,1.642-5.395,2.791-9.766,2.791a17.232,17.232,0,0,1-8.8-2.029,2.383,2.383,0,0,0-.51,1.419c0,2.564,4.768,4.642,10.65,4.642,4.371,0,8.126-1.148,9.766-2.791a1.835,1.835,0,0,1,1.688-.485,47.656,47.656,0,0,0,10.02,1.023c12.437,0,22.52-4.395,22.52-9.816A5.251,5.251,0,0,0,129.082,266.726Z" transform="translate(-67.115 -236.082)" fill="#99e6fc"/>
          <g id="Group_1111615" data-name="Group 1111615" transform="translate(27.487)">
            <path id="Path_900602" data-name="Path 900602" d="M380.536,57.927l-2.781,4.3a3.693,3.693,0,1,0,6.2,0l-2.781-4.3A.382.382,0,0,0,380.536,57.927Z" transform="translate(-357.524 -53.747)" fill="#99e6fc"/>
            <path id="Path_900603" data-name="Path 900603" d="M383.962,82.429l-.987-1.528a3.7,3.7,0,0,1-3.67,4.146,3.648,3.648,0,0,1-2.143-.679,3.7,3.7,0,1,0,6.8-1.939Z" transform="translate(-357.527 -73.945)" fill="#62dbfb"/>
            <path id="Path_900604" data-name="Path 900604" d="M226.143,26.5l-2.472,3.826a3.325,3.325,0,1,0,5.586,0L226.786,26.5A.382.382,0,0,0,226.143,26.5Z" transform="translate(-223.134 -26.328)" fill="#99e6fc"/>
            <path id="Path_900605" data-name="Path 900605" d="M229.258,48.072l-.91-1.408a3.33,3.33,0,0,1-3.3,3.746,3.283,3.283,0,0,1-1.911-.6,3.327,3.327,0,1,0,6.123-1.74Z" transform="translate(-223.135 -44.072)" fill="#62dbfb"/>
            <path id="Path_900606" data-name="Path 900606" d="M274.607,135.777l-3.856,5.968a4.973,4.973,0,1,0,8.354,0l-3.856-5.968A.382.382,0,0,0,274.607,135.777Z" transform="translate(-263.979 -121.673)" fill="#99e6fc"/>
            <path id="Path_900607" data-name="Path 900607" d="M279.125,170.233l-1.28-1.981a4.981,4.981,0,0,1-4.93,5.679,4.9,4.9,0,0,1-2.946-.96,4.975,4.975,0,1,0,9.155-2.739Z" transform="translate(-264 -150.161)" fill="#62dbfb"/>
          </g>
          <ellipse id="Ellipse_11615" data-name="Ellipse 11615" cx="10.65" cy="4.642" rx="10.65" ry="4.642" transform="translate(25.731 49.268)" fill="#c8effe"/>
          <path id="Path_900608" data-name="Path 900608" d="M228.528,419.976a2.255,2.255,0,0,1,.32,1.131c0,2.564-4.768,4.642-10.65,4.642a20.988,20.988,0,0,1-6.333-.91c1.158,2.017,5.343,3.511,10.33,3.511,5.882,0,10.65-2.078,10.65-4.642C232.845,422.178,231.147,420.822,228.528,419.976Z" transform="translate(-185.814 -369.797)" fill="#99e6fc"/>
        </g>
      </g>
      <g id="Group_1111618" data-name="Group 1111618" transform="translate(0 18.828)">
        <path id="Path_900609" data-name="Path 900609" d="M141.043,342.012a6.139,6.139,0,0,1-3.9,1.026,9.183,9.183,0,0,1-2.435-.308.956.956,0,1,0-.516,1.841,11.114,11.114,0,0,0,2.95.379c2.26,0,4.272-.608,5.25-1.587a.956.956,0,0,0-1.353-1.351Z" transform="translate(-116.481 -300.571)"/>
        <path id="Path_900610" data-name="Path 900610" d="M368.756,257.762a19.3,19.3,0,0,1-7.476,1.339.956.956,0,1,0,0,1.912c6.88,0,12.069-2.493,12.069-5.8,0-2.495-2.939-4.572-7.671-5.422a.956.956,0,0,0-.338,1.882c3.532.634,6.1,2.123,6.1,3.54C371.436,256.078,370.434,257.031,368.756,257.762Z" transform="translate(-314.393 -220.337)"/>
        <path id="Path_900611" data-name="Path 900611" d="M215.232,257.655a.956.956,0,0,0,0-1.912,15.142,15.142,0,0,0-5.88,1.072c-1.839.8-2.852,1.964-2.852,3.273,0,1.894,2.147,3.456,5.6,4.076a.956.956,0,1,0,.338-1.882c-2.522-.453-4.029-1.471-4.029-2.194C208.412,259.1,211.069,257.655,215.232,257.655Z" transform="translate(-180.177 -225.543)"/>
        <path id="Path_900612" data-name="Path 900612" d="M117.039,141.072a.956.956,0,1,0-.714,1.774c4.224,1.7,6.646,4.006,6.646,6.326,0,2.186-2.195,4.4-6.022,6.065a40.1,40.1,0,0,1-15.542,2.8,46.45,46.45,0,0,1-9.817-1,2.777,2.777,0,0,0-2.567.744c-1.732,1.734-5.813,2.51-9.09,2.51-5.548,0-9.694-1.946-9.694-3.686,0-.755.8-1.575,2.208-2.251a17.034,17.034,0,0,1,6.387-1.409,1.577,1.577,0,0,0,1.36-2.233,3.665,3.665,0,0,1-.351-1.534c0-3.612,5.741-6.977,14.046-8.287a5.926,5.926,0,0,0,10.327-.149c.06-.111.115-.222.168-.335a43.676,43.676,0,0,1,7.816,1.137.956.956,0,1,0,.455-1.857,45.25,45.25,0,0,0-7.74-1.165,5.864,5.864,0,0,0-.927-3.833l-3.856-5.968a1.338,1.338,0,0,0-2.248,0l-1.362,2.108a.956.956,0,0,0,1.606,1.038l.881-1.363,3.374,5.222a4.017,4.017,0,1,1-6.748,0l.072-.112a.956.956,0,0,0-1.606-1.037l-.072.112a5.845,5.845,0,0,0-.84,4.379,30.685,30.685,0,0,0-10.4,3.464c-3.178,1.877-4.858,4.175-4.858,6.646a5.46,5.46,0,0,0,.34,1.884,18.565,18.565,0,0,0-6.654,1.569c-2.122,1.022-3.29,2.433-3.29,3.974,0,3.191,4.989,5.6,11.606,5.6,4.549,0,8.551-1.177,10.443-3.071a.885.885,0,0,1,.809-.227,48.351,48.351,0,0,0,10.223,1.045c13.164,0,23.476-4.732,23.476-10.772C124.883,145.985,122.1,143.108,117.039,141.072Z" transform="translate(-59.618 -114.174)"/>
        <path id="Path_900613" data-name="Path 900613" d="M15.409,244.61c0-1.19-.906-2.239-2.551-2.956a13.268,13.268,0,0,0-5.154-.941,13.268,13.268,0,0,0-5.154.941C.906,242.37,0,243.42,0,244.61s.906,2.239,2.551,2.956a13.268,13.268,0,0,0,5.154.941,13.268,13.268,0,0,0,5.154-.941C14.5,246.849,15.409,245.8,15.409,244.61Zm-13.5,0c0-.674,2.045-1.985,5.792-1.985s5.792,1.312,5.792,1.985S11.452,246.6,7.7,246.6,1.912,245.283,1.912,244.61Z" transform="translate(0 -212.428)"/>
        <path id="Path_900614" data-name="Path 900614" d="M213.463,405.336c-.8,0-1.611.039-2.405.116a.956.956,0,1,0,.184,1.9c.733-.071,1.481-.107,2.222-.107,5.548,0,9.694,1.946,9.694,3.686,0,.812-.951,1.712-2.545,2.406a18.453,18.453,0,0,1-7.148,1.28c-5.548,0-9.694-1.946-9.694-3.686,0-.95,1.274-1.988,3.325-2.711a.956.956,0,0,0-.635-1.8c-2.925,1.03-4.6,2.675-4.6,4.514,0,3.191,4.989,5.6,11.606,5.6s11.606-2.407,11.606-5.6S220.079,405.336,213.463,405.336Z" transform="translate(-176.126 -356.067)"/>
        <path id="Path_900615" data-name="Path 900615" d="M374.285,62.341a4.649,4.649,0,0,0,3.905-7.172l-2.781-4.3a1.338,1.338,0,0,0-2.248,0l-2.781,4.3a4.649,4.649,0,0,0,3.905,7.172Zm-2.3-6.135,2.3-3.559,2.3,3.559a2.737,2.737,0,1,1-4.6,0Z" transform="translate(-322.509 -46.246)"/>
        <path id="Path_900616" data-name="Path 900616" d="M219.894,29.87a4.281,4.281,0,0,0,3.6-6.6l-2.472-3.826a1.333,1.333,0,0,0-1.124-.612h0a1.334,1.334,0,0,0-1.124.612h0L216.3,23.266a4.281,4.281,0,0,0,3.6,6.6ZM217.9,24.3l1.99-3.08,1.99,3.08a2.369,2.369,0,1,1-3.98,0Z" transform="translate(-188.12 -18.828)"/>
      </g>
    </g>
  </g>
</svg>
