<svg xmlns="http://www.w3.org/2000/svg" width="86.369" height="86.369" viewBox="0 0 86.369 86.369">
  <g id="Group_1111639" data-name="Group 1111639" transform="translate(-6217 6376)">
    <g id="Group_1099341" data-name="Group 1099341" transform="translate(6217 -6376)">
      <g id="Rectangle_402588" data-name="Rectangle 402588" transform="translate(0 0)" fill="#f4c5c5" stroke="#fff" stroke-width="5">
        <rect width="86.369" height="86.369" rx="14" stroke="none"/>
        <rect x="2.5" y="2.5" width="81.369" height="81.369" rx="11.5" fill="none"/>
      </g>
    </g>
    <g id="Group_1111638" data-name="Group 1111638" transform="translate(6236 -6356.002)">
      <g id="Group_1111636" data-name="Group 1111636" transform="translate(0.702 0.704)">
        <g id="Group_1111634" data-name="Group 1111634">
          <path id="Path_900640" data-name="Path 900640" d="M98.273,110.342a8.305,8.305,0,0,0-2.444,4.4,10.574,10.574,0,0,0-.231,2.686c3.4,1.7,9.676.992,10.766,5.616a13.32,13.32,0,0,1-1.372,7.975h11.235a13.32,13.32,0,0,1-1.372-7.975c1.09-4.624,7.367-3.916,10.766-5.616a10.574,10.574,0,0,0-.231-2.686,8.305,8.305,0,0,0-2.444-4.4,5.96,5.96,0,0,0-5.77-1.388,21.964,21.964,0,0,1-13.132,0,5.96,5.96,0,0,0-5.77,1.388Z" transform="translate(-87.344 -99.231)" fill="#adb9c8" fill-rule="evenodd"/>
          <path id="Path_900641" data-name="Path 900641" d="M106.433,207.446c-1.062-4.506-6.631-3.774-10.765-5.616h0a19.2,19.2,0,0,0,.392,3.116c.862,4.313,2.94,9.638,4.468,16.817-.453-3.941,2.217-6.341,4.533-6.341A13.32,13.32,0,0,0,106.433,207.446Z" transform="translate(-87.413 -183.636)" fill="#92a2b5" fill-rule="evenodd"/>
          <path id="Path_900642" data-name="Path 900642" d="M162.859,347H151.624c-2.316,0-4.986,2.4-4.533,6.341l.32,2.787a2.946,2.946,0,0,0,2.809,2.809h14.043a2.946,2.946,0,0,0,2.809-2.809l.32-2.787C167.845,349.4,165.175,347,162.859,347Zm-11.273,4.231,3.8,4.141a2.809,2.809,0,1,1-3.8-4.141Zm7.515,4.141,3.8-4.141a2.809,2.809,0,0,1-3.8,4.141Z" transform="translate(-133.976 -315.213)" fill="#adb9c8" fill-rule="evenodd"/>
          <path id="Path_900643" data-name="Path 900643" d="M300.007,207.446a13.32,13.32,0,0,0,1.372,7.975c2.317,0,4.986,2.4,4.533,6.341,1.528-7.179,3.606-12.5,4.468-16.817a19.182,19.182,0,0,0,.392-3.116h0C306.638,203.673,301.069,202.94,300.007,207.446Z" transform="translate(-272.497 -183.636)" fill="#92a2b5" fill-rule="evenodd"/>
          <path id="Path_900644" data-name="Path 900644" d="M198.087,392.19l-3.8,4.141a2.809,2.809,0,1,0,3.8-4.141Zm-7.515,4.141-3.8-4.141a2.809,2.809,0,0,0,3.8,4.141Z" transform="translate(-169.166 -356.174)" fill="#b6e6fc" fill-rule="evenodd"/>
          <path id="Path_900645" data-name="Path 900645" d="M195.043,474.5H181a2.817,2.817,0,0,0,2.809,2.809h8.426A2.817,2.817,0,0,0,195.043,474.5Z" transform="translate(-164.756 -430.777)" fill="#92a2b5" fill-rule="evenodd"/>
          <path id="Path_900646" data-name="Path 900646" d="M7.5,188.9c3.454,2.043,6.838,1.34,8.647-1.151a19.183,19.183,0,0,1-.392-3.116,20.532,20.532,0,0,1-2.821-1.776C7.734,184.635,7.5,186.941,7.5,188.9Zm41.1-6.043a20.523,20.523,0,0,1-2.821,1.776,19.194,19.194,0,0,1-.392,3.116c1.808,2.491,5.193,3.193,8.647,1.151C54.031,186.941,53.8,184.635,48.6,182.858Z" transform="translate(-7.5 -166.44)" fill="#adb9c8" fill-rule="evenodd"/>
          <path id="Path_900647" data-name="Path 900647" d="M47.335,187.157a17.933,17.933,0,0,1-.28-2.521,20.532,20.532,0,0,1-2.821-1.776,15.649,15.649,0,0,0-2.2.925A32.4,32.4,0,0,0,47.335,187.157ZM82.1,183.784a32.4,32.4,0,0,1-5.3,3.373,17.933,17.933,0,0,0,.28-2.521,20.531,20.531,0,0,0,2.821-1.776A15.641,15.641,0,0,1,82.1,183.784Z" transform="translate(-38.8 -166.441)" fill="#92a2b5" fill-rule="evenodd"/>
          <path id="Path_900648" data-name="Path 900648" d="M15.755,25.693a10.574,10.574,0,0,1,.231-2.686,8.305,8.305,0,0,1,2.444-4.4,9.043,9.043,0,0,1-6.377-8.817c.041-2.554-2.285-3.2-3.469-.773A11.315,11.315,0,0,0,8.1,17.5C9.295,21.217,12.384,23.922,15.755,25.693ZM43.1,18.609a8.305,8.305,0,0,1,2.444,4.4,10.574,10.574,0,0,1,.231,2.686c3.371-1.77,6.46-4.476,7.659-8.2a11.315,11.315,0,0,0-.488-8.477c-1.184-2.43-3.509-1.781-3.469.773A9.043,9.043,0,0,1,43.1,18.609Z" transform="translate(-7.501 -7.499)" fill="#fff" fill-rule="evenodd"/>
          <path id="Path_900649" data-name="Path 900649" d="M75.487,124.356a10.574,10.574,0,0,1,.231-2.686,8.305,8.305,0,0,1,2.444-4.4,9.67,9.67,0,0,1-2.058-.919,11.011,11.011,0,0,0-2.7,6.754A21.164,21.164,0,0,0,75.487,124.356Zm29.4-8a11.01,11.01,0,0,1,2.7,6.754,21.145,21.145,0,0,1-2.085,1.249,10.575,10.575,0,0,0-.231-2.686,8.305,8.305,0,0,0-2.444-4.4A9.674,9.674,0,0,0,104.891,116.353Z" transform="translate(-67.232 -106.162)" fill="#b6e6fc" fill-rule="evenodd"/>
          <path id="Path_900650" data-name="Path 900650" d="M98.273,110.343a8.305,8.305,0,0,0-2.444,4.4,10.574,10.574,0,0,0-.231,2.686,10.857,10.857,0,0,0,2.15.75,11.31,11.31,0,0,1,.187-3.436c.643-2.85,2.686-5.415,5.421-5.948A6.007,6.007,0,0,0,98.273,110.343Z" transform="translate(-87.344 -99.233)" fill="#92a2b5" fill-rule="evenodd"/>
          <path id="Path_900651" data-name="Path 900651" d="M97.815,202.571a12.825,12.825,0,0,1-2.149-.74,19.2,19.2,0,0,0,.392,3.116c.862,4.313,2.94,9.638,4.468,16.817a6.145,6.145,0,0,1,1.052-4.421c-1.318-5.022-2.739-9.019-3.413-12.4A21.106,21.106,0,0,1,97.815,202.571Z" transform="translate(-87.412 -183.637)" fill="#92a2b5" fill-rule="evenodd"/>
          <path id="Path_900652" data-name="Path 900652" d="M153.731,347h-2.107c-2.316,0-4.986,2.4-4.533,6.341l.32,2.787a2.946,2.946,0,0,0,2.809,2.809h2.107a2.946,2.946,0,0,1-2.809-2.809l-.32-2.787C148.745,349.4,151.414,347,153.731,347Z" transform="translate(-133.976 -315.213)" fill="#92a2b5" fill-rule="evenodd"/>
        </g>
        <g id="Group_1111635" data-name="Group 1111635" transform="translate(21.159 12.834)">
          <path id="Path_900653" data-name="Path 900653" d="M237.713,145.982h-1.4v-1.4h1.4Zm-2.809,0h-1.4v-1.4h1.4Z" transform="translate(-233.5 -144.578)" fill="#fff"/>
        </g>
      </g>
      <g id="Group_1111637" data-name="Group 1111637" transform="translate(0 0.002)">
        <path id="Path_900654" data-name="Path 900654" d="M265.268,386.77l.518.474a3.486,3.486,0,0,0,2.369.923q.078,0,.156,0a3.511,3.511,0,0,0,2.22-6.1l-.518-.474Zm4.443-.69a2.11,2.11,0,0,1-2.378.516l2.685-2.929A2.11,2.11,0,0,1,269.711,386.08Z" transform="translate(-240.433 -345.868)"/>
        <path id="Path_900655" data-name="Path 900655" d="M179.52,382.067a3.511,3.511,0,0,0,2.22,6.1c.052,0,.1,0,.156,0a3.486,3.486,0,0,0,2.369-.923l.518-.474-4.745-5.176Zm2.281,4.693a2.107,2.107,0,0,1-1.768-3.094l2.685,2.929A2.1,2.1,0,0,1,181.8,386.76Z" transform="translate(-161.682 -345.867)"/>
        <path id="Path_900656" data-name="Path 900656" d="M43.2,16.9a13.387,13.387,0,0,0,4.11-5.982,12.032,12.032,0,0,0-.526-9C45.953.218,44.7-.158,43.8.057a2.733,2.733,0,0,0-1.822,2.952,8.831,8.831,0,0,1-1.212,4.5,8,8,0,0,1-4.312,3.516,7.29,7.29,0,0,0-.9-.624,6.531,6.531,0,0,0-5.224-.644,19.211,19.211,0,0,1-6.364.975A19.211,19.211,0,0,1,17.6,9.754a6.53,6.53,0,0,0-5.224.644,7.286,7.286,0,0,0-.9.624A8,8,0,0,1,7.169,7.506a8.831,8.831,0,0,1-1.212-4.5A2.733,2.733,0,0,0,4.135.057c-.9-.215-2.153.161-2.98,1.86a11.986,11.986,0,0,0-.739,8.265l1.359-.354a10.44,10.44,0,0,1,.643-7.3c.382-.784.928-1.22,1.391-1.109.381.091.759.61.744,1.563A10.274,10.274,0,0,0,5.959,8.22,9.428,9.428,0,0,0,10.391,12.1,9.39,9.39,0,0,0,8.5,16.058a10.335,10.335,0,0,0-.229,1.652A14.086,14.086,0,0,1,2.2,11.125l-1.305.518A13.726,13.726,0,0,0,4.744,16.9C.39,18.712,0,21.069,0,23.164v.4l.345.2A8.667,8.667,0,0,0,4.734,25.06a6.261,6.261,0,0,0,4.224-1.574c.392,1.641.915,3.4,1.481,5.316.871,2.939,1.858,6.269,2.684,10.143L13.44,41.7A3.732,3.732,0,0,0,16.3,45.065a3.516,3.516,0,0,0,3.451,2.872h8.426a3.516,3.516,0,0,0,3.451-2.872A3.733,3.733,0,0,0,34.5,41.7l.316-2.753c.646-3.028,1.385-5.689,1.958-7.67l-1.349-.39c-.342,1.183-.742,2.606-1.148,4.2a6.025,6.025,0,0,0-.989-1.528A5.133,5.133,0,0,0,30,31.809,12.9,12.9,0,0,1,28.9,24.675c.625-2.651,3.145-3.215,6.064-3.868a30.382,30.382,0,0,0,3.242-.853A51.3,51.3,0,0,1,36.149,28.4q-.164.554-.334,1.129l1.347.4q.169-.573.333-1.127c.567-1.913,1.089-3.676,1.482-5.317A6.259,6.259,0,0,0,43.2,25.06a8.67,8.67,0,0,0,4.389-1.291l.345-.2v-.4c0-2.094-.39-4.45-4.74-6.266Zm-1.22-8.679a10.273,10.273,0,0,0,1.406-5.233c-.015-.953.363-1.472.744-1.563.463-.111,1.009.324,1.391,1.109a10.635,10.635,0,0,1,.451,7.954c-.647,2.008-2.272,4.824-6.307,7.224a10.33,10.33,0,0,0-.23-1.653A9.391,9.391,0,0,0,37.543,12.1a9.428,9.428,0,0,0,4.432-3.878ZM5.536,23.595a6.633,6.633,0,0,1-4.129-.84c.029-1.523.383-3.318,4.612-4.848a21.307,21.307,0,0,0,2.259,1.423,20.383,20.383,0,0,0,.324,2.5,4.829,4.829,0,0,1-3.067,1.763Zm4.2-3.64a30.376,30.376,0,0,0,3.242.853c2.919.653,5.439,1.217,6.064,3.868a12.9,12.9,0,0,1-1.105,7.134,5.133,5.133,0,0,0-3.281,1.753,6.021,6.021,0,0,0-.989,1.528c-.622-2.451-1.277-4.661-1.877-6.687a51.3,51.3,0,0,1-2.053-8.448ZM28.181,46.532H19.754a2.11,2.11,0,0,1-1.986-1.4h12.4a2.11,2.11,0,0,1-1.986,1.4ZM32.235,34.5A5.359,5.359,0,0,1,33.42,38.75l-.32,2.787a2.233,2.233,0,0,1-2.111,2.187H16.946a2.233,2.233,0,0,1-2.111-2.187l-.32-2.787A5.36,5.36,0,0,1,15.7,34.5a3.684,3.684,0,0,1,2.65-1.305H29.585a3.685,3.685,0,0,1,2.65,1.305Zm2.418-15.059c-3.1.693-6.3,1.409-7.124,4.916a14.427,14.427,0,0,0,.9,7.434H19.5a14.428,14.428,0,0,0,.9-7.434c-.826-3.507-4.028-4.223-7.124-4.916a24.492,24.492,0,0,1-3.631-1.01,9.557,9.557,0,0,1,.222-2.061,7.166,7.166,0,0,1,3.216-4.755A5.141,5.141,0,0,1,17.2,11.1a20.676,20.676,0,0,0,6.769,1.034A20.676,20.676,0,0,0,30.736,11.1a5.141,5.141,0,0,1,4.111.512,7.166,7.166,0,0,1,3.216,4.755,9.557,9.557,0,0,1,.222,2.061A24.489,24.489,0,0,1,34.653,19.437ZM42.4,23.595a4.829,4.829,0,0,1-3.067-1.763,20.379,20.379,0,0,0,.324-2.5,21.31,21.31,0,0,0,2.264-1.421c4.224,1.53,4.578,3.324,4.607,4.846A6.633,6.633,0,0,1,42.4,23.595Z" transform="translate(0 -0.002)"/>
        <path id="Path_900657" data-name="Path 900657" d="M0,0H1.4V2.22H0Z" transform="matrix(0.316, -0.949, 0.949, 0.316, 14.737, 24.411)"/>
        <path id="Path_900658" data-name="Path 900658" d="M0,0H2.22V1.4H0Z" transform="matrix(0.949, -0.316, 0.316, 0.949, 30.655, 23.806)"/>
      </g>
    </g>
  </g>
</svg>
