<svg xmlns="http://www.w3.org/2000/svg" width="86.369" height="86.369" viewBox="0 0 86.369 86.369">
  <g id="Group_1111560" data-name="Group 1111560" transform="translate(11680.5 11902.35)">
    <g id="Group_1099347" data-name="Group 1099347" transform="translate(-11585.5 -12119)">
      <g id="Group_1099341" data-name="Group 1099341" transform="translate(-95 216.65)">
        <g id="Rectangle_402588" data-name="Rectangle 402588" transform="translate(0 0)" fill="#f4c5c5" stroke="#fff" stroke-width="5">
          <rect width="86.369" height="86.369" rx="14" stroke="none"/>
          <rect x="2.5" y="2.5" width="81.369" height="81.369" rx="11.5" fill="none"/>
        </g>
      </g>
      <g id="Group_1111565" data-name="Group 1111565" transform="translate(-89.379 226.611)">
        <g id="Group_1111566" data-name="Group 1111566" transform="translate(13.968 5.599)">
          <path id="Path_900413" data-name="Path 900413" d="M73.862,107.763H72.9l-1.132-7.151-2.846.451,1.063,6.724a2.882,2.882,0,0,0-2.526,2.858h9.286A2.882,2.882,0,0,0,73.862,107.763Z" transform="translate(-42.202 -55.408)" fill="#d78759"/>
          <path id="Path_900414" data-name="Path 900414" d="M60.862,107.763H59.9l-1.132-7.151-2.846.451,1.063,6.724a2.882,2.882,0,0,0-2.526,2.858h9.286A2.882,2.882,0,0,0,60.862,107.763Z" transform="translate(-35.446 -55.408)" fill="#f4a86c"/>
          <g id="Group_1111565-2" data-name="Group 1111565" transform="translate(29.924 0)">
            <path id="Path_900415" data-name="Path 900415" d="M89.916,9.463a2.422,2.422,0,0,0-3.547.478l-.06.085.081-.884a2.422,2.422,0,1,0-4.824,0l.081.884-.059-.085a2.422,2.422,0,1,0-3.7,3.1l4.7,4.663,1.389-1.166,1.39,1.165,4.7-4.663a2.422,2.422,0,0,0-.149-3.575Z" transform="translate(-77.177 -6.497)" fill="#fc4b00"/>
            <path id="Path_900416" data-name="Path 900416" d="M100.12,30.247c4.341,1.089,5.434,3.3,5.794,5.047a13.942,13.942,0,0,0-6.664-.423Z" transform="translate(-88.649 -18.84)" fill="#fc4b00"/>
            <path id="Path_900417" data-name="Path 900417" d="M99.73,39.042c.8,2.209,4.7,2.81,4.062,5.187-.615,2.3-3.8,2.77-6.084,1.387Z" transform="translate(-87.847 -23.411)" fill="#fc4b00"/>
          </g>
          <path id="Path_900418" data-name="Path 900418" d="M38.65,59.6c9.306,0,18.411-.609,19.852-8.233,1.374-7.269-1.721-7.7-1.241-16.23s.9-16.39-5.887-16.39c-3.389,0-5.64,2.2-6.2,14.289-.32,6.138-3.2,9.446-6.964,9.126,0,0-3.762-16.933-22.1-18.642.27,6.511,3.512,7.445,3.512,7.445H14.875S16.5,37,20.819,37.9H15a6.388,6.388,0,0,0,4.443,5.264S19.918,59.6,38.65,59.6Z" transform="translate(-14.875 -12.865)" fill="#f4a86c"/>
          <circle id="Ellipse_11611" data-name="Ellipse 11611" cx="1.441" cy="1.441" r="1.441" transform="translate(36.724 11.407)" fill="#d78759"/>
          <path id="Path_900419" data-name="Path 900419" d="M65.352,63.775c0,6.557-14.525,5.37-17.21,4.6A7.175,7.175,0,0,1,43.4,63.387h6.1a11.54,11.54,0,0,1-7.493-5.155H48.18A7.372,7.372,0,0,1,43.489,53.5c13.828.4,21.862,3.122,21.862,10.275Z" transform="translate(-28.975 -30.924)" fill="#d78759"/>
        </g>
        <g id="Group_1111567" data-name="Group 1111567" transform="translate(13.13 4.77)">
          <path id="Path_900420" data-name="Path 900420" d="M71.669,21.887c-.512-2.5-2.138-4.222-4.959-5.25a10.523,10.523,0,0,0-.882-2.672l1.233-1.226a3.262,3.262,0,0,0-3.48-5.357,3.266,3.266,0,0,0-6.4,0A3.263,3.263,0,0,0,53.7,12.738L55.07,14.1a20.155,20.155,0,0,0-1.412,5.444.841.841,0,1,0,1.664.24c.988-6.883,2.93-7.46,4.837-7.46a4.416,4.416,0,0,1,3.4,1.262c2.31,2.443,1.972,8.439,1.645,14.238-.013.237-.023.467-.031.693,0,.008,0,.015,0,.024v.021a23.939,23.939,0,0,0,.939,7.814,14.606,14.606,0,0,1,.351,7.574c-1.317,6.971-9.75,7.548-19.025,7.548-6.189,0-10.963-1.838-14.191-5.463a.84.84,0,1,0-1.255,1.118,18.162,18.162,0,0,0,11.554,5.771l.7,4.428a3.729,3.729,0,0,0-2.415,3.484.841.841,0,0,0,.841.841H58.2a.841.841,0,0,0,.841-.841,3.727,3.727,0,0,0-3.722-3.722H55.07l-.66-4.163c6.844-.568,12.531-2.489,13.7-8.685a16.2,16.2,0,0,0-.378-8.313,22.121,22.121,0,0,1-.9-6.577,3.857,3.857,0,0,0,3.506-2.743c.51-1.913-1.009-2.988-2.232-3.852-.214-.151-.432-.3-.638-.462a18.5,18.5,0,0,1,3.16.549.841.841,0,0,0,1.037-.982ZM50.491,57.355c-.017.007-.033.016-.048.023a3.73,3.73,0,0,0-1.368-.264h-.247L48.2,53.177q.817,0,1.624-.017ZM48.915,60H43.694A2.047,2.047,0,0,1,45.3,58.813a.841.841,0,0,0,.726-.966L45.274,53.1q.6.042,1.225.061l.78,4.923a.841.841,0,0,0,.83.709h.965a2.008,2.008,0,0,1,.968.244l.048.024a2.054,2.054,0,0,1,.845.933Zm4.607-1.91a.841.841,0,0,0,.83.709h.965a2.044,2.044,0,0,1,1.86,1.2H52.693a3.721,3.721,0,0,0-.665-1.418.806.806,0,0,0,.244-.73l-.749-4.73c.4-.014.806-.031,1.205-.052Zm6.637-47.442a4.937,4.937,0,0,0-4.206,1.963l-1.067-1.061a1.582,1.582,0,1,1,2.405-2.035l.058.086a.841.841,0,0,0,1.537-.544L58.8,8.166a1.585,1.585,0,1,1,3.153,0l-.082.889a.841.841,0,0,0,1.537.54l.048-.071a1.582,1.582,0,1,1,2.415,2.023l-1,1c-.032-.036-.06-.077-.093-.112a6.073,6.073,0,0,0-4.62-1.789ZM68.718,26.2A2.128,2.128,0,0,1,66.9,27.672c.068-1.209.133-2.4.176-3.567.023.016.045.034.068.048C68.381,25.033,68.906,25.492,68.718,26.2ZM67.105,20.61c-.018-.7-.055-1.376-.116-2.026a5.339,5.339,0,0,1,2.583,2.322,18.347,18.347,0,0,0-2.467-.3Z" transform="translate(-22.821 -4.77)" fill="#111b35"/>
          <path id="Path_900421" data-name="Path 900421" d="M20.3,51.872a17.2,17.2,0,0,1-.927-4.477.841.841,0,0,0-.583-.775A5.475,5.475,0,0,1,15.129,43h4.783a.841.841,0,0,0,.171-1.663c-2.73-.57-4.283-3.623-4.934-5.272h3.562a.841.841,0,0,0,.232-1.648c-.024-.007-2.36-.817-2.834-5.687A23.132,23.132,0,0,1,33.033,39.079c-1.514-.111-3.035-.18-4.524-.223a.817.817,0,0,0-.7.346.841.841,0,0,0-.112.777,8.282,8.282,0,0,0,2.366,3.608H27a.841.841,0,0,0-.736,1.249,12,12,0,0,0,3.886,3.907h-1.76a.841.841,0,0,0-.817,1.029,7.976,7.976,0,0,0,5.327,5.6,28.255,28.255,0,0,0,6.533.657c3.514,0,7.486-.513,9.765-2.228a4.614,4.614,0,0,0,1.984-3.832c0-4.4-2.738-7.06-6.736-8.669a17.1,17.1,0,0,0,.659-3.968q.048-1.054.115-2.009a.841.841,0,0,0-1.677-.116c-.045.649-.084,1.331-.117,2.042a15.666,15.666,0,0,1-.554,3.487,39.538,39.538,0,0,0-7.733-1.474A24.931,24.931,0,0,0,15.277,26.943a.841.841,0,0,0-.918.872c.138,3.359,1.048,5.373,1.979,6.565H13.971a.841.841,0,0,0-.812,1.057,13.661,13.661,0,0,0,3.436,5.877H14.086a.841.841,0,0,0-.838.913,7.2,7.2,0,0,0,4.482,5.8,19.827,19.827,0,0,0,.974,4.39.841.841,0,0,0,1.591-.544Zm29.209-1.9a2.975,2.975,0,0,1-1.313,2.488c-3.634,2.734-12.949,1.84-14.825,1.3a6,6,0,0,1-3.776-3.332h4.9a.841.841,0,0,0,.165-1.665,10.814,10.814,0,0,1-5.988-3.492h4.5a.841.841,0,0,0,.3-1.625,6.51,6.51,0,0,1-3.685-3.061c13.621.56,19.716,3.475,19.716,9.39Z" transform="translate(-13.13 -16.291)" fill="#111b35"/>
          <path id="Path_900422" data-name="Path 900422" d="M28.555,83.557a.841.841,0,0,0-1.489.779c.207.4.427.783.656,1.153a.841.841,0,0,0,1.429-.886C28.943,84.269,28.743,83.917,28.555,83.557Z" transform="translate(-20.328 -45.491)" fill="#111b35"/>
          <path id="Path_900423" data-name="Path 900423" d="M82.479,94.352a26.311,26.311,0,0,1-3.161.5.841.841,0,0,0,.086,1.677.779.779,0,0,0,.088,0,28,28,0,0,0,3.362-.536.841.841,0,0,0-.377-1.638Z" transform="translate(-47.135 -51.314)" fill="#111b35"/>
          <path id="Path_900424" data-name="Path 900424" d="M94.149,30.78a2.281,2.281,0,1,0-2.282,2.283A2.281,2.281,0,0,0,94.149,30.78Zm-2.882,0a.6.6,0,1,1,.6.6.6.6,0,0,1-.6-.6Z" transform="translate(-52.864 -17.102)" fill="#111b35"/>
        </g>
      </g>
    </g>
  </g>
</svg>
