<svg xmlns="http://www.w3.org/2000/svg" width="86.369" height="86.369" viewBox="0 0 86.369 86.369">
  <g id="Group_1111561" data-name="Group 1111561" transform="translate(11680.5 11902.35)">
    <g id="Group_1099347" data-name="Group 1099347" transform="translate(-11585.5 -12119)">
      <g id="Group_1099341" data-name="Group 1099341" transform="translate(-95 216.65)">
        <g id="Rectangle_402588" data-name="Rectangle 402588" transform="translate(0 0)" fill="#f4c5c5" stroke="#fff" stroke-width="5">
          <rect width="86.369" height="86.369" rx="14" stroke="none"/>
          <rect x="2.5" y="2.5" width="81.369" height="81.369" rx="11.5" fill="none"/>
        </g>
      </g>
      <g id="Group_1111569" data-name="Group 1111569" transform="translate(-82.257 229.829)">
        <path id="Path_900425" data-name="Path 900425" d="M319.054,5.853A21.7,21.7,0,0,0,309.688.087a1.93,1.93,0,0,0-2.114,3,22.465,22.465,0,0,1,3.412,5.819,3.172,3.172,0,0,1,.173,2.186c-.312.625-1.548,1-3.307,1a14.722,14.722,0,0,1-2.508-.224,1.93,1.93,0,0,0-1.882.683,6.828,6.828,0,0,0-1.663,5.328,8.1,8.1,0,0,0,3.212,5.059,1.932,1.932,0,0,0,.7.307,27.621,27.621,0,0,0,5.347.529,15.466,15.466,0,0,0,7.283-1.527,8.3,8.3,0,0,0,4.489-7.264,12.678,12.678,0,0,0-3.775-9.132Z" transform="translate(-262.918)" fill="#5e0434"/>
        <path id="Path_900426" data-name="Path 900426" d="M25.323,11.832a1.927,1.927,0,0,0-.378.037,14.711,14.711,0,0,1-2.508.224c-1.759,0-2.995-.373-3.307-1A3.172,3.172,0,0,1,19.3,8.91a22.47,22.47,0,0,1,3.412-5.819,1.93,1.93,0,0,0-2.114-3,21.7,21.7,0,0,0-9.366,5.767A12.677,12.677,0,0,0,7.46,14.985a8.3,8.3,0,0,0,4.489,7.264,15.467,15.467,0,0,0,7.283,1.527,27.623,27.623,0,0,0,5.347-.529,1.932,1.932,0,0,0,.7-.307,8.1,8.1,0,0,0,3.212-5.059,6.828,6.828,0,0,0-1.663-5.328,1.93,1.93,0,0,0-1.5-.72Z" transform="translate(-6.489 0)" fill="#5e0434"/>
        <path id="Path_900427" data-name="Path 900427" d="M318.026,26.833S333.4,29.9,322.176,15c6.735,2.089,12.068,7.558,11.786,12.954-.5,9.6-14.779,6.477-14.779,6.477S314.542,31.165,318.026,26.833Z" transform="translate(-275.978 -13.071)" fill="#fbbba1"/>
        <path id="Path_900428" data-name="Path 900428" d="M38.391,26.833S23.02,29.9,34.241,15c-6.735,2.089-12.068,7.558-11.786,12.954.5,9.6,14.779,6.477,14.779,6.477S41.875,31.165,38.391,26.833Z" transform="translate(-19.557 -13.071)" fill="#fbbba1"/>
        <path id="Path_900429" data-name="Path 900429" d="M327.089,133.733a20.3,20.3,0,0,0-2.807-3.2,11.917,11.917,0,0,0-7.387-3.556c-.28-.014-.563-.022-.841-.022a13.274,13.274,0,0,0-6.788,1.717,6.3,6.3,0,0,0-3.37,5.182c-.055,2.136,1.129,4.137,3.333,5.634a14.238,14.238,0,0,0,7.19,2.247c.144.007.291.011.437.011,5.606,0,9.972-5.516,10.155-5.751A1.93,1.93,0,0,0,327.089,133.733Z" transform="translate(-266.536 -110.624)" fill="#5e0434"/>
        <path id="Path_900430" data-name="Path 900430" d="M18.152,128.676a13.274,13.274,0,0,0-6.788-1.717c-.278,0-.562.007-.842.022a11.917,11.917,0,0,0-7.387,3.556,20.279,20.279,0,0,0-2.807,3.2A1.93,1.93,0,0,0,.408,136c.183.235,4.55,5.751,10.155,5.751.145,0,.292,0,.437-.011a14.238,14.238,0,0,0,7.19-2.247c2.2-1.5,3.388-3.5,3.333-5.634A6.3,6.3,0,0,0,18.152,128.676Z" transform="translate(0 -110.624)" fill="#5e0434"/>
        <path id="Path_900431" data-name="Path 900431" d="M329.866,141.977c4.878.249,8.692,5.9,8.692,5.9s-4.093,5.249-8.972,5-8.769-2.893-8.692-5.9S324.989,141.727,329.866,141.977Z" transform="translate(-279.606 -123.693)" fill="#ef8d44"/>
        <path id="Path_900432" data-name="Path 900432" d="M347.74,168.553c2.69.137,6.08,3.256,6.08,3.256s-3.544,2.894-6.234,2.757-4.835-1.6-4.793-3.256S345.051,168.415,347.74,168.553Z" transform="translate(-298.687 -146.857)" fill="#fbbba1"/>
        <path id="Path_900433" data-name="Path 900433" d="M23.692,141.977c-4.878.249-8.692,5.9-8.692,5.9s4.093,5.249,8.971,5,8.77-2.893,8.692-5.9S28.569,141.727,23.692,141.977Z" transform="translate(-13.07 -123.693)" fill="#ef8d44"/>
        <path id="Path_900434" data-name="Path 900434" d="M50.771,168.553c-2.69.137-6.08,3.256-6.08,3.256s3.544,2.894,6.234,2.757,4.836-1.6,4.793-3.256S53.46,168.415,50.771,168.553Z" transform="translate(-38.941 -146.857)" fill="#fbbba1"/>
        <path id="Path_900435" data-name="Path 900435" d="M107.807,104.111c-.009-.026-.019-.052-.029-.078a25.908,25.908,0,0,0-3.691-6.631,14.8,14.8,0,0,0-1.044-4.268,8.247,8.247,0,0,0-7.9-5.422H78.062a8.247,8.247,0,0,0-7.9,5.422A14.8,14.8,0,0,0,69.123,97.4a26.32,26.32,0,0,0-3.449,5.99,15.167,15.167,0,0,0-1.2,6.362,10.342,10.342,0,0,0,2.873,6.733l1,1.2c.006.041.011.082.017.123a16.169,16.169,0,0,0,2.536,6.374,12.332,12.332,0,0,0,3.014,7.583c2.762,3.1,7.033,4.668,12.694,4.668s9.933-1.57,12.694-4.668a12.331,12.331,0,0,0,3.014-7.583,16.171,16.171,0,0,0,2.536-6.374c.006-.041.012-.082.017-.123l1-1.2C108.879,113.28,109.55,109,107.807,104.111Z" transform="translate(-56.164 -76.427)" fill="#5e0434"/>
        <path id="Path_900436" data-name="Path 900436" d="M119.059,117.83v0a23.927,23.927,0,0,0-3.788-6.628s-.143-8.491-7.054-8.491H91.132c-6.91,0-7.054,8.491-7.054,8.491s-8.708,10.244-2.22,17.074l1.409,1.7c.017.209.041.419.072.63a14.62,14.62,0,0,0,2.543,6.053,10.388,10.388,0,0,0,2.537,6.9c2.38,2.669,6.166,4.022,11.254,4.022s8.874-1.353,11.254-4.022a10.387,10.387,0,0,0,2.537-6.9,14.622,14.622,0,0,0,2.543-6.053q.046-.317.072-.631l1.409-1.7c3.041-3.2,2.743-7.153,1.569-10.448Z" transform="translate(-69.233 -89.497)" fill="#ef8d44"/>
        <path id="Path_900437" data-name="Path 900437" d="M143.24,257.737c-2.718,1.29-4.63,2.753-7.06,2.773-2.431-.02-4.342-1.484-7.06-2.773-4.261-2.022-11.812,3.862-5.093,13.172,0,0-1.125,9.785,12.154,9.785s12.154-9.785,12.154-9.785C155.052,261.6,147.5,255.715,143.24,257.737Z" transform="translate(-105.739 -224.229)" fill="#fbbba1"/>
        <path id="Path_900438" data-name="Path 900438" d="M271.643,287.97a2.749,2.749,0,0,1-.583,3.842c-1.214.858-3.678,1.284-4.571.02s.123-3.739,1.338-4.6A2.749,2.749,0,0,1,271.643,287.97Z" transform="translate(-231.906 -249.862)" fill="#5e0434"/>
        <path id="Path_900439" data-name="Path 900439" d="M160.751,287.97a2.749,2.749,0,0,0,.583,3.842c1.215.858,3.678,1.284,4.571.02s-.123-3.739-1.337-4.6A2.749,2.749,0,0,0,160.751,287.97Z" transform="translate(-139.606 -249.862)" fill="#5e0434"/>
        <path id="Path_900440" data-name="Path 900440" d="M317.289,246.113c2.033.073,3.654.853,3.622,1.74s-1.705,1.547-3.738,1.473-3.654-.852-3.621-1.74S315.257,246.039,317.289,246.113Z" transform="translate(-273.208 -214.442)" fill="#ff4076"/>
        <path id="Path_900441" data-name="Path 900441" d="M109.773,250.386c.077.885-1.5,1.745-3.528,1.922s-3.73-.4-3.808-1.281,1.5-1.745,3.528-1.922S109.7,249.5,109.773,250.386Z" transform="translate(-89.255 -217.026)" fill="#ff4076"/>
        <path id="Path_900442" data-name="Path 900442" d="M195.427,50.224a3.9,3.9,0,0,0-3.272-1.593h0c-.105,0-.214,0-.321.01-.884.055-2.452.421-5.845,2.963-1.711,1.282-3.1,2.528-3.159,2.58a3.49,3.49,0,0,0-.639,1.368l3.049-.017s2.53,5.61,6.471,5.278a3.577,3.577,0,0,0,3.174-3.055,3.623,3.623,0,0,0-.119-1.688A4.6,4.6,0,0,0,195.427,50.224Z" transform="translate(-158.75 -42.374)" fill="#5e0434"/>
        <path id="Path_900443" data-name="Path 900443" d="M197.176,68.69s5.46-4.906,7.832-5.052a2.028,2.028,0,0,1,1.906.78,2.7,2.7,0,0,1-.5,3.4,5.978,5.978,0,0,1-1.173.937l.091.055a1.752,1.752,0,0,1,.707,1.689c-.074.427-.4,1.191-1.732,1.509C200.687,72.925,197.121,68.733,197.176,68.69Z" transform="translate(-171.806 -55.444)" fill="#ef8d44"/>
        <path id="Path_900444" data-name="Path 900444" d="M234.125,70.383c.253.439-.519,1.359-1.726,2.056s-2.39.906-2.643.467.519-1.359,1.726-2.056S233.872,69.944,234.125,70.383Z" transform="translate(-200.153 -61.127)" fill="#fbbba1"/>
        <path id="Path_900445" data-name="Path 900445" d="M217.875,93.942c.133.23-.041.579-.388.78s-.736.176-.869-.054.041-.579.388-.78.736-.176.869.054Z" transform="translate(-188.709 -81.69)" fill="#fbbba1"/>
        <path id="Path_900446" data-name="Path 900446" d="M313.859,318.018a114.654,114.654,0,0,1-4.41-5.271,4.4,4.4,0,0,0-4.518,1.167s-9.519-2.26-10.528-.609,6.149,8.132,6.149,8.132a4.392,4.392,0,0,0,5.857,5.077,4.394,4.394,0,0,0,5.992-2.684q.026-.084.049-.168a4.387,4.387,0,0,0,1.409-5.643Z" transform="translate(-256.439 -272.329)" fill="#5e0434"/>
        <path id="Path_900447" data-name="Path 900447" d="M293.649,308.694c-.033-.01-.066-.017-.1-.026a2.592,2.592,0,0,0-4.986-1.407l-12.393-4.908a1.838,1.838,0,0,0-1.381,2.388l10.946,7.153a2.593,2.593,0,0,0,3.642,3.653,2.576,2.576,0,0,0,1.125.6,2.614,2.614,0,0,0,3.073-1.693,2.66,2.66,0,0,1,1.764-2.5A2.594,2.594,0,0,0,293.649,308.694Z" transform="translate(-239.347 -263.452)" fill="#f3f3f3"/>
        <path id="Path_900448" data-name="Path 900448" d="M23.544,318.018a4.374,4.374,0,0,1,1.371-1.571,4.394,4.394,0,0,1,7.557-2.533s9.519-2.26,10.528-.609-6.149,8.132-6.149,8.132a4.392,4.392,0,0,1-5.857,5.077A4.394,4.394,0,0,1,25,323.829q-.026-.084-.049-.168a4.387,4.387,0,0,1-1.409-5.643Z" transform="translate(-20.081 -272.329)" fill="#5e0434"/>
        <path id="Path_900449" data-name="Path 900449" d="M38.87,308.694c.033-.01.066-.017.1-.026a2.592,2.592,0,0,1,4.986-1.407l12.393-4.908a1.838,1.838,0,0,1,1.381,2.388l-10.946,7.153a2.593,2.593,0,0,1-3.642,3.653,2.592,2.592,0,0,1-4.333-1.931,2.592,2.592,0,0,1,.062-4.923Z" transform="translate(-32.29 -263.452)" fill="#f3f3f3"/>
        <g id="Group_1111568" data-name="Group 1111568" transform="translate(18.53 20.326)">
          <path id="Path_900450" data-name="Path 900450" d="M260.581,230.456A3.654,3.654,0,0,0,262.5,231a3.581,3.581,0,0,0,1.89-.53,3.679,3.679,0,0,0,1.317-1.374,1.076,1.076,0,1,0-1.89-1.031,1.6,1.6,0,0,1-.544.573,1.429,1.429,0,0,1-.773.215,1.619,1.619,0,0,1-.787-.215,1.534,1.534,0,0,1-.544-.587,1.073,1.073,0,1,0-1.9.988A3.7,3.7,0,0,0,260.581,230.456Z" transform="translate(-244.331 -218.53)" fill="#5e0434"/>
          <path id="Path_900451" data-name="Path 900451" d="M171.778,230.456A3.653,3.653,0,0,0,173.7,231a3.58,3.58,0,0,0,1.89-.53A3.681,3.681,0,0,0,176.9,229.1a1.076,1.076,0,1,0-1.89-1.031,1.6,1.6,0,0,1-.544.573,1.429,1.429,0,0,1-.773.215,1.619,1.619,0,0,1-.787-.215,1.535,1.535,0,0,1-.544-.587,1.072,1.072,0,1,0-1.9.988A3.7,3.7,0,0,0,171.778,230.456Z" transform="translate(-166.954 -218.53)" fill="#5e0434"/>
          <path id="Path_900452" data-name="Path 900452" d="M249.148,158.434a11.475,11.475,0,0,1-5.478,3.618,1.526,1.526,0,0,1-1.946-1.126v-.017c-.273-.666-1.4-1.058-1.843.239-.017.051-.034.12-.051.171a2.9,2.9,0,0,0,2.185,3.482,6.968,6.968,0,0,0,4.642-.632,9.1,9.1,0,0,0,4.352-4.523C251.247,157.922,249.83,157.563,249.148,158.434Z" transform="translate(-227.429 -157.977)" fill="#5e0434"/>
          <path id="Path_900453" data-name="Path 900453" d="M145.909,158.434a11.477,11.477,0,0,0,5.478,3.618,1.526,1.526,0,0,0,1.946-1.126v-.017c.273-.666,1.4-1.058,1.843.239.017.051.034.12.051.171a2.9,2.9,0,0,1-2.185,3.482,6.969,6.969,0,0,1-4.642-.632,9.1,9.1,0,0,1-4.352-4.523C143.81,157.922,145.227,157.563,145.909,158.434Z" transform="translate(-144.022 -157.977)" fill="#5e0434"/>
          <path id="Path_900454" data-name="Path 900454" d="M180.9,316.705a5.147,5.147,0,0,0,.3-.684,4.888,4.888,0,0,0,.271-1.607,5.267,5.267,0,0,0-.394-1.975,4.472,4.472,0,0,0-.425-.818,1.029,1.029,0,0,0-1.7,1.164h0a2.772,2.772,0,0,1,.239.487,3.2,3.2,0,0,1,.22,1.143,2.828,2.828,0,0,1-.158.933,3.515,3.515,0,0,1-.614,1.07,1.031,1.031,0,0,0-.153.257c-4.793.526-7.569,4.383-7.02,4.86a1.415,1.415,0,0,0,1.985-.129h0a5.331,5.331,0,0,1,1.477-1,10.448,10.448,0,0,1,4.645-.962,12,12,0,0,1,2.931.343,8.5,8.5,0,0,1,2.612,1.111,5.312,5.312,0,0,1,.578.435c.058.051.1.088.117.108l.016.017h0a1.415,1.415,0,0,0,1.987.089c.531-.48-2.25-4.216-6.913-4.842Z" transform="translate(-167.875 -291.466)" fill="#5e0434"/>
        </g>
      </g>
    </g>
  </g>
</svg>
