<svg xmlns="http://www.w3.org/2000/svg" width="86.369" height="86.369" viewBox="0 0 86.369 86.369">
  <g id="Group_1111563" data-name="Group 1111563" transform="translate(11680.5 11902.35)">
    <g id="Group_1099347" data-name="Group 1099347" transform="translate(-11585.5 -12119)">
      <g id="Group_1099341" data-name="Group 1099341" transform="translate(-95 216.65)">
        <g id="Rectangle_402588" data-name="Rectangle 402588" transform="translate(0 0)" fill="#f4c5c5" stroke="#fff" stroke-width="5">
          <rect width="86.369" height="86.369" rx="14" stroke="none"/>
          <rect x="2.5" y="2.5" width="81.369" height="81.369" rx="11.5" fill="none"/>
        </g>
      </g>
      <g id="Group_1111572" data-name="Group 1111572" transform="translate(-75.979 236.503)">
        <path id="Path_900469" data-name="Path 900469" d="M289.791,200.44v19.537a1.873,1.873,0,0,1-3.746,0v-7.9a.944.944,0,0,0-.944-.944h-6.192a.944.944,0,0,0-.944.944v7.9a1.873,1.873,0,0,1-3.746,0V200.44a2.653,2.653,0,0,1,.456-1.49h0a2.654,2.654,0,0,1,2.2-1.17h10.254a2.657,2.657,0,0,1,2.659,2.659Zm0,0" transform="translate(-248.336 -179.113)" fill="#ffeee1"/>
        <path id="Path_900470" data-name="Path 900470" d="M279.779,318h-.87a.944.944,0,0,0-.944.944v3.513a3.495,3.495,0,0,1-3.746-.562v-5.242a3.493,3.493,0,0,1,5.56,1.347Zm0,0" transform="translate(-248.336 -285.976)" fill="#618baa"/>
        <path id="Path_900471" data-name="Path 900471" d="M289.795,200.468v4.871H287.98c-.013.038-.024.076-.038.113a6.361,6.361,0,0,1-1.473,2.318,6.308,6.308,0,0,1-10.393-2.319c-.013-.037-.024-.074-.038-.112h-1.815v-4.871h1.48v-1.219a3.191,3.191,0,0,1-1.023-.3,2.653,2.653,0,0,1,2.2-1.17h10.254a2.657,2.657,0,0,1,2.2,1.167,3.191,3.191,0,0,1-1.022.3v1.219Zm0,0" transform="translate(-248.34 -179.113)" fill="#fecbaa"/>
        <path id="Path_900472" data-name="Path 900472" d="M69.795,200.44v19.537a1.873,1.873,0,0,1-3.746,0v-7.9a.944.944,0,0,0-.944-.944H58.913a.944.944,0,0,0-.944.944v7.9a1.873,1.873,0,0,1-3.746,0V200.44a2.65,2.65,0,0,1,.456-1.49h0a2.653,2.653,0,0,1,2.2-1.17H67.136a2.658,2.658,0,0,1,2.659,2.659Zm0,0" transform="translate(-49.105 -179.113)" fill="#ffeee1"/>
        <path id="Path_900473" data-name="Path 900473" d="M69.795,200.468v4.871H67.98c-.013.038-.024.076-.038.113a6.362,6.362,0,0,1-1.473,2.318,6.308,6.308,0,0,1-10.393-2.319c-.013-.037-.024-.074-.038-.112H54.223v-4.871H55.7v-1.219a3.191,3.191,0,0,1-1.023-.3,2.653,2.653,0,0,1,2.2-1.17H67.136a2.657,2.657,0,0,1,2.2,1.167,3.191,3.191,0,0,1-1.022.3v1.219Zm0,0" transform="translate(-49.105 -179.113)" fill="#fecbaa"/>
        <path id="Path_900474" data-name="Path 900474" d="M183.258,369.781v5.962a1.873,1.873,0,0,1-3.746,0v-5.962Zm0,0" transform="translate(-162.568 -334.879)" fill="#618baa"/>
        <path id="Path_900475" data-name="Path 900475" d="M56.441,308a2.217,2.217,0,0,1-2.218,2.218v-4.436A2.218,2.218,0,0,1,56.441,308Zm0,0" transform="translate(-49.105 -276.919)" fill="#618baa"/>
        <path id="Path_900476" data-name="Path 900476" d="M7.5,238.238H54.41v2.607H7.5Zm0,0" transform="translate(-6.792 -215.752)" fill="#e3f4ff"/>
        <path id="Path_900477" data-name="Path 900477" d="M67.824,151.916a2.091,2.091,0,0,1-2.092,2.092h-.75v5.172a5.173,5.173,0,1,1-10.347,0v-5.172h-.75a2.091,2.091,0,0,1-2.092-2.092.926.926,0,0,1,.926-.926h.79a1.97,1.97,0,0,0,1.7-.97,1.972,1.972,0,0,1,1.7-.969h5.8a1.972,1.972,0,0,1,1.7.969,1.973,1.973,0,0,0,1.7.97h.79a.925.925,0,0,1,.926.926Zm0,0" transform="translate(-46.904 -134.982)" fill="#ffeee1"/>
        <path id="Path_900478" data-name="Path 900478" d="M139.3,206.744h2.586V201.57H139.3a2.587,2.587,0,0,0,0,5.173Zm0,0" transform="translate(-123.811 -182.545)" fill="#618baa"/>
        <path id="Path_900479" data-name="Path 900479" d="M94.879,274.973a5.175,5.175,0,0,1-9.735,0Zm0,0" transform="translate(-77.108 -249.019)" fill="#ffae85"/>
        <path id="Path_900480" data-name="Path 900480" d="M287.82,151.916a2.091,2.091,0,0,1-2.092,2.092h-.75v5.172a5.173,5.173,0,1,1-10.347,0v-5.172h-.75a2.092,2.092,0,0,1-2.092-2.092.926.926,0,0,1,.926-.926h.79a1.97,1.97,0,0,0,1.7-.97,1.973,1.973,0,0,1,1.7-.969h5.8a1.972,1.972,0,0,1,1.7.969,1.973,1.973,0,0,0,1.7.97h.79a.925.925,0,0,1,.926.926Zm0,0" transform="translate(-246.136 -134.982)" fill="#ffeee1"/>
        <path id="Path_900481" data-name="Path 900481" d="M333.19,149.051v1.938a2.794,2.794,0,0,1-5.588,0v-1.938Zm0,0" transform="translate(-296.68 -134.982)" fill="#618baa"/>
        <path id="Path_900482" data-name="Path 900482" d="M314.879,274.973a5.175,5.175,0,0,1-9.735,0Zm0,0" transform="translate(-276.343 -249.019)" fill="#ffae85"/>
        <path id="Path_900483" data-name="Path 900483" d="M70.27,393.553v1.419H27.051v-1.419a2.178,2.178,0,0,1,.037-.4,2.278,2.278,0,0,1,2.244-1.876H67.99a2.278,2.278,0,0,1,2.244,1.876A2.178,2.178,0,0,1,70.27,393.553Zm0,0" transform="translate(-24.498 -354.342)" fill="#5be167"/>
        <path id="Path_900484" data-name="Path 900484" d="M70.27,411.548v1.419H27.051v-1.419a2.178,2.178,0,0,1,.037-.4H70.234A2.178,2.178,0,0,1,70.27,411.548Zm0,0" transform="translate(-24.498 -372.338)" fill="#1fc974"/>
        <path id="Path_900485" data-name="Path 900485" d="M53.453,429.157h-45A.957.957,0,0,1,7.5,428.2v-4.1a.958.958,0,0,1,.958-.958h45a.958.958,0,0,1,.958.958v4.1A.957.957,0,0,1,53.453,429.157Zm0,0" transform="translate(-6.792 -383.202)" fill="#e3f4ff"/>
        <path id="Path_900486" data-name="Path 900486" d="M70.126,47.348H28.979a.944.944,0,0,1-.944-.944v-2.83H71.069V46.4A.944.944,0,0,1,70.126,47.348Zm0,0" transform="translate(-25.389 -39.461)" fill="#64bdff"/>
        <path id="Path_900487" data-name="Path 900487" d="M53.466,11.9H8.445a.944.944,0,0,1-.864-1.322l1.1-2.512A.943.943,0,0,1,9.546,7.5H52.365a.943.943,0,0,1,.864.565l1.1,2.512A.944.944,0,0,1,53.466,11.9Zm0,0" transform="translate(-6.792 -6.792)" fill="#e3f4ff"/>
        <path id="Path_900488" data-name="Path 900488" d="M41.455,156.56a.708.708,0,0,0,.708-.708v-1.864h5.456a.708.708,0,0,0,0-1.416H39.545c0-.062,0-.124,0-.187v-1h8.068a.708.708,0,0,0,0-1.416H42.163v-.452a3.362,3.362,0,0,0-.825-2.206,2.8,2.8,0,0,0,1.055-2.187,1.636,1.636,0,0,0-1.634-1.634h-.79a1.271,1.271,0,0,1-1.09-.622,2.691,2.691,0,0,0-2.308-1.318h-5.8a2.692,2.692,0,0,0-2.308,1.318,1.27,1.27,0,0,1-1.089.622h-.79a1.636,1.636,0,0,0-1.634,1.634A2.8,2.8,0,0,0,26,147.308a3.378,3.378,0,0,0-.825,2.206v.452H21.4v-.452a3.354,3.354,0,0,0-.824-2.206,2.794,2.794,0,0,0,1.054-2.186,1.636,1.636,0,0,0-1.634-1.634H19.2a1.27,1.27,0,0,1-1.089-.622,2.692,2.692,0,0,0-2.309-1.318H10a2.692,2.692,0,0,0-2.309,1.318,1.27,1.27,0,0,1-1.089.622h-.79a1.636,1.636,0,0,0-1.634,1.634,2.8,2.8,0,0,0,1.055,2.187,3.36,3.36,0,0,0-.825,2.206v.452H.708a.708.708,0,0,0,0,1.416H7.023v1c0,.063,0,.125,0,.187H.708a.708.708,0,0,0,0,1.416h3.7v3.052s0,.006,0,.008,0,.006,0,.008v4.42s0,.006,0,.008,0,.006,0,.008v2.947A2.992,2.992,0,0,0,1.846,167.4v.021h-.18A1.667,1.667,0,0,0,0,169.083v4.1a1.667,1.667,0,0,0,1.665,1.665h45a1.667,1.667,0,0,0,1.665-1.665v-4.1a1.667,1.667,0,0,0-1.665-1.665h-.18v-.02a2.991,2.991,0,0,0-2.988-2.988h-1.33v-5.332a.708.708,0,0,0-1.416,0v5.332h-2.33v-3.255a1.654,1.654,0,0,0-1.652-1.652H31.9a4.2,4.2,0,0,0-5.3-1.9v-3.614h1.421c.033.115.069.23.108.342a.648.648,0,0,0,.032.092,5.881,5.881,0,0,0,11.034,0,.72.72,0,0,0,.032-.091q.059-.169.108-.343h1.421v1.864A.708.708,0,0,0,41.455,156.56Zm-.708-7.046v.452h-1.2V147.92h.043a2.855,2.855,0,0,0,.3-.017A1.95,1.95,0,0,1,40.747,149.513Zm-9.118-6.551H35.8v1.23a2.086,2.086,0,0,1-4.173,0Zm-5.05,1.94h.79a2.691,2.691,0,0,0,2.308-1.318,1.267,1.267,0,0,1,.535-.493v1.1a3.5,3.5,0,0,0,7,0v-1.051a1.265,1.265,0,0,1,.442.442,2.691,2.691,0,0,0,2.308,1.318h.79a.218.218,0,0,1,.218.218,1.385,1.385,0,0,1-1.384,1.384h-.751a.708.708,0,0,0-.708.708v5.173a4.437,4.437,0,0,1-.125,1.047h-8.68a4.456,4.456,0,0,1-.125-1.047v-5.173a.708.708,0,0,0-.708-.708h-.751a1.385,1.385,0,0,1-1.384-1.384A.219.219,0,0,1,26.58,144.9Zm.012,4.611a1.959,1.959,0,0,1,.85-1.61,2.855,2.855,0,0,0,.3.017h.043v2.045h-1.2v-.452Zm-6.61,0v.452h-1.2V147.92h.043a2.841,2.841,0,0,0,.3-.017A1.944,1.944,0,0,1,19.982,149.513Zm-4.491,2.164a1.879,1.879,0,0,1,0-3.757h1.879v3.757ZM5.814,144.9H6.6a2.691,2.691,0,0,0,2.308-1.318,1.27,1.27,0,0,1,1.09-.622h5.8a1.269,1.269,0,0,1,1.089.622A2.692,2.692,0,0,0,19.2,144.9h.79a.218.218,0,0,1,.218.218,1.385,1.385,0,0,1-1.384,1.384H15.491a3.295,3.295,0,0,0,0,6.589h1.822c-.018.115-.042.227-.069.339H8.564a4.459,4.459,0,0,1-.125-1.047v-5.173a.708.708,0,0,0-.708-.708H6.98A1.385,1.385,0,0,1,5.6,145.121.218.218,0,0,1,5.814,144.9Zm10.811,9.946a4.461,4.461,0,0,1-7.444,0Zm-10.8-4.883v-.452a1.949,1.949,0,0,1,.849-1.61,2.867,2.867,0,0,0,.3.017h.043v2.045Zm1.421,4.023q.049.173.108.342a.7.7,0,0,0,.032.092,5.881,5.881,0,0,0,11.034,0,.665.665,0,0,0,.032-.091c.04-.113.076-.227.108-.343h1.421v8.393h-2.33v-1.227A1.654,1.654,0,0,0,16,159.5H9.808a1.654,1.654,0,0,0-1.652,1.652v3.255H5.826v-2.3a2.926,2.926,0,0,0,0-5.679v-2.44ZM17.652,164.41V163.8h2.33v.613ZM5.826,157.934a1.51,1.51,0,0,1,0,2.668ZM46.91,169.083v4.1a.25.25,0,0,1-.25.25h-45a.25.25,0,0,1-.25-.25v-4.1a.25.25,0,0,1,.25-.25h45A.25.25,0,0,1,46.91,169.083ZM45.065,167.4v.02H3.262v-.02a1.574,1.574,0,0,1,1.572-1.572h5.635a.708.708,0,0,0,0-1.416h-.9v-3.255a.236.236,0,0,1,.236-.236H16a.236.236,0,0,1,.236.236v3.255H13.695a.708.708,0,0,0,0,1.416h29.8A1.573,1.573,0,0,1,45.065,167.4ZM37,161.155v3.255H30.337v-3.255a.236.236,0,0,1,.236-.236h6.192A.236.236,0,0,1,37,161.155Zm-8.81-2.454a2.769,2.769,0,0,1,2,.848,1.653,1.653,0,0,0-1.273,1.606v3.018a2.794,2.794,0,0,1-2.33-.409v-4.558A2.783,2.783,0,0,1,28.191,158.7Zm-3.015.163c0,.009,0,.019,0,.028v5.186c0,.009,0,.019,0,.028v.3H21.4V163.1s0-.006,0-.008,0-.005,0-.008v-9.093h3.778Zm-6.4-6.291c0-.062,0-.124,0-.187v-1h9v1c0,.063,0,.125,0,.187Zm14.889,4.278a4.464,4.464,0,0,1-3.722-2h7.444A4.464,4.464,0,0,1,33.669,156.85Zm0,0" transform="translate(0 -128.187)"/>
        <path id="Path_900489" data-name="Path 900489" d="M161.423,216.617a.708.708,0,0,0-.708.708v.566a.708.708,0,1,0,1.416,0v-.566A.708.708,0,0,0,161.423,216.617Zm0,0" transform="translate(-145.545 -196.171)"/>
        <path id="Path_900490" data-name="Path 900490" d="M98.423,218.6a.708.708,0,0,0,.708-.708v-.566a.708.708,0,0,0-1.416,0v.566A.708.708,0,0,0,98.423,218.6Zm0,0" transform="translate(-88.492 -196.171)"/>
        <path id="Path_900491" data-name="Path 900491" d="M381.423,218.6a.708.708,0,0,0,.708-.708v-.566a.708.708,0,0,0-1.416,0v.566A.708.708,0,0,0,381.423,218.6Zm0,0" transform="translate(-344.78 -196.171)"/>
        <path id="Path_900492" data-name="Path 900492" d="M318.423,218.6a.708.708,0,0,0,.708-.708v-.566a.708.708,0,1,0-1.416,0v.566A.708.708,0,0,0,318.423,218.6Zm0,0" transform="translate(-287.727 -196.171)"/>
        <path id="Path_900493" data-name="Path 900493" d="M1.655,5.815H1.94V6.943A1.653,1.653,0,0,0,3.592,8.594h8.483a.708.708,0,0,0,0-1.416H3.592a.236.236,0,0,1-.236-.236V5.815H44.974V6.943a.236.236,0,0,1-.236.236H15.3a.708.708,0,0,0,0,1.416H44.739A1.653,1.653,0,0,0,46.39,6.943V5.815h.286A1.652,1.652,0,0,0,48.188,3.5L47.088.988A1.651,1.651,0,0,0,45.575,0H2.755A1.651,1.651,0,0,0,1.243.988L.142,3.5A1.651,1.651,0,0,0,1.655,5.815ZM1.439,4.069l1.1-2.512a.235.235,0,0,1,.216-.141H45.575a.236.236,0,0,1,.216.141l1.1,2.512a.236.236,0,0,1-.216.33H1.655a.236.236,0,0,1-.216-.33Zm0,0" transform="translate(-0.002)"/>
      </g>
    </g>
  </g>
</svg>
