<svg xmlns="http://www.w3.org/2000/svg" width="62.865" height="62.865" viewBox="0 0 62.865 62.865">
  <g id="Group_1111433" data-name="Group 1111433" transform="translate(-1011.15 -2830.298)">
    <g id="Group_1099341" data-name="Group 1099341" transform="translate(1011.15 2830.298)">
      <g id="Rectangle_402588" data-name="Rectangle 402588" transform="translate(0 0)" fill="#efd026" stroke="#fff" stroke-width="5">
        <rect width="62.865" height="62.865" rx="14" stroke="none"/>
        <rect x="2.5" y="2.5" width="57.865" height="57.865" rx="11.5" fill="none"/>
      </g>
    </g>
    <g id="Group_1111432" data-name="Group 1111432" transform="translate(1002.818 2843.183)">
      <path id="Path_900230" data-name="Path 900230" d="M49.2,42.378l-1.611.846a.885.885,0,0,1-.823,0l-1.611-.846C36.317,37.73,30.871,29.153,30.871,19.872V14.2a.88.88,0,0,1,.78-.879,6.423,6.423,0,0,0,5.858-5.264.89.89,0,0,1,.878-.774h17.59a.89.89,0,0,1,.878.774,6.423,6.423,0,0,0,5.858,5.264.88.88,0,0,1,.78.879v5.669C63.493,29.153,58.048,37.73,49.2,42.378Z" transform="translate(-6.759 -6.759)" fill="#e1e6e9"/>
      <path id="Path_900231" data-name="Path 900231" d="M268.359,13.324A6.423,6.423,0,0,1,262.5,8.06a.89.89,0,0,0-.878-.774h-1.2a6.955,6.955,0,0,0,5.849,6.851.88.88,0,0,1,.78.879v5.669c0,9.281-5.446,17.858-14.289,22.506l-.186.1a.884.884,0,0,0,.66-.065l1.611-.846c8.843-4.648,14.289-13.225,14.289-22.506V14.2A.88.88,0,0,0,268.359,13.324Z" transform="translate(-212.406 -6.758)" fill="#cbcbcb"/>
      <path id="Path_900232" data-name="Path 900232" d="M79.785,71.409a25.338,25.338,0,0,1-9.646-8.76,21.951,21.951,0,0,1-3.475-11.767V47.664a1.136,1.136,0,0,1,.716-1.057,9.971,9.971,0,0,0,5.362-4.928,1.133,1.133,0,0,1,1.025-.643H87a1.134,1.134,0,0,1,1.025.643,9.971,9.971,0,0,0,5.362,4.928,1.136,1.136,0,0,1,.716,1.057v3.218a21.951,21.951,0,0,1-3.475,11.767,25.339,25.339,0,0,1-9.646,8.76l-.067.035a1.139,1.139,0,0,1-1.06,0Z" transform="translate(-39.959 -38.063)" fill="#4ad194"/>
      <path id="Path_900233" data-name="Path 900233" d="M269,46.606l-.056-.023-.093-.038-.157-.067-.09-.039-.166-.076-.075-.035q-.119-.057-.237-.116l-.018-.009q-.109-.055-.216-.113l-.076-.041-.155-.087-.085-.049-.144-.086-.083-.051-.149-.094-.072-.046q-.1-.066-.2-.135l-.015-.01q-.107-.074-.211-.15l-.065-.048-.143-.108-.076-.059-.13-.1-.075-.061-.131-.111-.067-.057q-.08-.07-.159-.142l-.033-.029q-.095-.087-.186-.176l-.053-.052-.13-.129-.065-.067-.114-.12-.066-.071-.112-.124-.06-.068c-.043-.05-.086-.1-.128-.151l-.037-.044q-.081-.1-.159-.2l-.039-.052q-.058-.075-.114-.152l-.053-.074-.1-.135-.055-.079-.092-.137-.05-.077c-.034-.052-.066-.1-.1-.158l-.036-.058q-.066-.109-.129-.219l-.026-.047q-.049-.088-.1-.176l-.041-.079c-.026-.049-.051-.1-.076-.149l-.042-.086-.032-.065a1.134,1.134,0,0,0-1.025-.643H256V71.574a1.139,1.139,0,0,0,.53-.131l.067-.035a25.338,25.338,0,0,0,9.646-8.76,21.951,21.951,0,0,0,3.475-11.767V47.663A1.136,1.136,0,0,0,269,46.606Z" transform="translate(-215.578 -38.062)" fill="#35b79e"/>
      <path id="Path_900234" data-name="Path 900234" d="M269,46.606l-.056-.023-.093-.038-.157-.067-.09-.039-.166-.076-.075-.035q-.119-.057-.237-.116l-.018-.009q-.109-.055-.216-.113l-.076-.041-.155-.087-.085-.049-.144-.086-.083-.051-.149-.094-.072-.046q-.1-.066-.2-.135l-.015-.01q-.107-.074-.211-.15l-.065-.048-.143-.108-.076-.059-.13-.1-.075-.061-.131-.111-.067-.057q-.08-.07-.159-.142l-.033-.029q-.095-.087-.187-.176l-.053-.052-.13-.129-.065-.067-.114-.12-.066-.071-.112-.124-.06-.068q-.065-.075-.128-.151l-.037-.044q-.081-.1-.159-.2l-.039-.052q-.058-.075-.114-.152l-.053-.074-.1-.135-.055-.079-.092-.137-.05-.077c-.034-.052-.066-.105-.1-.158l-.036-.058q-.066-.109-.129-.219l-.026-.047q-.049-.088-.1-.176l-.041-.079q-.039-.074-.076-.149l-.042-.086-.032-.065a1.134,1.134,0,0,0-1.025-.643h-1.831a10.16,10.16,0,0,1,.8,1.214c.012.021.021.043.032.065l.042.086q.037.075.076.149l.041.079q.047.089.1.176l.026.047q.063.11.129.219l.036.058q.049.079.1.158l.05.077.092.137.055.079.1.135.053.074c.038.051.076.1.114.152l.039.052q.078.1.159.2l.037.044q.063.076.128.151l.06.068.112.124.066.071.114.12.065.067.13.129.053.052q.092.089.186.176l.033.029q.079.072.159.142l.067.057.131.111.075.061.13.1.076.059.143.108.065.048q.1.076.211.15l.015.01q.1.068.2.135l.072.046.149.094.083.051.144.086.085.049.155.087.076.041q.107.058.216.113l.018.009q.117.059.237.116l.075.035.166.076.09.039.157.067.093.038.056.023a1.136,1.136,0,0,1,.716,1.057v3.218a21.951,21.951,0,0,1-3.475,11.767A27.035,27.035,0,0,1,256,71.544v.03a1.139,1.139,0,0,0,.53-.131l.067-.035a25.338,25.338,0,0,0,9.646-8.76,21.951,21.951,0,0,0,3.475-11.767V47.663A1.136,1.136,0,0,0,269,46.606Z" transform="translate(-215.578 -38.062)" fill="#1e9690"/>
      <path id="Path_900235" data-name="Path 900235" d="M170.418,199.013H158.365a1.151,1.151,0,0,1-1.151-1.151V190.3a1.151,1.151,0,0,1,1.151-1.151h12.053a1.151,1.151,0,0,1,1.151,1.151v7.559A1.151,1.151,0,0,1,170.418,199.013Z" transform="translate(-123.948 -175.448)" fill="#636a75"/>
      <path id="Path_900236" data-name="Path 900236" d="M312.779,189.152H310.7a1.151,1.151,0,0,1,1.151,1.151v7.559a1.151,1.151,0,0,1-1.151,1.151h2.084a1.151,1.151,0,0,0,1.151-1.151V190.3A1.151,1.151,0,0,0,312.779,189.152Z" transform="translate(-266.309 -175.448)" fill="#515a66"/>
      <path id="Path_900237" data-name="Path 900237" d="M239.923,234.608v1.5a.528.528,0,0,0,1.056,0v-1.5a1.236,1.236,0,1,0-1.056,0Z" transform="translate(-200.007 -215.428)"/>
      <path id="Path_900238" data-name="Path 900238" d="M72.782,65.117h0l.067.035a1.667,1.667,0,0,0,1.551,0l.067-.035a25.866,25.866,0,0,0,9.846-8.945,22.478,22.478,0,0,0,3.557-12.05V40.9a1.654,1.654,0,0,0-1.049-1.548,9.388,9.388,0,0,1-5.079-4.664,1.668,1.668,0,0,0-1.5-.944H67.01a1.668,1.668,0,0,0-1.5.944,9.388,9.388,0,0,1-5.079,4.664A1.655,1.655,0,0,0,59.379,40.9v3.218a22.478,22.478,0,0,0,3.557,12.05A25.866,25.866,0,0,0,72.782,65.117ZM60.435,44.123V40.9a.6.6,0,0,1,.382-.566,10.439,10.439,0,0,0,5.644-5.192.608.608,0,0,1,.548-.341H80.24a.608.608,0,0,1,.548.341,10.44,10.44,0,0,0,5.645,5.192.6.6,0,0,1,.382.566v3.218a21.424,21.424,0,0,1-3.393,11.484,24.811,24.811,0,0,1-9.446,8.576l-.067.035a.611.611,0,0,1-.569,0l-.067-.035a24.81,24.81,0,0,1-9.446-8.576A21.424,21.424,0,0,1,60.435,44.123Z" transform="translate(-33.202 -31.304)"/>
      <path id="Path_900239" data-name="Path 900239" d="M63.662,245.53a.528.528,0,0,0-.631.4A25.779,25.779,0,0,1,49.6,262.853l-1.611.847a.357.357,0,0,1-.332,0l-1.611-.847A25.772,25.772,0,0,1,32.6,245.9a.528.528,0,0,0-1.03.231,26.824,26.824,0,0,0,13.981,17.657l1.611.847a1.412,1.412,0,0,0,1.315,0l1.611-.847A26.832,26.832,0,0,0,64.06,246.161.528.528,0,0,0,63.662,245.53Z" transform="translate(-7.396 -227.701)"/>
      <path id="Path_900240" data-name="Path 900240" d="M56.009,6.041a5.872,5.872,0,0,1-5.39-4.812A1.426,1.426,0,0,0,49.218,0H31.628a1.426,1.426,0,0,0-1.4,1.229,5.872,5.872,0,0,1-5.39,4.812,1.4,1.4,0,0,0-1.253,1.4v5.669a24.3,24.3,0,0,0,.127,2.475.528.528,0,0,0,.525.474l.055,0a.528.528,0,0,0,.471-.579,23.248,23.248,0,0,1-.121-2.368V7.444a.354.354,0,0,1,.308-.354,6.923,6.923,0,0,0,6.325-5.716.361.361,0,0,1,.355-.319h17.59a.361.361,0,0,1,.355.319A6.923,6.923,0,0,0,55.9,7.091a.354.354,0,0,1,.308.354v5.669a23.257,23.257,0,0,1-.119,2.343.528.528,0,0,0,1.05.107,24.308,24.308,0,0,0,.124-2.45V7.444A1.4,1.4,0,0,0,56.009,6.041Z"/>
      <path id="Path_900241" data-name="Path 900241" d="M163.659,94.48a1.681,1.681,0,0,0,1.679-1.679V85.242a1.681,1.681,0,0,0-1.679-1.679h-.868v-2.52a5.158,5.158,0,0,0-10.317,0v2.52h-.868a1.681,1.681,0,0,0-1.679,1.679V92.8a1.681,1.681,0,0,0,1.679,1.679ZM153.53,81.043a4.1,4.1,0,0,1,8.205,0v2.52H153.53ZM150.983,92.8V85.242a.624.624,0,0,1,.623-.623h12.053a.624.624,0,0,1,.623.623V92.8a.624.624,0,0,1-.623.623H151.606A.624.624,0,0,1,150.983,92.8Z" transform="translate(-117.189 -70.387)"/>
    </g>
  </g>
</svg>
