<svg xmlns="http://www.w3.org/2000/svg" width="62.865" height="62.865" viewBox="0 0 62.865 62.865">
  <g id="Group_1111421" data-name="Group 1111421" transform="translate(-276.15 -2830)">
    <g id="Group_1099341" data-name="Group 1099341" transform="translate(276.15 2830)">
      <g id="Rectangle_402588" data-name="Rectangle 402588" transform="translate(0 0)" fill="#efd026" stroke="#fff" stroke-width="5">
        <rect width="62.865" height="62.865" rx="14" stroke="none"/>
        <rect x="2.5" y="2.5" width="57.865" height="57.865" rx="11.5" fill="none"/>
      </g>
    </g>
    <g id="Group_1111420" data-name="Group 1111420" transform="translate(233.184 2821.567)">
      <path id="Path_900196" data-name="Path 900196" d="M66.035,39.908a13.422,13.422,0,0,1,8.817-10.6,15.3,15.3,0,0,1,8.477-.389,18.729,18.729,0,0,1,8.056,4.17,12.745,12.745,0,0,1,3.91,5.192,7.687,7.687,0,0,1-.324,5.515.163.163,0,0,0,.011.143l2.676,4.587a1.41,1.41,0,0,1-.505,1.921c-.236.137-.475.256-.721.372a1.8,1.8,0,0,0-.752.526,1.309,1.309,0,0,0,.054,1.006,1.354,1.354,0,0,1,.062.824,1.661,1.661,0,0,1-.3.542.757.757,0,0,0-.226.68,1.447,1.447,0,0,1-.316,1.433.393.393,0,0,0-.077.367,3.432,3.432,0,0,0,.264.711,2.706,2.706,0,0,1,.23,2.609,3.775,3.775,0,0,1-2.172,1.25,14.113,14.113,0,0,1-2.309.385,32.94,32.94,0,0,1-3.439.119.162.162,0,0,0-.116.046.164.164,0,0,0-.048.117v5.035H70.2l.015-.341a11.87,11.87,0,0,1,.291-2.1c.139-.617.319-1.22.5-1.825.174-.579.347-1.155.482-1.745a11.032,11.032,0,0,0,.272-1.918,13.386,13.386,0,0,0-.908-5.164c0-.007-.006-.014-.009-.021-.385-.734-.786-1.461-1.187-2.186a46.289,46.289,0,0,1-2.824-5.685A10.486,10.486,0,0,1,66.035,39.908Z" transform="translate(-7.304 -7.409)" fill="#f6dccd" fill-rule="evenodd"/>
      <g id="Group_1111419" data-name="Group 1111419" transform="translate(63.978 24.776)">
        <path id="Path_900197" data-name="Path 900197" d="M150.9,251.92a1.2,1.2,0,0,1,.622.165.61.61,0,0,1,.326.495c0,.445-.573.659-.949.659h-4.383l-5.073,0-4.82,0a1.134,1.134,0,0,1-.609-.167.609.609,0,0,1-.31-.491c0-.437.545-.659.918-.659H150.9Z" transform="translate(-135.377 -237.4)" fill="#f1f1f2" fill-rule="evenodd"/>
        <path id="Path_900198" data-name="Path 900198" d="M226.375,281.629H224.74V272.07l1.635,0Z" transform="translate(-217.162 -255.908)" fill="#f1f1f2" fill-rule="evenodd"/>
        <path id="Path_900199" data-name="Path 900199" d="M200.521,393.38a.776.776,0,0,1,.776.776v.776H194.78v-.776a.776.776,0,0,1,.776-.776Z" transform="translate(-189.643 -367.333)" fill="#f1f1f2" fill-rule="evenodd"/>
        <path id="Path_900200" data-name="Path 900200" d="M193.557,416.42a.777.777,0,0,1,.776.776v.776H186.46V417.2a.777.777,0,0,1,.776-.776Z" transform="translate(-182.001 -388.495)" fill="#f1f1f2" fill-rule="evenodd"/>
        <path id="Path_900201" data-name="Path 900201" d="M132.747,253.061a2.24,2.24,0,0,0,4.478,0v-.067a.165.165,0,0,0-.025-.089l-1.948-3.017h3.742v9.558h-1.34a1.1,1.1,0,0,0-1.1,1.1v.846l-.154.1a1.1,1.1,0,0,0-.524.935v.939a.163.163,0,0,0,.163.163h8.2a.162.162,0,0,0,.163-.163v-.939a1.1,1.1,0,0,0-.523-.935l-.154-.1v-.845a1.1,1.1,0,0,0-1.1-1.1h-1.34V249.89h3.736l-1.948,3.015a.161.161,0,0,0-.025.089v.068a2.24,2.24,0,0,0,4.478-.012v-.055a.165.165,0,0,0-.025-.089l-1.948-3.015h1.713c.57,0,1.274-.332,1.274-.985a.881.881,0,0,0-.35-.675,1.466,1.466,0,0,0-.924-.31H132.984c-.559,0-1.244.356-1.244.985a.885.885,0,0,0,.344.676,1.41,1.41,0,0,0,.9.309h1.739l-1.949,3.017a.161.161,0,0,0-.025.089v.066Z" transform="translate(-131.74 -233.726)" fill="#f1f1f2" fill-rule="evenodd"/>
        <path id="Path_900202" data-name="Path 900202" d="M264.195,123.585l-.918-.246a.448.448,0,0,0-.546.315l-.2.74-.226.021c-.07.007-.139.016-.209.028l-.222.036-.382-.662a.447.447,0,0,0-.609-.163l-.824.476a.446.446,0,0,0-.162.609l.382.662-.142.174c-.044.055-.087.11-.128.167l-.131.184-.741-.2a.448.448,0,0,0-.545.315l-.246.918a.447.447,0,0,0,.315.546l.74.2.021.226c.007.07.016.139.028.209l.036.222-.662.382a.445.445,0,0,0-.208.271.44.44,0,0,0,.044.337l.475.823a.436.436,0,0,0,.271.207.441.441,0,0,0,.339-.044l.661-.382.174.142q.082.067.169.13l.183.131-.2.739a.448.448,0,0,0,.315.545l.918.246a.453.453,0,0,0,.114.015.447.447,0,0,0,.431-.329l.2-.741.226-.021c.07-.007.139-.016.209-.027l.222-.036.382.662a.446.446,0,0,0,.608.164l.823-.475a.447.447,0,0,0,.164-.61l-.383-.662.143-.174c.045-.054.087-.11.128-.167l.131-.184.74.2a.445.445,0,0,0,.544-.315l.246-.918a.447.447,0,0,0-.315-.545l-.742-.2-.02-.227c-.007-.069-.016-.139-.027-.208l-.035-.221.661-.382a.446.446,0,0,0,.164-.609l-.475-.824a.446.446,0,0,0-.609-.162l-.662.381-.174-.142c-.055-.044-.11-.087-.167-.127l-.185-.131.2-.741a.441.441,0,0,0-.045-.337.427.427,0,0,0-.267-.209Z" transform="translate(-248.018 -119.283)" fill="#f1f1f2" fill-rule="evenodd"/>
        <path id="Path_900203" data-name="Path 900203" d="M142.79,80.921l.734.734-1.1,1.1-.733-.733a.511.511,0,0,0-.595-.1,3.515,3.515,0,0,1-.5.209.51.51,0,0,0-.353.487v1.037h-1.554V82.621a.511.511,0,0,0-.354-.487,3.66,3.66,0,0,1-.5-.209.513.513,0,0,0-.595.1l-.734.733-1.1-1.1.734-.734a.512.512,0,0,0,.095-.594,3.514,3.514,0,0,1-.208-.5.512.512,0,0,0-.488-.354H134.5V77.918h1.037a.511.511,0,0,0,.488-.354,3.688,3.688,0,0,1,.208-.5.513.513,0,0,0-.095-.6l-.734-.734,1.1-1.1.734.733a.513.513,0,0,0,.6.095,3.747,3.747,0,0,1,.5-.209.512.512,0,0,0,.353-.487V73.73h1.554v1.037a.513.513,0,0,0,.353.488,3.6,3.6,0,0,1,.5.208.513.513,0,0,0,.595-.095l.733-.733,1.1,1.1-.734.734a.511.511,0,0,0-.1.595,3.506,3.506,0,0,1,.209.5.511.511,0,0,0,.487.354h1.038v1.553H143.39a.51.51,0,0,0-.487.354,3.507,3.507,0,0,1-.209.5.511.511,0,0,0,.1.595Z" transform="translate(-134.275 -73.73)" fill="#f1f1f2" fill-rule="evenodd"/>
      </g>
      <path id="Path_900204" data-name="Path 900204" d="M139.343,76.716q.088-.185.157-.378l.077-.216h.98a.514.514,0,0,0,.513-.513V74.43a.514.514,0,0,0-.513-.513h-.982L139.5,73.7a3.672,3.672,0,0,0-.156-.375l-.1-.208.694-.694a.512.512,0,0,0,0-.726l-.834-.834a.513.513,0,0,0-.725,0l-.694.694-.208-.1a3.908,3.908,0,0,0-.377-.156l-.216-.077v-.98a.514.514,0,0,0-.513-.513h-1.179a.514.514,0,0,0-.513.513v.98l-.216.077a3.686,3.686,0,0,0-.376.156l-.209.1-.7-.7a.514.514,0,0,0-.726,0l-.834.834a.513.513,0,0,0,0,.725l.694.7-.1.208a3.949,3.949,0,0,0-.156.375l-.077.218H131a.514.514,0,0,0-.513.513v1.179a.514.514,0,0,0,.513.513h.982l.077.218a3.68,3.68,0,0,0,.156.376l.1.208-.694.694a.513.513,0,0,0,0,.725l.834.834a.513.513,0,0,0,.727,0l.694-.694.208.1a3.911,3.911,0,0,0,.377.156l.215.077v.98a.514.514,0,0,0,.513.513h1.179a.514.514,0,0,0,.513-.513v-.98l.215-.078c.128-.046.255-.1.378-.157l.208-.1.694.693a.512.512,0,0,0,.725,0l.834-.834a.511.511,0,0,0,0-.725l-.694-.694Z" transform="translate(-66.614 -45.28)" fill="#60b7ff" fill-rule="evenodd"/>
      <path id="Path_900205" data-name="Path 900205" d="M267.924,128.81a.444.444,0,0,0,.52.054l.7-.4.595,1.03-.7.4a.446.446,0,0,0-.213.477,2.837,2.837,0,0,1,.057.43.442.442,0,0,0,.329.406l.777.208-.306,1.149-.779-.209a.445.445,0,0,0-.488.186,2.915,2.915,0,0,1-.264.344.445.445,0,0,0-.055.52l.4.7-1.029.595-.4-.7a.446.446,0,0,0-.478-.213,2.843,2.843,0,0,1-.43.057.442.442,0,0,0-.4.33l-.209.777-1.148-.308.208-.777a.446.446,0,0,0-.186-.489,2.92,2.92,0,0,1-.344-.264.443.443,0,0,0-.52-.054l-.7.4-.595-1.029.7-.4a.446.446,0,0,0,.213-.478,2.845,2.845,0,0,1-.057-.43.444.444,0,0,0-.329-.406l-.777-.209.309-1.148.777.208a.445.445,0,0,0,.489-.187,2.92,2.92,0,0,1,.264-.344.445.445,0,0,0,.055-.52l-.4-.7,1.029-.595.4.7a.447.447,0,0,0,.478.214,2.938,2.938,0,0,1,.429-.057.443.443,0,0,0,.406-.329l.208-.777,1.149.307-.208.777a.445.445,0,0,0,.187.489A3.307,3.307,0,0,1,267.924,128.81Z" transform="translate(-187.416 -97.856)" fill="#60b7ff" fill-rule="evenodd"/>
      <circle id="Ellipse_11590" data-name="Ellipse 11590" cx="1.653" cy="1.653" r="1.653" transform="translate(67.33 28.309) rotate(-7.004)" fill="#f1f1f2"/>
      <path id="Path_900206" data-name="Path 900206" d="M175.087,112.348a1.978,1.978,0,1,0-1.979,1.979A1.981,1.981,0,0,0,175.087,112.348Z" transform="translate(-103.942 -82.608)" fill="#f1f1f2" fill-rule="evenodd"/>
      <path id="Path_900207" data-name="Path 900207" d="M149.77,277.181l1.776-2.751,1.778,2.751Z" transform="translate(-84.322 -233.3)" fill="#f1f1f2" fill-rule="evenodd"/>
      <path id="Path_900208" data-name="Path 900208" d="M151.318,312.607a1.912,1.912,0,0,1-3.639,0l-.139-.427h3.916Z" transform="translate(-82.274 -267.974)" fill="#60b7ff" fill-rule="evenodd"/>
      <path id="Path_900209" data-name="Path 900209" d="M273.86,312.19h3.916l-.138.426a1.912,1.912,0,0,1-3.639,0Z" transform="translate(-198.301 -267.983)" fill="#60b7ff" fill-rule="evenodd"/>
      <path id="Path_900210" data-name="Path 900210" d="M276.1,277.181l1.776-2.751,1.778,2.751Z" transform="translate(-200.358 -233.3)" fill="#f1f1f2" fill-rule="evenodd"/>
      <path id="Path_900211" data-name="Path 900211" d="M300.173,164.112a1.052,1.052,0,1,1-1.051-1.052A1.053,1.053,0,0,1,300.173,164.112Z" transform="translate(-220.538 -131.005)" fill="#f1f1f2" fill-rule="evenodd"/>
      <path id="Path_900212" data-name="Path 900212" d="M295.448,159.06a1.378,1.378,0,1,0,1.377,1.378A1.379,1.379,0,0,0,295.448,159.06Z" transform="translate(-216.864 -127.331)" fill="#f1f1f2" fill-rule="evenodd"/>
      <path id="Path_900213" data-name="Path 900213" d="M79.5,40.289H75.113l-5.073,0-4.82,0c-.362,0-.592-.2-.592-.333,0-.194.354-.333.592-.333H79.5c.375,0,.623.2.623.333C80.119,40.135,79.777,40.289,79.5,40.289Zm-6.631,9.883h-.983V41.265h.983ZM75.306,51.6v.45H69.441V51.6a.45.45,0,0,1,.45-.45h4.965A.45.45,0,0,1,75.306,51.6Zm.678,2.327H68.763v-.45a.451.451,0,0,1,.45-.45h6.321a.45.45,0,0,1,.45.45Zm.356-10.371,1.178-1.824L78.7,43.555Zm1.178,2.077a1.59,1.59,0,0,1-1.51-1.1h3.02A1.589,1.589,0,0,1,77.518,45.633ZM66.046,43.555l1.178-1.824L68.4,43.555Zm1.178,2.077a1.59,1.59,0,0,1-1.51-1.1h3.02A1.589,1.589,0,0,1,67.224,45.633ZM79.5,38.644H65.22a1.333,1.333,0,1,0,0,2.622h1.14l-1.624,2.513a.489.489,0,0,0-.077.266h0a2.566,2.566,0,1,0,5.131,0h0a.489.489,0,0,0-.077-.266l-1.624-2.514H70.9v8.907H69.891A1.429,1.429,0,0,0,68.463,51.6v.665a1.427,1.427,0,0,0-.678,1.213v.939a.489.489,0,0,0,.489.489h8.2a.489.489,0,0,0,.489-.489v-.939a1.425,1.425,0,0,0-.678-1.213V51.6a1.429,1.429,0,0,0-1.428-1.428H73.843V41.266h2.811l-1.623,2.512a.489.489,0,0,0-.077.266h0a2.566,2.566,0,1,0,5.131,0h0a.489.489,0,0,0-.077-.266l-1.623-2.512H79.5a1.337,1.337,0,1,0,0-2.622Zm-.913-4.812a.726.726,0,1,1,.725-.725A.727.727,0,0,1,78.584,33.832Zm0-2.429a1.7,1.7,0,1,0,1.7,1.7A1.706,1.706,0,0,0,78.584,31.4Zm3.452,2.907.139-.519-.463-.124a.771.771,0,0,1-.57-.7,2.507,2.507,0,0,0-.051-.381.77.77,0,0,1,.369-.826l.416-.24-.269-.465-.416.24a.77.77,0,0,1-.9-.094,2.436,2.436,0,0,0-.3-.234.771.771,0,0,1-.323-.846l.124-.463-.519-.139-.124.463a.77.77,0,0,1-.7.57,2.507,2.507,0,0,0-.381.051.77.77,0,0,1-.826-.37l-.24-.415-.465.269.24.416a.77.77,0,0,1-.094.9,2.561,2.561,0,0,0-.234.3.77.77,0,0,1-.846.323l-.462-.124-.139.519.463.124a.771.771,0,0,1,.57.7,2.507,2.507,0,0,0,.051.381.771.771,0,0,1-.369.827l-.416.24.269.465.416-.24a.77.77,0,0,1,.9.094,2.478,2.478,0,0,0,.3.234.771.771,0,0,1,.323.846l-.124.462.519.139.125-.463a.769.769,0,0,1,.7-.57,2.507,2.507,0,0,0,.381-.051.772.772,0,0,1,.827.369l.24.416.465-.269-.24-.416a.77.77,0,0,1,.094-.9,2.479,2.479,0,0,0,.234-.3.77.77,0,0,1,.845-.323Zm.592-1.411-.522-.139c-.007-.077-.018-.154-.03-.23l.467-.27a.772.772,0,0,0,.283-1.054l-.475-.824A.773.773,0,0,0,81.3,30.1l-.468.27c-.059-.049-.121-.1-.184-.141l.14-.522a.772.772,0,0,0-.545-.944l-.918-.246a.773.773,0,0,0-.945.545l-.139.522c-.077.007-.153.018-.23.03l-.27-.467a.772.772,0,0,0-1.054-.283l-.824.476a.772.772,0,0,0-.282,1.054l.27.467c-.049.059-.1.121-.141.184l-.522-.14a.772.772,0,0,0-.944.546l-.246.918a.772.772,0,0,0,.545.945l.522.139c.007.077.018.153.03.23l-.467.27a.772.772,0,0,0-.283,1.054l.475.823a.773.773,0,0,0,1.054.283l.467-.27c.06.049.121.1.184.141l-.14.522a.772.772,0,0,0,.546.944l.918.246a.757.757,0,0,0,.2.026.773.773,0,0,0,.746-.571l.139-.522c.077-.007.154-.018.23-.03l.27.467a.772.772,0,0,0,1.054.283l.823-.475a.773.773,0,0,0,.283-1.054l-.27-.467c.049-.059.1-.121.141-.184l.522.14a.772.772,0,0,0,.944-.546l.246-.918a.772.772,0,0,0-.545-.944ZM69.167,28.414A1.327,1.327,0,1,1,67.84,29.74,1.328,1.328,0,0,1,69.167,28.414Zm0,3.631a2.3,2.3,0,1,0-2.3-2.3A2.306,2.306,0,0,0,69.167,32.045ZM64.528,29.29v.9h.711a.839.839,0,0,1,.8.578,3.272,3.272,0,0,0,.189.457.837.837,0,0,1-.155.972l-.5.5.637.637.5-.5a.837.837,0,0,1,.973-.156,3.269,3.269,0,0,0,.456.19.837.837,0,0,1,.578.8v.711h.9v-.711a.836.836,0,0,1,.577-.8,3.239,3.239,0,0,0,.457-.19.836.836,0,0,1,.972.156l.5.5.638-.637-.5-.5a.837.837,0,0,1-.156-.973,3.227,3.227,0,0,0,.19-.456.837.837,0,0,1,.8-.578h.712v-.9h-.712a.837.837,0,0,1-.8-.578,3.226,3.226,0,0,0-.19-.456.837.837,0,0,1,.156-.973l.5-.5-.638-.637-.5.5a.837.837,0,0,1-.972.155,3.292,3.292,0,0,0-.457-.189.838.838,0,0,1-.577-.8V25.1h-.9v.711a.837.837,0,0,1-.577.8,3.354,3.354,0,0,0-.457.19.838.838,0,0,1-.973-.155l-.5-.5-.637.637.5.5a.838.838,0,0,1,.155.973,3.323,3.323,0,0,0-.189.456.839.839,0,0,1-.8.578Zm-.139,1.879a.84.84,0,0,1-.839-.838V29.151a.84.84,0,0,1,.839-.839h.751a4.122,4.122,0,0,1,.169-.407l-.531-.532a.84.84,0,0,1,0-1.186l.834-.834a.841.841,0,0,1,1.187,0l.531.531a4.247,4.247,0,0,1,.407-.169v-.75a.84.84,0,0,1,.839-.839h1.179a.84.84,0,0,1,.839.839v.75a4.335,4.335,0,0,1,.407.169l.531-.531a.84.84,0,0,1,1.186,0l.834.834a.839.839,0,0,1,0,1.187l-.531.531a4.131,4.131,0,0,1,.169.407h.751a.84.84,0,0,1,.839.839V30.33a.84.84,0,0,1-.839.838h-.751a4.354,4.354,0,0,1-.169.408l.531.531a.838.838,0,0,1,0,1.186l-.834.834a.838.838,0,0,1-1.186,0L71,33.6c-.133.064-.27.12-.407.169v.751a.84.84,0,0,1-.839.839H68.577a.84.84,0,0,1-.839-.839v-.751a4.335,4.335,0,0,1-.407-.169l-.531.531a.839.839,0,0,1-1.187,0l-.834-.834a.84.84,0,0,1,0-1.186l.531-.531a4.135,4.135,0,0,1-.169-.408ZM90.182,42.1a1.075,1.075,0,0,0-.11-.818L87.4,36.693a.491.491,0,0,1-.031-.429c1.529-3.782.482-6.874-3.5-10.34C79.122,21.792,72.91,20.367,67.656,22.2a13.091,13.091,0,0,0-8.6,10.353c-.627,3.419,1.513,7.294,3.585,11.041.42.759.816,1.477,1.191,2.193a.417.417,0,0,1,.027.062,12.307,12.307,0,0,1,.159,9.031,15.051,15.051,0,0,0-.779,3.847H79.656V54.022a.489.489,0,0,1,.145-.348.5.5,0,0,1,.349-.141c5.406.064,7.141-.839,7.644-1.606.459-.7.064-1.585-.255-2.3-.252-.566-.47-1.054-.132-1.428a1.125,1.125,0,0,0,.247-1.119,1.05,1.05,0,0,1,.275-.97.95.95,0,0,0,.192-1.064c-.425-1.214.067-1.555.866-1.934.2-.1.434-.206.7-.359A1.069,1.069,0,0,0,90.182,42.1Zm.735-1.31L88.36,36.4a8.179,8.179,0,0,0,.148-5.986,13.4,13.4,0,0,0-4-5.233,19.289,19.289,0,0,0-8.585-4.381,15.973,15.973,0,0,0-8.59.476,14.043,14.043,0,0,0-9.242,11.1c-.691,3.763,1.636,7.975,3.69,11.691.412.744.8,1.447,1.165,2.144a11.337,11.337,0,0,1,.131,8.387,14.937,14.937,0,0,0-.831,4.618.489.489,0,0,0,.489.489h17.41a.489.489,0,0,0,.489-.489V54.514h.039c4.435,0,7.033-.671,7.938-2.049.753-1.146.169-2.452-.179-3.233-.072-.161-.164-.368-.2-.491a2.088,2.088,0,0,0,.375-1.89c.025-.042.073-.107.11-.156a1.9,1.9,0,0,0,.328-1.969,1.07,1.07,0,0,1-.1-.467A2,2,0,0,1,89.407,44c.209-.1.471-.224.769-.4a2.06,2.06,0,0,0,.741-2.813Z" fill="#222124" fill-rule="evenodd"/>
    </g>
  </g>
</svg>
