<svg xmlns="http://www.w3.org/2000/svg" width="89" height="89" viewBox="0 0 89 89">
  <g id="Group_1111418" data-name="Group 1111418" transform="translate(-195.15 -6526)">
    <circle id="Ellipse_11589" data-name="Ellipse 11589" cx="44.5" cy="44.5" r="44.5" transform="translate(195.15 6526)" fill="#f4c5c5"/>
    <g id="Group_1111417" data-name="Group 1111417" transform="translate(210.15 6540.527)">
      <g id="Group_1111415" data-name="Group 1111415" transform="translate(0.875 1.348)">
        <g id="Group_1111414" data-name="Group 1111414" transform="translate(6.362 17.395)">
          <path id="Path_900176" data-name="Path 900176" d="M102.687,168.513h-2.353a2.1,2.1,0,0,0-1.7.868l-2.345,3.242a1.152,1.152,0,0,1-.933.477H68.047a6.04,6.04,0,0,0-6.04,6.04v24.694a.709.709,0,0,0,.709.709h2.95a.709.709,0,0,0,.709-.709v-5.674a.6.6,0,0,1,.321-.529c1.179-.619,5.219-2.975,5.55-6.329a.713.713,0,0,1,.618-.631c5.811-.771,13.944,5.457,20.456,2.112a.535.535,0,0,1,.781.475v10.576a.709.709,0,0,0,.709.709h2.3a.709.709,0,0,0,.7-.62l1.6-12.691a1.9,1.9,0,0,1,.279-.777l4.8-7.577a1.366,1.366,0,0,1,.91-.613l6.99-1.271a1.554,1.554,0,0,0,1.276-1.529v-1.547a1.554,1.554,0,0,0-.547-1.183l-9.063-7.719a2.1,2.1,0,0,0-1.359-.5Z" transform="translate(-62.007 -167.169)" fill="#f2fbff"/>
          <path id="Path_900177" data-name="Path 900177" d="M157.156,218.224h6a3.924,3.924,0,0,0,3.457-2.067l.324-.6a3.923,3.923,0,0,1,3.457-2.067h1.519a3.813,3.813,0,0,0,3.325-5.681H157.884Z" transform="translate(-146.05 -201.875)" fill="#678d98"/>
          <path id="Path_900178" data-name="Path 900178" d="M360.3,176.733l-9.063-7.719a2.1,2.1,0,0,0-1.36-.5h-2.353a2.1,2.1,0,0,0-.472.054,2.094,2.094,0,0,1,.894.446l9.044,7.514a1.554,1.554,0,0,1,.547,1.183v.491a1.554,1.554,0,0,1-1.276,1.529l-5.1.958a1.366,1.366,0,0,0-.91.613l-5.941,9.151a1.9,1.9,0,0,0-.279.777l-1.6,12.691a.709.709,0,0,1-.568.607.709.709,0,0,0,.136.013h2.3a.709.709,0,0,0,.7-.62l1.6-12.691a1.9,1.9,0,0,1,.279-.777l4.8-7.577a1.366,1.366,0,0,1,.91-.613l6.99-1.271a1.554,1.554,0,0,0,1.276-1.529v-1.547A1.553,1.553,0,0,0,360.3,176.733Z" transform="translate(-309.199 -167.169)" fill="#dff6fd"/>
          <path id="Path_900179" data-name="Path 900179" d="M465.662,222.21,463.067,220a7.134,7.134,0,0,0-1.564,7.092l3.429-.623a1.554,1.554,0,0,0,1.276-1.529v-1.547A1.554,1.554,0,0,0,465.662,222.21Z" transform="translate(-414.558 -212.646)" fill="#ffa78f"/>
          <path id="Path_900180" data-name="Path 900180" d="M465.769,222.21,463.174,220a7.167,7.167,0,0,0-1.15,1.644l.434.361a1.554,1.554,0,0,1,.547,1.183v.491a1.554,1.554,0,0,1-1.276,1.529l-.46.086a7.125,7.125,0,0,0,.341,1.8l3.429-.623a1.554,1.554,0,0,0,1.276-1.529v-1.547a1.554,1.554,0,0,0-.547-1.183Z" transform="translate(-414.665 -212.646)" fill="#f89580"/>
          <path id="Path_900181" data-name="Path 900181" d="M347.081,157.01a.525.525,0,0,0-.625.614,6.94,6.94,0,0,0,1.488,3.336c1.334,1.362,2.964,1.93,3.641,1.268s.143-2.3-1.191-3.666A6.914,6.914,0,0,0,347.081,157.01Z" transform="translate(-313.245 -156.998)" fill="#f2fbff"/>
        </g>
        <path id="Path_900182" data-name="Path 900182" d="M7.5,164.387V200.97A1.626,1.626,0,0,0,9.126,202.6H34.009a1.626,1.626,0,0,0,1.626-1.626V164.387a1.626,1.626,0,0,0-1.626-1.626H9.126A1.626,1.626,0,0,0,7.5,164.387Z" transform="translate(-7.5 -144.693)" fill="#68ca44"/>
        <path id="Path_900183" data-name="Path 900183" d="M213.408,162.761h-2.8a1.626,1.626,0,0,1,1.626,1.626V200.97a1.626,1.626,0,0,1-1.626,1.626h2.8a1.626,1.626,0,0,0,1.626-1.626V164.387A1.626,1.626,0,0,0,213.408,162.761Z" transform="translate(-186.899 -144.693)" fill="#4fc123"/>
        <path id="Path_900184" data-name="Path 900184" d="M221.312,7.973a5.784,5.784,0,0,0-5.778,5.778c0,4.69,5.778,8.229,5.778,8.229s5.778-3.7,5.778-8.229A5.784,5.784,0,0,0,221.312,7.973Zm0,7.7a1.926,1.926,0,1,1,1.926-1.926A1.926,1.926,0,0,1,221.312,15.677Z" transform="translate(-191.251 -7.973)" fill="#fd8087"/>
        <path id="Path_900185" data-name="Path 900185" d="M60.155,195.761H53.778a.8.8,0,0,0-.8.8,2.264,2.264,0,0,1-4.527,0,.8.8,0,0,0-.8-.8H41.276a.776.776,0,0,0-.776.776v30.578a.776.776,0,0,0,.776.776H60.155a.776.776,0,0,0,.776-.776V196.537a.776.776,0,0,0-.776-.776Z" transform="translate(-36.648 -173.841)" fill="#f2fbff"/>
      </g>
      <g id="Group_1111416" data-name="Group 1111416" transform="translate(0 0.473)">
        <path id="Path_900186" data-name="Path 900186" d="M58.909,159.271l-9.063-7.719a2.975,2.975,0,0,0-1.928-.71H45.566a2.961,2.961,0,0,0-.923.149,8.288,8.288,0,0,0-3.385-1.461,1.4,1.4,0,0,0-1.668,1.639,7.911,7.911,0,0,0,1.59,3.636l-.368.509a.278.278,0,0,1-.225.115h-10.7v-2.757a2.5,2.5,0,0,0-2.5-2.5H2.5a2.5,2.5,0,0,0-2.5,2.5v8.908a.875.875,0,0,0,1.751,0v-8.908a.751.751,0,0,1,.75-.75H27.385a.751.751,0,0,1,.75.75v36.583a.751.751,0,0,1-.75.75H2.5a.751.751,0,0,1-.75-.75v-23.59a.875.875,0,0,0-1.751,0v23.59a2.5,2.5,0,0,0,2.5,2.5H27.385a2.5,2.5,0,0,0,2.5-2.5V177.29c2.717.646,5.734.969,8.571-.288v10.035a1.587,1.587,0,0,0,1.585,1.585h2.3a1.587,1.587,0,0,0,1.571-1.387l1.6-12.69a1.015,1.015,0,0,1,.15-.419l1.236-1.954a.875.875,0,1,0-1.48-.936l-1.236,1.953a2.752,2.752,0,0,0-.408,1.137L42.19,186.872H40.207V176.461a1.41,1.41,0,0,0-2.056-1.253c-1.52.781-3.693,1.409-8.265.277v-12.1a3.041,3.041,0,0,1,1.7-.522h1.52a4.677,4.677,0,0,0,4.58-5.68h2.9a2.034,2.034,0,0,0,1.643-.84l.285-.393c.164.108.329.208.494.3a.875.875,0,1,0,.824-1.545,5.351,5.351,0,0,1-1.271-.975,5.408,5.408,0,0,1-1.133-2.35,5.384,5.384,0,0,1,2.331,1.177,5.276,5.276,0,0,1,.979,1.354.875.875,0,0,0,1.576-.764,6.046,6.046,0,0,0-.3-.547h1.905a1.222,1.222,0,0,1,.792.292l5.813,4.95a7.993,7.993,0,0,0-1.422,6.292l-2.634.479a2.245,2.245,0,0,0-1.494,1.006L47.6,167.787a.875.875,0,0,0,1.48.936l1.376-2.174a.491.491,0,0,1,.327-.22l6.991-1.271a2.429,2.429,0,0,0,1.994-2.391v-1.547a2.427,2.427,0,0,0-.854-1.85Zm-22.866-1.1a2.941,2.941,0,0,1-2.938,2.938h-1.52a4.8,4.8,0,0,0-1.7.312V157.18h5.983A2.933,2.933,0,0,1,36.044,158.171Zm21.969,4.5a.678.678,0,0,1-.557.668l-2.632.479a6.252,6.252,0,0,1,1.036-4.841l1.915,1.631a.678.678,0,0,1,.238.517v1.547Z" transform="translate(0 -132.103)"/>
        <path id="Path_900187" data-name="Path 900187" d="M407.682,212.928a.875.875,0,0,0,.875-.875v-.7a.875.875,0,1,0-1.751,0v.7A.875.875,0,0,0,407.682,212.928Z" transform="translate(-359.322 -185.969)"/>
        <path id="Path_900188" data-name="Path 900188" d="M214.229,16.1a.876.876,0,0,0,.929-.009c.252-.162,6.182-4.014,6.182-8.966a6.653,6.653,0,0,0-13.307,0c0,5.121,5.943,8.821,6.2,8.976Zm.457-13.878a4.908,4.908,0,0,1,4.9,4.9c0,2.037-1.423,3.941-2.618,5.179a17.96,17.96,0,0,1-2.293,1.99c-1.3-.922-4.894-3.766-4.894-7.169A4.908,4.908,0,0,1,214.686,2.224Z" transform="translate(-183.75 -0.473)"/>
        <path id="Path_900189" data-name="Path 900189" d="M243.835,39.076a2.8,2.8,0,1,0-2.8-2.8A2.8,2.8,0,0,0,243.835,39.076Zm0-3.852a1.051,1.051,0,1,1-1.051,1.051A1.052,1.052,0,0,1,243.835,35.224Z" transform="translate(-212.899 -29.621)"/>
        <path id="Path_900190" data-name="Path 900190" d="M53.53,222.142a1.653,1.653,0,0,0,1.652-1.652V189.913a1.653,1.653,0,0,0-1.652-1.652H47.153a1.676,1.676,0,0,0-1.674,1.674,1.388,1.388,0,0,1-2.776,0,1.676,1.676,0,0,0-1.674-1.674H34.652A1.653,1.653,0,0,0,33,189.913v30.578a1.653,1.653,0,0,0,1.652,1.652H53.53Zm-18.779-32.13h6.2a3.139,3.139,0,0,0,6.276,0h6.2v30.38H34.751Z" transform="translate(-29.148 -166.341)"/>
        <path id="Path_900191" data-name="Path 900191" d="M73.306,381.69a.875.875,0,0,0-.875.875v1.495a.875.875,0,0,0,1.751,0v-1.495A.875.875,0,0,0,73.306,381.69Z" transform="translate(-63.976 -337.192)"/>
        <path id="Path_900192" data-name="Path 900192" d="M105.363,364.808a.875.875,0,0,0-.875.875v3.465a.875.875,0,0,0,1.751,0v-3.465A.875.875,0,0,0,105.363,364.808Z" transform="translate(-92.292 -322.281)"/>
        <path id="Path_900193" data-name="Path 900193" d="M137.421,347.927a.875.875,0,0,0-.875.875v5.436a.875.875,0,1,0,1.751,0V348.8A.875.875,0,0,0,137.421,347.927Z" transform="translate(-120.608 -307.37)"/>
        <path id="Path_900194" data-name="Path 900194" d="M169.478,331.046a.875.875,0,0,0-.875.875v7.406a.875.875,0,0,0,1.751,0v-7.406A.875.875,0,0,0,169.478,331.046Z" transform="translate(-148.923 -292.46)"/>
        <path id="Path_900195" data-name="Path 900195" d="M88.1,254.962l-2.813-1.049a.875.875,0,1,0-.612,1.64l.946.353-9.932,5.056a.875.875,0,1,0,.794,1.56l9.932-5.056-.271.973a.875.875,0,0,0,1.686.47l.807-2.892A.875.875,0,0,0,88.1,254.962Z" transform="translate(-66.432 -224.281)"/>
      </g>
    </g>
  </g>
</svg>
