<svg xmlns="http://www.w3.org/2000/svg" width="85" height="85" viewBox="0 0 85 85">
  <g id="Group_1111461" data-name="Group 1111461" transform="translate(-1041.102 -2588)">
    <circle id="Ellipse_11596" data-name="Ellipse 11596" cx="42.5" cy="42.5" r="42.5" transform="translate(1041.102 2588)" fill="#efd026"/>
    <g id="Group_1111490" data-name="Group 1111490" transform="translate(1049.099 2545.662)">
      <path id="Path_900341" data-name="Path 900341" d="M301.629,82.646a37.049,37.049,0,0,1,16.739-8.937,6.019,6.019,0,0,1,1.16-3.88h0s-13.665.338-19.1,13.418A8.9,8.9,0,0,0,301.629,82.646Z" transform="translate(-260.266 -9.955)" fill="#868b9b"/>
      <path id="Path_900342" data-name="Path 900342" d="M319.342,70.082c.062-.09.125-.175.188-.251h0s-13.665.338-19.1,13.418a8.909,8.909,0,0,0,1.2-.6q.912-.871,1.9-1.67C307.918,73,315.59,70.726,319.342,70.082Z" transform="translate(-260.267 -9.956)" fill="#707487"/>
      <path id="Path_900343" data-name="Path 900343" d="M53.94,292.176a.912.912,0,0,1-.534-.93l.67-6.179a4.211,4.211,0,0,1,.977-2.271l.213-.251c.227-.641.545-1.459,1-2.485.888-2.023-1.362-4.075-3.124-6.863.723,2.239,1.355,4.092.224,5.367a24.961,24.961,0,0,0-2.636,3.382,1.605,1.605,0,0,0-.221.648l-1.24,10.7a1.158,1.158,0,0,0,.8,1.269l5.323,1.695a.684.684,0,0,0,.894-.673A3.731,3.731,0,0,0,53.94,292.176Z" transform="translate(-42.666 -186.136)" fill="#ad7b64"/>
      <path id="Path_900344" data-name="Path 900344" d="M78.32,273.2c.723,2.239,1.355,4.092.224,5.367l-.189.215c.4.614.8,1.179,1.174,1.7.338.473.779,1.089,1.089,1.6.209-.558.477-1.225.825-2.017C82.331,278.036,80.081,275.984,78.32,273.2Z" transform="translate(-67.847 -186.135)" fill="#966653"/>
      <path id="Path_900345" data-name="Path 900345" d="M15.461,185.1a8.231,8.231,0,0,1,1.386-2.858c-1.72-.715-5.439-1.641-8.147,1.472-4.01,4.61,2.458,15.511-.716,23.11a.83.83,0,0,0,1.279.978C21.712,197.788,7.152,185.592,15.461,185.1Z" transform="translate(-6.358 -106.727)" fill="#868b9b"/>
      <path id="Path_900346" data-name="Path 900346" d="M11.375,183.717a6.068,6.068,0,0,1,3.478-2.055A6.325,6.325,0,0,0,8.7,183.717c-4.01,4.61,2.458,15.511-.716,23.11a.83.83,0,0,0,1.279.978,18.306,18.306,0,0,0,1.561-1.4C13.6,198.825,7.439,188.242,11.375,183.717Z" transform="translate(-6.359 -106.731)" fill="#707487"/>
      <path id="Path_900347" data-name="Path 900347" d="M347.947,264.248l.362-1.029a14.173,14.173,0,0,0,2.977-5.863,13.019,13.019,0,0,1,.479,1.477s.572,1.659,5.051,4.11c3.682,2.014,4.5,6.677,4.68,8.274a.842.842,0,0,0,.538.683,2.519,2.519,0,0,1,1.406,2.227.644.644,0,0,1-.645.7h-4.053a.9.9,0,0,1-.9-.892v-2.355c-.185-5.576-2.466-5.147-7.028-6.188A9.716,9.716,0,0,1,347.947,264.248Z" transform="translate(-301.43 -172.413)" fill="#ad7b64"/>
      <path id="Path_900348" data-name="Path 900348" d="M351.767,258.833a13.028,13.028,0,0,0-.479-1.477,14.174,14.174,0,0,1-2.977,5.863l-.362,1.029a9.668,9.668,0,0,0,2.553,1.068l.267-.762a16.387,16.387,0,0,0,2.38-4.077A4.786,4.786,0,0,1,351.767,258.833Z" transform="translate(-301.431 -172.413)" fill="#966653"/>
      <path id="Path_900349" data-name="Path 900349" d="M122.879,81.682l-2.415-4.208L120,74.7l-1.89-3.016a1.642,1.642,0,0,1-.25-.915,6.879,6.879,0,0,0-1.8-4.928.614.614,0,0,0-.873,0,5.611,5.611,0,0,0-1.628,4.136C111.227,70.329,103.267,73.011,97,79c0,0-3.326,2.148-9.631,2.148S77.115,78.79,72.681,78.79s-8.453,2.841-8.453,8.938,6.328,9.353,4.942,12.54a24.939,24.939,0,0,0-1.451,4.019,1.616,1.616,0,0,0-.01.684l2.106,10.567a1.159,1.159,0,0,0,1.142.965H76.5a.679.679,0,0,0,.638-.911,3.735,3.735,0,0,0-3.254-2.54.913.913,0,0,1-.788-.723l-1.259-6.086a4.231,4.231,0,0,1,.227-2.458l1.864-4.561c.566-1.386,2.182-2.661,3.13-5.722h0c8.8,5.563,19.143,2.217,19.155,2.213.542,2.672,1.438,5.639,1.438,5.639v14.18a.97.97,0,0,0,.97.97h6.173a.508.508,0,0,0,.492-.635c-.4-1.55-2.267-2.09-3.346-2.275a.942.942,0,0,1-.779-.931V101.307l1.455-4.157a15.411,15.411,0,0,0,3.395-10.808,17.013,17.013,0,0,1,6.371-7.541.741.741,0,0,1,1.063.278c.463.888.716,1.582,1.683,2a15.946,15.946,0,0,1,4.559,2.974,1.458,1.458,0,0,0,1.846.137l.944-.668A1.4,1.4,0,0,0,122.879,81.682Z" transform="translate(-55.639 -6.345)" fill="#bc8c79"/>
      <g id="Group_1111489" data-name="Group 1111489" transform="translate(8.589 59.316)">
        <path id="Path_900350" data-name="Path 900350" d="M248.331,81.139c6.3,0,9.631-2.148,9.631-2.148a37.874,37.874,0,0,1,15.99-8.911.743.743,0,0,0,.578-.68,5.524,5.524,0,0,1,.771-2.467,5.95,5.95,0,0,0-.844-1.1.611.611,0,0,0-.872,0,5.61,5.61,0,0,0-1.629,4.137c-2.329.349-10.29,3.031-16.557,9.018,0,0-2.87,1.851-8.328,2.115C247.481,81.127,247.9,81.139,248.331,81.139Z" transform="translate(-222.629 -65.653)" fill="#ad7b64"/>
        <path id="Path_900351" data-name="Path 900351" d="M72.376,200.62,70.27,190.053a1.614,1.614,0,0,1,.01-.684,24.924,24.924,0,0,1,1.451-4.019c1.386-3.187-4.942-6.443-4.942-12.54,0-5.542,3.32-8.393,7.255-8.866-.451-.045-.9-.072-1.364-.072-4.434,0-8.453,2.841-8.453,8.938s6.328,9.353,4.942,12.54a24.938,24.938,0,0,0-1.451,4.019,1.616,1.616,0,0,0-.01.684l2.106,10.567a1.159,1.159,0,0,0,1.142.965h2.561A1.158,1.158,0,0,1,72.376,200.62Z" transform="translate(-64.228 -150.742)" fill="#ad7b64"/>
      </g>
      <path id="Path_900352" data-name="Path 900352" d="M46.537,191.375v-2.982a1,1,0,0,0-2.005,0v3.03a1.939,1.939,0,0,0,1.612,1.919,4.376,4.376,0,0,1,2.173.918h-5.29c0-15.121.02-14.229-.043-14.437-.5-1.656-1.8-6.393-1.8-8.394a1,1,0,0,0-2.005,0,14.467,14.467,0,0,0,.25,2.318c-2.5.6-10.1,1.929-16.831-1.953a7.781,7.781,0,0,0-.161-4.394,1,1,0,1,0-1.89.669c1.147,3.242-1.518,7.042-2.362,8.129-.636.819-.6.886-2.675,5.967a5.215,5.215,0,0,0-.28,3.04l1.259,6.086a1.912,1.912,0,0,0,1.656,1.516,2.712,2.712,0,0,1,2.235,1.453H15.336a.156.156,0,0,1-.154-.13l-.005-.029c-1.548-7.768-2.08-10.3-2.119-10.762a13.81,13.81,0,0,1,.449-1.492l0,0c1.246-3.554,2.411-3.677-.914-8.324-1.05-1.468-1.291-1.887-1.291-1.887a9.6,9.6,0,0,1-1.695-5.145c0-5.1,3.114-7.935,7.45-7.935,3.716,0,7.241,1.8,12.4,2.255a1,1,0,1,0,.175-2c-4.981-.435-8.5-2.263-12.571-2.263A9.486,9.486,0,0,0,10.482,159c-.146.138-.284.282-.419.429a7.527,7.527,0,0,0-8.459,2c-4.472,5.141,2.176,16.055-.884,23.382a1.833,1.833,0,0,0,2.832,2.146,17.66,17.66,0,0,0,3.016-3.049l-.944,8.23a2.155,2.155,0,0,0,1.48,2.35l5.273,1.695a1.683,1.683,0,0,0,1.53-.26c.042-.032.08-.067.119-.1a2.155,2.155,0,0,0,1.312.444h5.539a1.683,1.683,0,0,0,1.581-2.256,4.721,4.721,0,0,0-4.015-3.186c-1.346-6.5-1.555-6.721-1.074-7.9,2.042-5,1.969-4.937,2.4-5.5a17.037,17.037,0,0,0,2.193-3.694c5.416,2.973,12.087,3.372,17.867,1.984.463,2.045,1.03,3.995,1.192,4.542v14.033a1.975,1.975,0,0,0,1.973,1.973h6.173a1.511,1.511,0,0,0,1.462-1.89C50.229,192.836,48.776,191.771,46.537,191.375Zm-34.591-3.2.068.339.429,2.14a5.662,5.662,0,0,0-.721-.4Zm-4.2-20.057c-.521-1.963-.625-2.969-.034-3.332A11.531,11.531,0,0,0,7.742,168.124ZM2.8,184.972c2.712-7.756-3.113-18.286.311-22.223a5.334,5.334,0,0,1,5.72-1.594,9.794,9.794,0,0,0-.612,1.394c-4.129.643-2.869,4.488-2.144,7.1C7.33,174.154,8.879,179.73,2.8,184.972ZM8.282,170.1a15.872,15.872,0,0,0,1.261,2.512c1.248,3.9.811,3.715-.435,5.212A19.835,19.835,0,0,0,8.282,170.1Zm-.567,22.484a.155.155,0,0,1-.107-.171c0-.01,0-.019,0-.029l1.228-10.7c.063-.553,2.185-3.026,2.587-3.483a3.337,3.337,0,0,0,.793-1.624c.987,1.731.415,1.76-.545,4.441a5.212,5.212,0,0,0-1.29,2.917l-.664,6.179a1.911,1.911,0,0,0,1.113,1.95,2.713,2.713,0,0,1,1.683,2.067Z" transform="translate(0 -85.08)"/>
      <path id="Path_900353" data-name="Path 900353" d="M283.378,74.863l-2.326-4.052-.432-2.593a1,1,0,0,0-.139-.368l-1.89-3.016a.641.641,0,0,1-.1-.357,7.924,7.924,0,0,0-2.089-5.653,1.616,1.616,0,0,0-2.3-.006l-.1.1a24.652,24.652,0,0,0-7.4,1.851,22.115,22.115,0,0,0-11.922,11.734,19.482,19.482,0,0,1-5.3,1.2,1,1,0,0,0,.093,2c.032,0,.064,0,.1,0A21.325,21.325,0,0,0,255.83,74.2a10.456,10.456,0,0,0,1.247-.619l.05-.03.031-.019.015-.009a1,1,0,0,0,.149-.118,36.764,36.764,0,0,1,15-8.514,8.837,8.837,0,0,0,.366,1.322,1,1,0,0,0,1.887-.68,4.87,4.87,0,0,1,.679-4.993h0a6.036,6.036,0,0,1,1.24,3.889,2.639,2.639,0,0,0,.4,1.473l1.784,2.846.429,2.574a1,1,0,0,0,.119.334l2.415,4.208a.4.4,0,0,1-.115.521l-.944.668A.457.457,0,0,1,280,77a17.054,17.054,0,0,0-4.853-3.168c-.611-.263-.749-.694-1.19-1.541a1.745,1.745,0,0,0-2.5-.652c-4.625,3.045-6.916,7.621-6.816,8.493a14.36,14.36,0,0,1-3.161,10.042,1.006,1.006,0,0,0-.184.32c-1.582,4.519-1.511,4.253-1.511,4.488v3.647a1,1,0,0,0,2.005,0V95.158l.655-1.871a15.738,15.738,0,0,0,3.83,1.067c4.271.849,4.441,1.2,4.441,7.2a1.9,1.9,0,0,0,1.9,1.9h4.028a1.646,1.646,0,0,0,1.639-1.8,3.445,3.445,0,0,0-1.945-3.026c-.239-2.046-1.214-6.769-5.153-8.938-3.568-1.964-4.43-3.338-4.554-3.565-.049-.188-.168-.616-.377-1.2a16.752,16.752,0,0,0,.407-4.739,16.045,16.045,0,0,1,5.661-6.694,4,4,0,0,0,2.041,2.2,14.989,14.989,0,0,1,4.265,2.781,2.468,2.468,0,0,0,3.116.228l.944-.668A2.391,2.391,0,0,0,283.378,74.863ZM272.616,61.114a6.6,6.6,0,0,0-.4,1.725,39.768,39.768,0,0,0-13.747,6.923A21.069,21.069,0,0,1,272.616,61.114Zm-2.4,30.319c3.274,1.8,4,6.2,4.139,7.506a1.844,1.844,0,0,0,1.157,1.5,1.317,1.317,0,0,1,.709,1h-3.5c0-.023,0-2.255,0-2.278-.185-5.607-2.647-6.1-6.054-6.774a13.461,13.461,0,0,1-3.556-1l.017-.049a14.766,14.766,0,0,0,2.2-3.588A16.218,16.218,0,0,0,270.213,91.433Z" transform="translate(-215.252)"/>
      <circle id="Ellipse_11601" data-name="Ellipse 11601" cx="0.913" cy="0.913" r="0.913" transform="translate(60.702 69.21)"/>
    </g>
  </g>
</svg>
