<svg xmlns="http://www.w3.org/2000/svg" width="85" height="85" viewBox="0 0 85 85">
  <g id="Group_1111458" data-name="Group 1111458" transform="translate(-200.051 -2226)">
    <path id="Path_900307" data-name="Path 900307" d="M42.5,0A42.5,42.5,0,1,1,0,42.5,42.5,42.5,0,0,1,42.5,0Z" transform="translate(200.051 2226)" fill="#0a3adb"/>
    <g id="Group_1111459" data-name="Group 1111459" transform="translate(205.805 2178.665)">
      <path id="Path_900308" data-name="Path 900308" d="M194.643,254.864l-.021.06C194.679,254.911,194.689,254.892,194.643,254.864Z" transform="translate(-166.805 -162.291)" fill="#eae7dc"/>
      <path id="Path_900309" data-name="Path 900309" d="M66.012,84.714a9.014,9.014,0,0,0-7.387-5.467c-6.282-.672-15.86.345-18.663-.034-3.644-.492-5.435,1.662-10.964-.2a5.017,5.017,0,0,0,.455-2.351.522.522,0,0,0-.191-.359,4.75,4.75,0,0,0-4.721-.669,8.275,8.275,0,0,0-7.089-2.108,7.817,7.817,0,0,0-4.606,1.84,4.781,4.781,0,0,0-4.685,1.083c-.539.492.183,4.545,3.233,4.738h0c.045,5.225.8,9.448,2.65,11.853.375,5.108,2.926,5.157,3.318,9.051.4,3.929,7.12,8.011,7.42,9.683.256,1.427.854,4.889,1.024,5.874a.509.509,0,0,1-.148.453l-.949.915a.509.509,0,0,0,.353.875h2.884a.508.508,0,0,0,.426-.23,9.844,9.844,0,0,0,1.1-4,47.018,47.018,0,0,0,.3-7.293c1.5,1.413,2.823,2.583,2.953,3.305.256,1.427.854,4.986,1.024,5.971a.509.509,0,0,1-.148.453l-.949.915a.509.509,0,0,0,.353.875h2.928a.509.509,0,0,0,.386-.177c.319-.371.949-1.519,1.1-4.148a35.235,35.235,0,0,1,1.609-7.453,14.968,14.968,0,0,0,5.951.46s.175,1.321,1.087,1.445c.736,1.215,2.1,2.2,2.287,2.727a29.574,29.574,0,0,1,.958,4.917.507.507,0,0,1-.152.426l-.962.927a.509.509,0,0,0,.353.875H51.48a.509.509,0,0,0,.386-.177c.319-.371.921-1.519,1.071-4.148.1-1.75,1.806-4.783,1.806-6.84a15.875,15.875,0,0,1,2.327,3.209,41,41,0,0,1,1.21,5.718.508.508,0,0,1-.15.443l-.954.92a.509.509,0,0,0,.353.875h2.928a.509.509,0,0,0,.386-.177c.319-.371.949-1.483,1.1-4.112.267-4.672,2.427-10.843,2.717-12.1,1.772-7.65,3.512-13.571,1.353-18.787Z" transform="translate(-3.925 -3.942)" fill="#f7f0e4"/>
      <path id="Path_900310" data-name="Path 900310" d="M248.059,249.115l-.007-.115C247.993,249.013,248,249.053,248.059,249.115Z" transform="translate(-213.401 -157.173)" fill="#eae7dc"/>
      <path id="Path_900311" data-name="Path 900311" d="M268.711,289.985v.037a1.876,1.876,0,0,1-.623,1.4,9.119,9.119,0,0,1-3.271,1.9c.8,2.409-1.769,2.509-2.181.7a11.13,11.13,0,0,1-2.346.279c-.126,1.253-.1,1.808-1.126,1.882-1.106.08-1.308-1.451-1.308-1.451a14.983,14.983,0,0,1-5.952-.461c.676-2.23,1.354-4.191,1.58-5.205,1.145-2.1,6.343-1.131,8.08-1.9,2.726-1.211,5.283.411,6.464,1.374a1.871,1.871,0,0,1,.684,1.452Z" transform="translate(-216.798 -190.1)" fill="#ff6e6e"/>
      <path id="Path_900312" data-name="Path 900312" d="M137.241,140.539c-.788-1.877-2.99-3.817-2.242-5.662s-1.568-4.571-3.59-5.333a9.019,9.019,0,0,0-2.53-.982,47.509,47.509,0,0,1-1.51,7.881,14.8,14.8,0,0,1-2.251,4.713,4.523,4.523,0,0,0,1.2,1.531c4.9,4.591,12.257,1.034,10.921-2.147Z" transform="translate(-106.146 -52.059)" fill="#493e42"/>
      <path id="Path_900313" data-name="Path 900313" d="M63.7,74.629l-.089,1.823c-.145,1.209-1.506,2.494-2.159,3.245-1.19,1.368-.34,6.7-.34,6.7l.055,1.722a6.316,6.316,0,0,0-4.612-.3l.359-1.417s.851-5.334-.338-6.7c-.654-.751-2.015-2.036-2.159-3.245l-.123-1.884a10,10,0,0,1,3.564-1.045A8.816,8.816,0,0,1,63.7,74.629Z" transform="translate(-44.329 -3.941)" fill="#493e42"/>
      <path id="Path_900314" data-name="Path 900314" d="M267.394,120.72c-.763.192-1.272,1.844-2.667,2.862s-2.868-1.082-4.649-1.209-.064,2.545-3.276,3.276-5.694-5.955-7.412-8.181l.139-.045a8.23,8.23,0,0,1,1.112.075c2.8.379,12.381-.637,18.663.034C271.489,118.685,268.158,120.528,267.394,120.72Z" transform="translate(-214.605 -42.227)" fill="#493e42"/>
      <path id="Path_900315" data-name="Path 900315" d="M452.264,181.223l-.067.168c-3.886-3.262-2.345-8.516-.1-8.311A19.019,19.019,0,0,1,452.264,181.223Z" transform="translate(-389.53 -90.908)" fill="#493e42"/>
      <path id="Path_900316" data-name="Path 900316" d="M376.145,213.989c2.582-1.886,4.125,3.386,1.978,4.828s-4.777,1.739-5.116-.848S375.1,214.753,376.145,213.989Z" transform="translate(-322.464 -126.265)" fill="#493e42"/>
      <path id="Path_900317" data-name="Path 900317" d="M479.613,277.262a.692.692,0,0,0-1.062-.033c-.945,1.063-1.7,3.023-1.123,3.673.645.725.366,2.346,1.169,2.4s1.776-.8,2-2.544A4.689,4.689,0,0,0,479.613,277.262Z" transform="translate(-413.453 -181.608)" fill="#493e42"/>
      <path id="Path_900318" data-name="Path 900318" d="M58.983,185.841l.013.02a3.5,3.5,0,0,1-.964,4.679,5.547,5.547,0,0,1-7.719-1.327,3.251,3.251,0,0,1,.937-4.723C53.765,183.014,57.874,184.084,58.983,185.841Z" transform="translate(-40.302 -100.263)" fill="#ff6e6e"/>
      <g id="Group_1111459-2" data-name="Group 1111459" transform="translate(3.499 68.913)">
        <path id="Path_900319" data-name="Path 900319" d="M93.858,204.832a.573.573,0,0,1-.516-.82,1.963,1.963,0,0,1,1.9-1.106.573.573,0,1,1-.091,1.142.831.831,0,0,0-.778.458A.573.573,0,0,1,93.858,204.832Z" transform="translate(-81.862 -185.853)"/>
        <path id="Path_900320" data-name="Path 900320" d="M63.415,204.828a.573.573,0,0,1-.517-.326.832.832,0,0,0-.786-.458.569.569,0,0,1-.613-.525.576.576,0,0,1,.529-.617,1.964,1.964,0,0,1,1.9,1.106.573.573,0,0,1-.516.82Z" transform="translate(-54.118 -185.85)"/>
        <path id="Path_900321" data-name="Path 900321" d="M114.291,135.671a.573.573,0,0,1-.417-.18.806.806,0,0,0-.435-.088.573.573,0,0,1,0-1.145,1.6,1.6,0,0,1,1.3.486.573.573,0,0,1-.449.927Z" transform="translate(-98.95 -125.944)"/>
        <path id="Path_900322" data-name="Path 900322" d="M54.46,135.671a.573.573,0,0,1-.449-.927,1.6,1.6,0,0,1,1.3-.486.573.573,0,0,1,0,1.145.807.807,0,0,0-.435.088A.572.572,0,0,1,54.46,135.671Z" transform="translate(-47.477 -125.944)"/>
        <path id="Path_900323" data-name="Path 900323" d="M455.382,157.383a1.256,1.256,0,0,0-.385-.327c.009-.2.019-.4.028-.6a39.437,39.437,0,0,0-.28-9.567,9.036,9.036,0,0,0-4.992-6.79.573.573,0,0,0-.5,1.031c5.225,2.525,4.934,8.717,4.626,15.272q-.014.309-.029.618a1.262,1.262,0,0,0-.413.305c-.909,1.023-2.061,3.379-1.122,4.434a2.483,2.483,0,0,1,.354,1.008c.137.643.323,1.523,1.2,1.586.039,0,.079,0,.119,0,1.063,0,2.231-1.021,2.488-3.047A5.3,5.3,0,0,0,455.382,157.383Zm-.037,3.78c-.18,1.415-.9,2.046-1.355,2.046h0a3.032,3.032,0,0,1-.2-.683,3.229,3.229,0,0,0-.618-1.531c-.229-.257.164-1.834,1.123-2.912a.115.115,0,0,1,.094-.04.113.113,0,0,1,.088.044,4.1,4.1,0,0,1,.867,3.076Z" transform="translate(-392.268 -130.994)"/>
        <path id="Path_900324" data-name="Path 900324" d="M53.828,103.783a.581.581,0,0,1-.091-.007.573.573,0,0,1-.475-.656c.335-2.106.493-5.432-.205-6.235-.1-.117-.222-.248-.351-.389a6.533,6.533,0,0,1-1.945-3.163A.573.573,0,0,1,51.9,93.2a5.926,5.926,0,0,0,1.652,2.526c.137.149.263.287.371.411,1.3,1.494.622,6.232.472,7.167A.573.573,0,0,1,53.828,103.783Z" transform="translate(-44.743 -89.667)"/>
        <path id="Path_900325" data-name="Path 900325" d="M101.89,103.783a.573.573,0,0,1-.565-.482c-.149-.935-.827-5.673.473-7.167.108-.124.234-.262.371-.411a5.927,5.927,0,0,0,1.652-2.526.573.573,0,0,1,1.137.136,6.532,6.532,0,0,1-1.945,3.163c-.13.141-.249.272-.351.389-.7.8-.541,4.13-.206,6.235a.573.573,0,0,1-.476.656A.58.58,0,0,1,101.89,103.783Z" transform="translate(-88.608 -89.666)"/>
        <path id="Path_900326" data-name="Path 900326" d="M135.984,148.363q-.227,0-.453-.013a7.872,7.872,0,0,1-5.306-2.463.573.573,0,0,1,.825-.794,6.9,6.9,0,0,0,8.637,1.07c.922-.607,1.76-1.608,1.344-2.6a11.5,11.5,0,0,0-1.007-1.736c-.871-1.328-1.858-2.834-1.238-4.363a2.134,2.134,0,0,0-.146-1.6,6.182,6.182,0,0,0-3.115-2.987.573.573,0,1,1,.4-1.071,7.343,7.343,0,0,1,3.76,3.6,3.174,3.174,0,0,1,.158,2.485c-.394.973.348,2.105,1.134,3.3a12.511,12.511,0,0,1,1.1,1.92c.575,1.369-.1,2.9-1.771,4A8,8,0,0,1,135.984,148.363Z" transform="translate(-113.96 -123.776)"/>
        <path id="Path_900327" data-name="Path 900327" d="M371.167,216.566a2.906,2.906,0,0,1-1.2-.24,2.585,2.585,0,0,1-1.459-2.2c-.32-2.442,1.463-3.429,2.644-4.083a7.411,7.411,0,0,0,.724-.434,2.135,2.135,0,0,1,2.2-.34,3.494,3.494,0,0,1,1.687,2.96,3.348,3.348,0,0,1-1.253,3.145A6.237,6.237,0,0,1,371.167,216.566Zm1.383-6.033a8.14,8.14,0,0,1-.845.511c-1.336.74-2.266,1.383-2.063,2.932a1.5,1.5,0,0,0,.8,1.306c.782.354,2.13.016,3.434-.859a2.244,2.244,0,0,0,.751-2.1,2.454,2.454,0,0,0-1.022-2.012c-.113-.052-.457-.209-1.049.223Z" transform="translate(-322.03 -191.26)"/>
        <path id="Path_900328" data-name="Path 900328" d="M62.616,80.554a9.567,9.567,0,0,0-7.856-5.817h-.012a94.623,94.623,0,0,0-12.323-.07,52.011,52.011,0,0,1-6.313.039,11.719,11.719,0,0,0-3.914.238,11.88,11.88,0,0,1-6.358-.229,5.353,5.353,0,0,0,.269-1.94,1.25,1.25,0,0,0-.463-.9,5.216,5.216,0,0,0-4.891-.844,8.874,8.874,0,0,0-7.311-2.014,8.748,8.748,0,0,0-4.682,1.766,5.342,5.342,0,0,0-4.914,1.3c-.593.541-.309,1.941-.048,2.683a4.372,4.372,0,0,0,3.1,2.98c.075,4.224.634,7.532,1.666,9.833A9.469,9.469,0,0,0,9.56,89.3a9.8,9.8,0,0,0,1.915,5.422A6.724,6.724,0,0,1,12.868,98.2c.265,2.631,2.96,5.159,5.126,7.19a10.347,10.347,0,0,1,2.3,2.537c.254,1.412.836,4.781,1.018,5.837l-.924.892a1.082,1.082,0,0,0,.751,1.86h2.884a1.078,1.078,0,0,0,.9-.488,10.362,10.362,0,0,0,1.192-4.24,41.408,41.408,0,0,0,.322-6.023,7.478,7.478,0,0,1,1.8,2.064c.177.986.519,3,.768,4.468.107.628.2,1.158.25,1.466l-.925.891a1.082,1.082,0,0,0,.751,1.86H32.01a1.082,1.082,0,0,0,.82-.376c.316-.366,1.068-1.537,1.237-4.489a32.672,32.672,0,0,1,1.433-6.814,15.818,15.818,0,0,0,5.128.437,2,2,0,0,0,1.159,1.3,11.545,11.545,0,0,0,1.409,1.634,5.179,5.179,0,0,1,.694.783,28.226,28.226,0,0,1,.924,4.758l-.939.905a1.082,1.082,0,0,0,.751,1.86h2.928a1.082,1.082,0,0,0,.82-.376c.307-.356,1.038-1.506,1.209-4.489a12.2,12.2,0,0,1,.8-2.836,23.4,23.4,0,0,0,.835-2.658,9.211,9.211,0,0,1,1.391,2.025,39.817,39.817,0,0,1,1.177,5.577l-.93.9a1.082,1.082,0,0,0,.751,1.86h2.928a1.081,1.081,0,0,0,.82-.376c.316-.367,1.07-1.537,1.237-4.452a51.015,51.015,0,0,1,2.284-10.535c.2-.684.353-1.177.42-1.465q.243-1.05.482-2.057c1.6-6.8,2.872-12.17.84-17.078ZM62.3,89.325a5.307,5.307,0,0,1-1.121-5.406,2,2,0,0,1,.963-1.12,18.029,18.029,0,0,1,.158,6.525ZM35.96,75.839a50.7,50.7,0,0,0,6.509-.03,95.175,95.175,0,0,1,12.056.054c.161.1.35.24.332.387-.072.6-1.644,1.546-2.207,1.687-.581.146-.962.687-1.4,1.315a6.661,6.661,0,0,1-1.462,1.64c-.473.345-.964.131-1.971-.441a5.585,5.585,0,0,0-2.3-.877c-1.264-.09-1.493.89-1.631,1.476a1.993,1.993,0,0,1-1.813,1.814c-1.953.445-3.872-2.957-5.274-5.44-.331-.586-.635-1.124-.925-1.6l.088.009ZM10.695,88.9l-.061-.076c-.054-.068-.108-.137-.16-.209l-.007-.009A2.738,2.738,0,0,1,10,86.446a2.586,2.586,0,0,1,1.233-1.726,5.053,5.053,0,0,1,2.557-.63c1.889,0,3.787.818,4.4,1.793v0l.01.016a2.921,2.921,0,0,1-.566,3.712,4.952,4.952,0,0,1-1.408.81l-.083.03q-.1.034-.2.064c-.087.025-.174.05-.263.071l-.058.013c-.11.024-.222.046-.335.062l-.02,0q-.181.025-.365.039H14.89q-.182.012-.367.011h-.013c-.129,0-.254-.007-.379-.016l-.079-.007q-.151-.013-.3-.034l-.075-.011a4.88,4.88,0,0,1-.706-.163l-.033-.011q-.152-.049-.3-.108l-.056-.023q-.151-.063-.3-.136l-.02-.01c-.1-.053-.206-.111-.306-.172l-.058-.037q-.111-.071-.219-.147l-.1-.076c-.055-.042-.109-.085-.162-.13-.038-.032-.077-.064-.115-.1s-.093-.086-.14-.13c-.082-.078-.162-.159-.241-.245-.025-.027-.05-.053-.074-.08q-.079-.091-.157-.186ZM49.3,108.432a12.738,12.738,0,0,0-.863,3.155c-.153,2.683-.782,3.616-.915,3.785h-2.74l.848-.818a1.086,1.086,0,0,0,.323-.907,30.79,30.79,0,0,0-.988-5.044,3.978,3.978,0,0,0-.955-1.2c-.273-.276-.585-.594-.87-.934.664-.313.792-.985.869-1.721a11.811,11.811,0,0,0,1.456-.175,2.051,2.051,0,0,0,1.28,1.1,1.754,1.754,0,0,0,.465.064,1.484,1.484,0,0,0,1.091-.458,1.874,1.874,0,0,0,.4-1.68q.117-.045.238-.1c.5.554.927,1.046,1.3,1.481a13.992,13.992,0,0,1-.936,3.448ZM60.661,97.369q-.238,1.01-.483,2.061c-.058.252-.21.756-.4,1.395a51.919,51.919,0,0,0-2.33,10.8c-.149,2.6-.776,3.542-.943,3.749H53.762l.84-.81a1.083,1.083,0,0,0,.318-.943,39.656,39.656,0,0,0-1.238-5.827c-.107-.295-.425-1.165-3.689-4.83a9.537,9.537,0,0,0,2.358-1.908.573.573,0,1,0-.878-.735,8.567,8.567,0,0,1-3.6,2.343l-.02.007-.021,0c-.012,0-.022.01-.033.015a.572.572,0,0,0-.053.024.548.548,0,0,0-.048.029c-.016.01-.031.021-.045.033a.556.556,0,0,0-.041.038c-.013.013-.025.025-.037.04s-.023.029-.033.045-.02.03-.029.046-.016.033-.024.049-.014.034-.02.051a.493.493,0,0,0-.014.053c0,.018-.008.036-.01.054a.564.564,0,0,0,0,.057c0,.018,0,.036,0,.055a.562.562,0,0,0,.009.059c0,.012,0,.023.005.035s.006.015.008.023,0,.013,0,.019c.2.595.129.954,0,1.092a.419.419,0,0,1-.422.078.989.989,0,0,1-.655-.778c0-.016-.01-.029-.015-.044a.58.58,0,0,0-.022-.065c-.005-.011-.013-.021-.019-.032a.566.566,0,0,0-.038-.065c-.007-.01-.016-.018-.024-.027a.574.574,0,0,0-.049-.056c-.013-.012-.028-.021-.042-.032a.564.564,0,0,0-.045-.035.571.571,0,0,0-.081-.041l-.017-.009a.57.57,0,0,0-.3-.029c-.011,0-.022,0-.034,0a10.634,10.634,0,0,1-2.227.266.573.573,0,0,0-.564.515c-.009.093-.018.182-.026.268-.1,1.067-.111,1.067-.573,1.1-.545.037-.7-.948-.7-.956a.573.573,0,0,0-.679-.486,13.319,13.319,0,0,1-5.11-.326c.188-.609.374-1.195.547-1.741a17.607,17.607,0,0,0,.956-3.572.573.573,0,1,0-1.145,0,22.31,22.31,0,0,1-.9,3.225c-.925,2.915-2.192,6.906-2.366,9.936-.152,2.655-.806,3.612-.943,3.785H29.24l.835-.805a1.08,1.08,0,0,0,.315-.962c-.052-.3-.144-.846-.254-1.5-.25-1.471-.592-3.486-.77-4.479-.142-.792-1.051-1.676-2.645-3.171-.872-.818-1.836-1.722-2.669-2.663-.011-.013-.021-.025-.034-.038a7.383,7.383,0,0,1-2.067-3.768.573.573,0,1,0-1.139.115,6.723,6.723,0,0,0,1.314,3.11,12.849,12.849,0,0,1-3.645-1.736,4.614,4.614,0,0,1-1.751-2.858,7.15,7.15,0,0,0-1.219-2.607.573.573,0,1,0-.891.721,6.159,6.159,0,0,1,1.013,2.22,5.741,5.741,0,0,0,2.192,3.464,14.6,14.6,0,0,0,5.493,2.276c.623.693,1.3,1.356,1.959,1.98,0,.165,0,.345.008.541a41.7,41.7,0,0,1-.3,6.432,9.626,9.626,0,0,1-1,3.728H21.3l.835-.805a1.08,1.08,0,0,0,.315-.962c-.175-1.017-.768-4.447-1.025-5.878-.142-.791-1.051-1.676-2.645-3.17-2.026-1.9-4.548-4.265-4.769-6.469a7.86,7.86,0,0,0-1.581-4,8.582,8.582,0,0,1-1.527-3.4,5.665,5.665,0,0,0,2.473,1.074l.037.006c.107.018.214.034.323.047l.022,0c.106.013.214.021.322.029l.1.006q.141.007.285.01l.044,0h.052c.133,0,.264,0,.394-.013l.082,0,.04,0a5.811,5.811,0,0,0,2.99-1.1l0,0h0c2.451-1.769,3.426-5.14,3.717-6.423a.573.573,0,1,0-1.117-.254,13.711,13.711,0,0,1-.933,2.725,3.955,3.955,0,0,0-.553-1.492l-.015-.024c-1.285-2.037-5.726-3.17-8.507-1.54a3.7,3.7,0,0,0-1.6,1.873,30.572,30.572,0,0,1-1.02-8.367.56.56,0,0,0-.007-.067.083.083,0,0,0,0-.011.573.573,0,0,0-.024-.1l0-.009a.563.563,0,0,0-.042-.091l-.005-.009a.569.569,0,0,0-.056-.078l-.01-.012a.585.585,0,0,0-.066-.061l-.017-.014a.583.583,0,0,0-.07-.044l-.027-.014a.565.565,0,0,0-.071-.027l-.037-.011a.54.54,0,0,0-.068-.011c-.012,0-.022,0-.034-.006a2.8,2.8,0,0,1-2.223-1.439,3.865,3.865,0,0,1-.614-2.347,4.181,4.181,0,0,1,4.052-.928.573.573,0,0,0,.61-.136A7.333,7.333,0,0,1,13.6,70.149a7.643,7.643,0,0,1,6.6,1.941.575.575,0,0,0,.64.124,4.146,4.146,0,0,1,4.081.55.105.105,0,0,1,.039.074,3.718,3.718,0,0,1-.781,2.513,1.888,1.888,0,0,1-1.451.579l-.022,0-.057.006c-.019,0-.038.005-.056.01s-.034.01-.051.016a.542.542,0,0,0-.055.021c-.015.007-.03.016-.044.024a.583.583,0,0,0-.051.032c-.014.01-.027.021-.04.033s-.029.025-.042.039a.489.489,0,0,0-.034.041c-.011.014-.023.029-.033.045s-.018.032-.025.048a.516.516,0,0,0-.024.052q-.009.025-.016.052a.566.566,0,0,0-.013.059c0,.007,0,.014,0,.021s-.246,1.929-.355,2.87a.573.573,0,0,0,.5.635.587.587,0,0,0,.066,0,.573.573,0,0,0,.568-.507c.075-.648.215-1.762.294-2.39a2.926,2.926,0,0,0,1.775-.9,3.3,3.3,0,0,0,.311-.384,13.037,13.037,0,0,0,7.077.315,16.138,16.138,0,0,1,2.069-.286c.394.556.848,1.359,1.325,2.2,1.538,2.726,3.424,6.066,5.894,6.066a2.839,2.839,0,0,0,.631-.072A3.114,3.114,0,0,0,45,81.313c.145-.616.151-.616.435-.6a4.664,4.664,0,0,1,1.816.731c.981.556,2.092,1.187,3.212.369a7.693,7.693,0,0,0,1.724-1.906c.257-.366.577-.821.745-.863.5-.125,2.891-1.219,3.065-2.661A1.4,1.4,0,0,0,56,76.132a8.381,8.381,0,0,1,5.557,4.859c.1.234.183.469.264.707a2.99,2.99,0,0,0-1.7,1.78,6.574,6.574,0,0,0,1.967,7.259c-.346,2.054-.864,4.252-1.426,6.632Z" transform="translate(-3.499 -68.913)"/>
        <path id="Path_900329" data-name="Path 900329" d="M286.119,285.757a.571.571,0,0,1-.418-.181c-.031-.033-3.19-3.332-6.5-1.863a7.334,7.334,0,0,1-3.176.3c-1.242-.055-2.526-.113-3.253.452a.573.573,0,1,1-.7-.9c1.06-.823,2.558-.756,4.007-.691a6.55,6.55,0,0,0,2.66-.2c4.057-1.8,7.649,1.966,7.8,2.127a.573.573,0,0,1-.418.964Z" transform="translate(-237.704 -255.043)"/>
      </g>
    </g>
  </g>
</svg>
