<svg xmlns="http://www.w3.org/2000/svg" width="85" height="85" viewBox="0 0 85 85">
  <g id="Group_1111500" data-name="Group 1111500" transform="translate(-200.051 -6353)">
    <circle id="Ellipse_11596" data-name="Ellipse 11596" cx="42.5" cy="42.5" r="42.5" transform="translate(200.051 6353)" fill="#afa491"/>
    <g id="Group_1111499" data-name="Group 1111499" transform="translate(211.051 6364)">
      <g id="Group_1111497" data-name="Group 1111497" transform="translate(0.921 0.914)">
        <g id="Group_1111496" data-name="Group 1111496">
          <g id="Group_1111494" data-name="Group 1111494" transform="translate(0 2.786)">
            <path id="Path_900354" data-name="Path 900354" d="M89.422,47.346a8.205,8.205,0,0,1,8.765,6.581c.522,2.194,3.548,3.134,5.53,2.4,0,0-3.652,9.088-14.712,2.716" transform="translate(-53.1 -45.257)" fill="#ffdec2"/>
            <path id="Path_900355" data-name="Path 900355" d="M25.244,88.154l9.584-20.438a5.607,5.607,0,0,1,7.077-2.9c1.823.688,3.725,1.372,4.857,1.681,2.69.734,6.927.86,10.037-.827l2.045,1.5A6.268,6.268,0,0,0,66.557,57.3L46.924,40.962a6.477,6.477,0,0,1-2.334-4.979V30.361a6.054,6.054,0,0,0-6.048,5.892,13.761,13.761,0,0,0-11.359,6L8.372,81.633v6.521" transform="translate(-8.372 -30.361)" fill="#bf7341"/>
            <path id="Path_900356" data-name="Path 900356" d="M7.319,245.436c-.694-9.937,7.3-10.353,7.3-10.353l2.582,2.111a6.25,6.25,0,0,1-7.666,9.867Z" transform="translate(41.107 -210.13)" fill="#9b4f1d"/>
          </g>
          <path id="Path_900357" data-name="Path 900357" d="M240.039,23.311s7.76-14.834,20.7-15.769a15.035,15.035,0,0,1,11.5,4.232,5.74,5.74,0,0,0-2.037,4.406s-6.55,1.65-8.5,10.194a20.442,20.442,0,0,0,.208,8.313,8.073,8.073,0,0,1-4.257-4.746s1.774,15.867-8.007,23.944a8.615,8.615,0,0,0-1.426-6.363s-1.263,9.137-8.191,14.807Z" transform="translate(-240.039 -7.503)" fill="#ffdec2"/>
          <g id="Group_1111495" data-name="Group 1111495" transform="translate(0 0)">
            <path id="Path_900358" data-name="Path 900358" d="M329.18,191.6c.013.047.028.092.042.138q0,.32.019.629C329.21,191.877,329.18,191.6,329.18,191.6Z" transform="translate(-307.899 -169.162)" fill="#facfaa"/>
            <path id="Path_900359" data-name="Path 900359" d="M314.333,23.312l-3.657,5.514V23.312s7.76-14.834,20.7-15.769a14.745,14.745,0,0,1,2.894.074c-12.485,1.446-19.941,15.7-19.941,15.7Z" transform="translate(-310.676 -7.504)" fill="#facfaa"/>
            <path id="Path_900360" data-name="Path 900360" d="M324.762,201.369a21.747,21.747,0,0,0,.515,3.555" transform="translate(-303.396 -177.739)" fill="#facfaa"/>
          </g>
        </g>
      </g>
      <g id="Group_1111498" data-name="Group 1111498" transform="translate(0 0)">
        <path id="Path_900361" data-name="Path 900361" d="M129.172,19.92l1.377,1.145a.915.915,0,0,1-1.169,1.406l-8.973-7.466a7.37,7.37,0,0,1-2.663-5.682V4.695a5.1,5.1,0,0,0-4.062,3.778,11.03,11.03,0,0,1-.219,1.447.912.912,0,0,1-.623.557h0a9.826,9.826,0,0,0-3.25,1.782A13.365,13.365,0,0,0,105,19.99a19.651,19.651,0,0,0,.2,7.886.926.926,0,0,1-1.245,1.065,9.585,9.585,0,0,1-2.859-2.05,38.963,38.963,0,0,1-.868,7.669.915.915,0,0,1-1.786-.392,37.135,37.135,0,0,0,.707-10.712.917.917,0,0,1,1.789-.349,6.322,6.322,0,0,0,2.1,3.1,19.374,19.374,0,0,1,.173-6.619,15.193,15.193,0,0,1,5.3-8.816,12.388,12.388,0,0,1,3.218-1.849A7.037,7.037,0,0,1,113.324,5.2a14.213,14.213,0,0,0-10.114-3.336c-6.375.46-11.442,4.557-14.571,7.912a38.349,38.349,0,0,0-5.389,7.369.915.915,0,0,1-1.62-.848,39.441,39.441,0,0,1,5.639-7.733C92.083,3.389,97.55.441,103.078.042A15.943,15.943,0,0,1,114.732,4a6.915,6.915,0,0,1,3.926-1.214.914.914,0,0,1,.914.914V4.859a10.3,10.3,0,0,1,3.236.616,8.841,8.841,0,0,1,5.609,6.685,2.36,2.36,0,0,0,1.255,1.472,3.983,3.983,0,0,0,3.069.285.925.925,0,0,1,1.165,1.2,9.649,9.649,0,0,1-4.732,4.806Zm-.365-4.678a4.146,4.146,0,0,1-2.17-2.66,7.159,7.159,0,0,0-7.066-5.9V9.324a5.546,5.546,0,0,0,2,4.276l5.975,4.971.052-.018a7.281,7.281,0,0,0,3.7-2.631,5.979,5.979,0,0,1-2.5-.679Z" transform="translate(-81.518 0)" fill="#060606"/>
        <path id="Path_900362" data-name="Path 900362" d="M9.708,216.115A6.5,6.5,0,0,1,13.2,212.8l-3.712-1.5a.915.915,0,0,1,.684-1.7l7.777,3.135c2.191.827,3.839,1.4,4.766,1.651a14.012,14.012,0,0,0,8.852-.5c-.121-3.274.669-5.9,2.354-7.8a8.806,8.806,0,0,1,3.915-2.517l-2.6-2.164A.915.915,0,0,1,36.4,200.01l6.449,5.366a7.179,7.179,0,0,1-8.841,11.314l-1.593-1.173a15.932,15.932,0,0,1-10.187.64c-1-.272-2.658-.847-4.939-1.708a4.711,4.711,0,0,0-5.926,2.436L1.783,237.324a.915.915,0,0,1-1.655-.776Zm25.564-8.788c-1.374,1.564-2,3.8-1.875,6.638l1.869,1.371c5.241,3.843,11.516-4.316,6.547-8.422l-2.282-1.866a7.29,7.29,0,0,0-4.259,2.279Z" transform="translate(16.838 -175.442)" fill="#060606"/>
        <path id="Path_900363" data-name="Path 900363" d="M35.275,277.6c-.014.833-1.118.7-1.118.7a1.465,1.465,0,0,0-1.3,1.667.914.914,0,0,1-1.828,0,3.28,3.28,0,0,1,2.983-3.489S35.3,276.406,35.275,277.6Z" transform="translate(23.331 -242.784)" fill="#060606"/>
        <path id="Path_900364" data-name="Path 900364" d="M196.439,139.288a3.71,3.71,0,0,1,3.743,3.667.915.915,0,0,1-1.828,0,1.916,1.916,0,0,0-3.829,0,.915.915,0,0,1-1.828,0A3.71,3.71,0,0,1,196.439,139.288Z" transform="translate(-161.282 -122.31)" fill="#060606"/>
        <path id="Path_900365" data-name="Path 900365" d="M370.961,331.657c6.556-5.366,7.853-14.138,7.865-14.225a.925.925,0,0,1,1.642-.416,9.048,9.048,0,0,1,1.7,4.709,20.287,20.287,0,0,0,3.9-6.16.915.915,0,0,1,1.688.7,21.22,21.22,0,0,1-6.014,8.358.924.924,0,0,1-1.476-.9,7.9,7.9,0,0,0-.2-3.443,25.448,25.448,0,0,1-7.943,12.785A.915.915,0,0,1,370.961,331.657Z" transform="translate(-370.619 -276.622)" fill="#060606"/>
        <path id="Path_900366" data-name="Path 900366" d="M307.548,36.8a11.209,11.209,0,0,1,7.058-.366.915.915,0,0,1-.6,1.729c-3.013-1.039-8.746.625-11.142,4.048a.915.915,0,0,1-1.5-1.048A12.642,12.642,0,0,1,307.548,36.8Z" transform="translate(-289.526 -31.628)" fill="#060606"/>
      </g>
    </g>
  </g>
</svg>
