<svg xmlns="http://www.w3.org/2000/svg" width="85" height="85" viewBox="0 0 85 85">
  <g id="Group_1111491" data-name="Group 1111491" transform="translate(-200.051 -2226)">
    <circle id="Ellipse_11596" data-name="Ellipse 11596" cx="42.5" cy="42.5" r="42.5" transform="translate(200.051 2226)" fill="#afa491"/>
    <g id="Group_1111462" data-name="Group 1111462" transform="translate(212.551 2245.181)">
      <g id="Group_1111483" data-name="Group 1111483" transform="translate(0.874 0.878)">
        <g id="Group_1111463" data-name="Group 1111463" transform="translate(7.574 21.463)">
          <g id="Group_1111462-2" data-name="Group 1111462" transform="translate(0)">
            <path id="Path_900330" data-name="Path 900330" d="M349.386,252.969a.586.586,0,0,0-.138-.447l-7.165-8.319,5.5-5.654,5.45,3.439a13.422,13.422,0,0,1-3.307,4.046.587.587,0,0,0-.1.849l3.7,4.41a.586.586,0,0,1,.128.479l-.39,2.208a.581.581,0,0,0,.028.305c.209.557.867,2.64-.281,4.2a.582.582,0,0,1-.85.085l-2.682-2.338a.586.586,0,0,1-.2-.507Z" transform="translate(-342.082 -238.549)" fill="#945c33"/>
          </g>
        </g>
        <g id="Group_1111465" data-name="Group 1111465" transform="translate(0 8.3)">
          <g id="Group_1111464" data-name="Group 1111464" transform="translate(0)">
            <path id="Path_900331" data-name="Path 900331" d="M432.836,129.136A5.823,5.823,0,0,1,440.3,126.2l-4.242,10.534a6.684,6.684,0,0,1-2.3,4.836.586.586,0,0,1-.947-.3C432.242,139.014,430.881,132.615,432.836,129.136Z" transform="translate(-431.818 -125.779)" fill="#633d22"/>
          </g>
        </g>
        <g id="Group_1111467" data-name="Group 1111467" transform="translate(0.327)">
          <g id="Group_1111466" data-name="Group 1111466">
            <path id="Path_900332" data-name="Path 900332" d="M10.087,81.242a5.706,5.706,0,0,0,1.562-4.354c-.149-2.044-.319-4.807-.264-6.169a8.659,8.659,0,0,1,4.949-7.458c2.85-1.377,5.989-1.109,9.363-.214v6.143a3.479,3.479,0,0,0,3.479,3.479H34.9a3.479,3.479,0,0,0,3.479-3.479V63.374a17.322,17.322,0,0,0,2.042-.864c2.137-1.091,4.135-3.086,6.481-5s6.343-3.813,10.649-2.282a9.63,9.63,0,0,1,3.017,1.666h0a5.487,5.487,0,0,1,4.095-1.171.578.578,0,0,1,.517.623,4.528,4.528,0,0,1-2.461,3.732l0,0c1.108,3.519-.041,5.281-.556,8.252-.133.769-.275,1.787-.405,2.793h0l-5.93.6-.685-4.762a.325.325,0,0,0-.486-.233C51.336,68.675,52.4,72.97,52.4,74.839a11.308,11.308,0,0,1-.37,2.873.585.585,0,0,0,.309.678l4.688,2.283a.585.585,0,0,1,.275.28l2.829,6.079a3.843,3.843,0,0,1,.3,2.28l-.515,2.962a.592.592,0,0,0,0,.219,7.02,7.02,0,0,1,.025,2.757.586.586,0,0,1-.9.38l-2.808-1.845a.586.586,0,0,1-.257-.579L56.7,88.6a.586.586,0,0,0-.066-.373l-2.491-4.51a.586.586,0,0,0-.332-.274L45.3,80.761a5.125,5.125,0,0,0-2.711-.1c-2.448.575-7.52,1.481-12.082.475a24.044,24.044,0,0,1-9.312-4.173.586.586,0,0,0-.846.145c-1.961,2.955-6.172,6.382-8.152,7.908a2.757,2.757,0,0,0-1.075,2.174l-.034,9.694a.587.587,0,0,0,.218.457,4.62,4.62,0,0,1,1.826,2.905.586.586,0,0,1-.58.67H8.9a.586.586,0,0,1-.534-.345l-.767-1.7a.587.587,0,0,1-.052-.239L7.5,85.067a2.755,2.755,0,0,1,.761-1.91Z" transform="translate(-7.499 -54.67)" fill="#c57a44"/>
          </g>
        </g>
        <g id="Group_1111472" data-name="Group 1111472" transform="translate(0.327 20.797)">
          <g id="Group_1111469" data-name="Group 1111469" transform="translate(13.526)">
            <g id="Group_1111468" data-name="Group 1111468">
              <path id="Path_900333" data-name="Path 900333" d="M51.343,234.228a4.3,4.3,0,0,1,5.225-.858,26.083,26.083,0,0,0,6.8,2.573c4.562,1.006,9.635.1,12.082-.475a5.126,5.126,0,0,1,2.711.1l8.513,2.678a.587.587,0,0,1,.332.274l2.491,4.51a.586.586,0,0,1,.066.373l-.714,4.61a.586.586,0,0,0,.257.579l1.16.762-.051.3a.592.592,0,0,0,0,.219,7.02,7.02,0,0,1,.025,2.757.586.586,0,0,1-.9.38l-2.808-1.845a.586.586,0,0,1-.257-.579l.714-4.61a.586.586,0,0,0-.066-.373l-2.491-4.51a.586.586,0,0,0-.332-.274l-8.513-2.678a5.125,5.125,0,0,0-2.711-.1c-2.448.575-7.52,1.481-12.082.475a24.044,24.044,0,0,1-9.312-4.173.575.575,0,0,0-.166-.086Z" transform="translate(-51.321 -232.843)" fill="#aa693b"/>
            </g>
          </g>
          <g id="Group_1111471" data-name="Group 1111471" transform="translate(0 5.236)">
            <g id="Group_1111470" data-name="Group 1111470" transform="translate(0)">
              <path id="Path_900334" data-name="Path 900334" d="M454.194,280.153l1.826-1.915c.07-.074.388-.462.454-.538a3.966,3.966,0,0,0-.473,1.8l.043,13.569a.587.587,0,0,0,.052.239l.767,1.7a.586.586,0,0,0,.534.345h.828a4.089,4.089,0,0,1,.835,1.9.586.586,0,0,1-.58.67h-3.652a.586.586,0,0,1-.534-.345l-.767-1.7a.587.587,0,0,1-.052-.239l-.043-13.569a2.755,2.755,0,0,1,.761-1.91Z" transform="translate(-453.433 -277.7)" fill="#aa693b"/>
            </g>
          </g>
        </g>
        <g id="Group_1111474" data-name="Group 1111474" transform="translate(48.656 15.647)">
          <g id="Group_1111473" data-name="Group 1111473" transform="translate(0)">
            <path id="Path_900335" data-name="Path 900335" d="M42.789,189.523c-.053.409-.1.815-.15,1.2a2.9,2.9,0,0,1-2.655,2.569,2.859,2.859,0,0,1-3.02-2.446l-.1-.728A4.721,4.721,0,0,1,42.789,189.523Z" transform="translate(-36.859 -188.72)" fill="#945c33"/>
          </g>
        </g>
        <g id="Group_1111476" data-name="Group 1111476" transform="translate(18.524 8.378)">
          <g id="Group_1111475" data-name="Group 1111475" transform="translate(0 0)">
            <path id="Path_900336" data-name="Path 900336" d="M246.327,136.067H240.6a3.479,3.479,0,0,1-3.479-3.479v-6.143c.947.251,1.912.552,2.894.879,3.4,1.133,7.213.362,9.792-.553v5.817A3.479,3.479,0,0,1,246.327,136.067Z" transform="translate(-237.12 -126.445)" fill="#fed2a4"/>
          </g>
        </g>
        <g id="Group_1111478" data-name="Group 1111478" transform="translate(18.524 8.378)">
          <g id="Group_1111477" data-name="Group 1111477" transform="translate(0 0)">
            <path id="Path_900337" data-name="Path 900337" d="M240.013,127.323c.2.067.4.127.608.181v1.581a3.479,3.479,0,0,0,3.479,3.479h5.7v.023a3.479,3.479,0,0,1-3.479,3.479H240.6a3.479,3.479,0,0,1-3.479-3.479v-6.143C238.066,126.7,239.031,127,240.013,127.323Z" transform="translate(-237.119 -126.444)" fill="#ffbd86"/>
          </g>
        </g>
        <g id="Group_1111480" data-name="Group 1111480" transform="translate(34.083 25.538)">
          <g id="Group_1111479" data-name="Group 1111479" transform="translate(0)">
            <path id="Path_900338" data-name="Path 900338" d="M171.31,274.075l-.688,16.843a.582.582,0,0,0,.19.46,5.087,5.087,0,0,1,1.611,2.872.583.583,0,0,1-.58.666H169.12a.586.586,0,0,1-.49-.265l-1.257-1.923a.587.587,0,0,1-.1-.315l-.144-18.96Z" transform="translate(-167.133 -273.453)" fill="#945c33"/>
          </g>
        </g>
        <g id="Group_1111482" data-name="Group 1111482" transform="translate(35.103 0)">
          <g id="Group_1111481" data-name="Group 1111481">
            <path id="Path_900339" data-name="Path 900339" d="M62.46,60.241c-3.384,5.53-2.434,9.391-7.256,11.66a.585.585,0,0,1-.8-.346C53.76,69.6,52.247,63.292,57.369,58.3q.466-.4.948-.791c2.345-1.913,6.343-3.813,10.649-2.282a10.464,10.464,0,0,1,2.24,1.09C71.091,56.31,65.915,54.6,62.46,60.241Z" transform="translate(-53.687 -54.67)" fill="#633d22"/>
          </g>
        </g>
      </g>
      <g id="Group_1111488" data-name="Group 1111488" transform="translate(0 0)">
        <g id="Group_1111487" data-name="Group 1111487">
          <g id="Group_1111486" data-name="Group 1111486">
            <g id="Group_1111485" data-name="Group 1111485">
              <g id="Group_1111484" data-name="Group 1111484">
                <path id="Path_900340" data-name="Path 900340" d="M3.154,74a4.84,4.84,0,0,0,1.2-2.22,6.972,6.972,0,0,1-.978,1.014,1.457,1.457,0,0,1-.94.345,1.474,1.474,0,0,1-.451-.071,1.452,1.452,0,0,1-.968-1.031c-.662-2.607-1.976-9.069.107-12.776a6.723,6.723,0,0,1,5.486-3.786,7.216,7.216,0,0,1,2.935.414,11.177,11.177,0,0,1,3.186-.981.875.875,0,1,1,.245,1.734,8.56,8.56,0,0,0-2.565.771,7.816,7.816,0,0,0-4.455,6.7c-.053,1.316.114,4.027.263,6.07a6.6,6.6,0,0,1-1.8,5.021L2.595,77.121a1.87,1.87,0,0,0-.519,1.3l.043,13.507.665,1.47h3.11A4.008,4.008,0,0,0,4.45,91.38a1.455,1.455,0,0,1-.541-1.14l.034-9.694a3.6,3.6,0,0,1,1.412-2.861c1.754-1.353,6.042-4.81,7.961-7.7a1.461,1.461,0,0,1,2.109-.355,23.17,23.17,0,0,0,8.967,4.012,26.652,26.652,0,0,0,11.694-.472,6,6,0,0,1,3.174.118l8.521,2.68a1.457,1.457,0,0,1,.827.683L51.1,81.16a1.468,1.468,0,0,1,.165.93l-.686,4.426,2.277,1.5a6.26,6.26,0,0,0-.09-1.982,1.457,1.457,0,0,1-.009-.545l.515-2.962a2.954,2.954,0,0,0-.233-1.761L50.7,75.73A2.977,2.977,0,0,0,49.3,74.314l-3.648-1.777a1.463,1.463,0,0,1-.771-1.692,10.491,10.491,0,0,0,.34-2.647c0-.286-.03-.655-.064-1.083-.176-2.2-.47-5.893,2.753-7.789a1.2,1.2,0,0,1,1.8.863l.472,3.284a5.449,5.449,0,0,1,4.569-.311c.09-.641.173-1.185.249-1.625.139-.8.318-1.5.491-2.181a8.915,8.915,0,0,0,.092-5.659.874.874,0,0,1,.458-1.051l.062-.027a3.64,3.64,0,0,0,1.868-2.69,4.539,4.539,0,0,0-3.143,1,.875.875,0,0,1-1.123-.005q-.268-.226-.565-.43c-4.4-1.1-6.962,2.447-7.646,3.564a27.259,27.259,0,0,0-2.412,5.3c-.994,2.744-1.853,5.114-5.218,6.7a1.461,1.461,0,0,1-2.009-.865A14.766,14.766,0,0,1,35.9,55.83a13.226,13.226,0,0,1-1.375.82c-.18.092-.737.367-1.564.688v5.213A4.36,4.36,0,0,1,28.6,66.906H22.877a4.36,4.36,0,0,1-4.355-4.355V57.089c-.638-.154-1.228-.273-1.791-.361A.875.875,0,0,1,17,55a34.51,34.51,0,0,1,5.566,1.459c4.051,1.351,8.921-.223,11.159-1.366A24.814,24.814,0,0,0,38.2,51.76c.6-.512,1.212-1.042,1.856-1.567a13.936,13.936,0,0,1,4.9-2.6,10.614,10.614,0,0,1,6.593.167,12.6,12.6,0,0,1,2.738,1.4,6.434,6.434,0,0,1,4.174-.946,1.46,1.46,0,0,1,1.294,1.574,5.44,5.44,0,0,1-2.308,4.061,10.755,10.755,0,0,1-.258,5.942c-.165.645-.335,1.312-.462,2.047-.152.876-.341,2.242-.549,3.952a3.735,3.735,0,0,1-7.411.142l-.658-4.576c-1.536,1.453-1.346,3.831-1.2,5.623.037.465.069.866.069,1.222a12.2,12.2,0,0,1-.34,2.868L50.07,72.74a4.734,4.734,0,0,1,2.213,2.252l2.341,5.031a4.7,4.7,0,0,1,.371,2.8l-.505,2.906a7.919,7.919,0,0,1,.016,3.051,1.462,1.462,0,0,1-2.237.942L49.46,87.876a1.465,1.465,0,0,1-.641-1.445l.7-4.512L47.131,77.6l-7.169-2.255-.637,15.6a5.967,5.967,0,0,1,1.785,3.29,1.444,1.444,0,0,1-.331,1.164,1.464,1.464,0,0,1-1.114.514H36.943a1.457,1.457,0,0,1-1.223-.662l-1.257-1.923a1.459,1.459,0,0,1-.238-.787L34.2,89.666a.876.876,0,0,1,.868-.883h.007a.875.875,0,0,1,.875.868l.022,2.783,1.125,1.72h2.208a4.325,4.325,0,0,0-1.261-2.014A1.45,1.45,0,0,1,37.57,91l.661-16.165a4.247,4.247,0,0,0-1.745.04c-.2.048-.421.1-.651.146l.085,10.548a.876.876,0,0,1-.868.883h-.007a.875.875,0,0,1-.875-.868l-.082-10.228a27.418,27.418,0,0,1-10.072,0,26.73,26.73,0,0,1-4.242-1.312A13.792,13.792,0,0,1,16.851,77.5l3.508,4.179a1.458,1.458,0,0,1,.319,1.194L20.3,85a5.479,5.479,0,0,1-.424,4.95,1.448,1.448,0,0,1-1.006.578,1.469,1.469,0,0,1-1.125-.352l-2.682-2.338a1.462,1.462,0,0,1-.492-1.264l.294-2.632-5.932-6.9c-.935.793-1.811,1.489-2.511,2.029a1.865,1.865,0,0,0-.73,1.48l-.033,9.557a5.41,5.41,0,0,1,2.034,3.376,1.461,1.461,0,0,1-1.447,1.667H2.6a1.464,1.464,0,0,1-1.332-.859L.5,92.6a1.455,1.455,0,0,1-.13-.6L.325,78.429a3.614,3.614,0,0,1,1-2.517ZM7.525,57.219a4.959,4.959,0,0,0-4.871,2.9c-.451.8-1.76,3.933-.054,11.013a6.524,6.524,0,0,0,1.671-4.078c-.059-1.181-.091-2.281-.062-3.007A9.613,9.613,0,0,1,7.525,57.219Zm23.683.717a15.629,15.629,0,0,1-9.193.181c-.624-.208-1.2-.391-1.742-.552v4.985a2.607,2.607,0,0,0,2.6,2.6H28.6a2.607,2.607,0,0,0,2.6-2.6Zm9.952-6.387c-.307.25-.61.5-.908.756-4.5,4.4-3.437,9.968-2.831,12.016,2.459-1.263,3.086-2.993,4.017-5.561A28.724,28.724,0,0,1,44,53.144a9.154,9.154,0,0,1,4.974-4.19A10.921,10.921,0,0,0,41.159,51.549ZM50.5,65.681a1.973,1.973,0,0,0,2.1,1.7,2.019,2.019,0,0,0,1.842-1.8q.039-.318.076-.619a3.673,3.673,0,0,0-4.055.451ZM16.277,82.9a1.466,1.466,0,0,1,.344,1.115l-.291,2.606,2.313,2.016a4.147,4.147,0,0,0-.008-3.1,1.455,1.455,0,0,1-.07-.766l.367-2.075L15.316,78.39a1.463,1.463,0,0,1,.251-2.114,11.434,11.434,0,0,0,2.589-2.955A22.73,22.73,0,0,1,14.6,71.2a29.729,29.729,0,0,1-4.351,4.689Z" transform="translate(0.001 -47.152)"/>
              </g>
            </g>
          </g>
        </g>
        <circle id="Ellipse_11600" data-name="Ellipse 11600" cx="0.875" cy="0.875" r="0.875" transform="translate(52.017 10.373)"/>
      </g>
    </g>
  </g>
</svg>
