<svg xmlns="http://www.w3.org/2000/svg" width="84" height="84" viewBox="0 0 84 84">
  <g id="Group_1111597" data-name="Group 1111597" transform="translate(-201.051 -9812)">
    <circle id="Ellipse_11612" data-name="Ellipse 11612" cx="42" cy="42" r="42" transform="translate(201.051 9812)" fill="#fff"/>
    <g id="Group_1111596" data-name="Group 1111596" transform="translate(205.051 9818)">
      <g id="Group_1111594" data-name="Group 1111594" transform="translate(3.993 0.994)">
        <path id="Path_900518" data-name="Path 900518" d="M72,33.385c0,2.1-2.471,3.916-2.9,5.9-.443,2.033,1.041,4.706.19,6.57s-3.856,2.516-5.079,4.178-.927,4.7-2.461,6.1c-1.514,1.377-4.524.809-6.3,1.89-1.743,1.062-2.611,4-4.562,4.739-1.9.718-4.5-.908-6.557-.536-1.993.358-3.849,2.8-5.953,2.8s-3.961-2.44-5.953-2.8c-2.061-.371-4.654,1.255-6.558.537-1.952-.738-2.819-3.677-4.562-4.739-1.776-1.082-4.786-.511-6.3-1.891-1.532-1.395-1.243-4.442-2.461-6.1s-4.224-2.3-5.081-4.177.633-4.537.19-6.571c-.434-1.983-2.9-3.794-2.9-5.9s2.469-3.912,2.9-5.9c.443-2.034-1.041-4.706-.19-6.571s3.856-2.516,5.079-4.177.927-4.7,2.461-6.1c1.514-1.377,4.524-.809,6.3-1.89,1.743-1.062,2.611-4,4.562-4.739,1.9-.718,4.5.908,6.557.537,1.994-.358,3.85-2.8,5.954-2.8s3.961,2.44,5.953,2.8c2.061.371,4.654-1.255,6.558-.537,1.952.738,2.819,3.677,4.562,4.739,1.776,1.082,4.786.514,6.3,1.891,1.532,1.395,1.243,4.443,2.461,6.1s4.222,2.3,5.079,4.178c.851,1.864-.633,4.536-.19,6.57C69.531,29.473,72,31.283,72,33.385Z" transform="translate(-4.75 -1.752)" fill="#ececf1"/>
        <path id="Path_900519" data-name="Path 900519" d="M64.4,48.789c-1.257.3-2.41,1.655-3.828,1.811-1.308.144-2.737-.912-4.143-.912s-2.834,1.056-4.143.912c-1.419-.156-2.572-1.507-3.828-1.811a6.4,6.4,0,0,0-1.961-.062v9.68a9.931,9.931,0,0,0,9.933,9.931h0a9.931,9.931,0,0,0,9.931-9.931v-9.68A6.4,6.4,0,0,0,64.4,48.789Z" transform="translate(-22.805 -22.048)" fill="#9b786f"/>
        <path id="Path_900520" data-name="Path 900520" d="M36.028,105c-1.952-.738-2.819-3.677-4.562-4.739a8.64,8.64,0,0,0-3.216-.83v11.243a3.973,3.973,0,0,0,3.973,3.973h1.135a3.973,3.973,0,0,0,3.973-3.973v-5.5A3.291,3.291,0,0,1,36.028,105Z" transform="translate(-14.914 -44)" fill="#9b786f"/>
        <path id="Path_900521" data-name="Path 900521" d="M85.052,105c1.952-.738,2.819-3.677,4.562-4.739a8.64,8.64,0,0,1,3.216-.83v11.243a3.973,3.973,0,0,1-3.973,3.973H87.723a3.973,3.973,0,0,1-3.973-3.973v-5.5A3.291,3.291,0,0,0,85.052,105Z" transform="translate(-38.917 -44)" fill="#9b786f"/>
        <path id="Path_900522" data-name="Path 900522" d="M60.89,77.978c.335,0,.666-.018.993-.05V74.516c1.813-.27,3.086-1.271,3.086-2.539a1.006,1.006,0,0,0-.991-1.01.977.977,0,0,0-.991.976,2.685,2.685,0,0,1-2.1.661,2.847,2.847,0,0,1-2.092-.627.993.993,0,0,0-1.986,0c0,1.268,1.273,2.27,3.086,2.539v3.412C60.224,77.96,60.555,77.978,60.89,77.978Z" transform="translate(-27.265 -31.687)" fill="#704c55"/>
        <path id="Path_900523" data-name="Path 900523" d="M70.779,57.727l-2.043-.206a.993.993,0,0,0-.2,1.974l2.043.207c.033,0,.068.005.1.005a.993.993,0,0,0,.1-1.982Z" transform="translate(-31.973 -25.871)" fill="#704c55"/>
        <path id="Path_900524" data-name="Path 900524" d="M57.313,58.406a1,1,0,0,0-1.088-.888l-2.043.206a.993.993,0,0,0,.1,1.982.67.67,0,0,0,.1-.005l2.043-.207a.993.993,0,0,0,.889-1.088Z" transform="translate(-25.741 -25.869)" fill="#704c55"/>
        <path id="Path_900525" data-name="Path 900525" d="M35.249,48.481c-.023-.01-.043-.026-.066-.037l-9.434,4.55a4.161,4.161,0,0,0,5.968,3.746l5.807-2.8V48.625a4.95,4.95,0,0,1-2.276-.144Z" transform="translate(-13.832 -21.946)" fill="#704c55"/>
        <path id="Path_900526" data-name="Path 900526" d="M83.842,48.444c-.023.011-.043.027-.066.037a4.953,4.953,0,0,1-2.275.144v5.315l5.807,2.8A4.161,4.161,0,0,0,93.276,53Z" transform="translate(-37.944 -21.946)" fill="#704c55"/>
        <path id="Path_900527" data-name="Path 900527" d="M55.65,48.432a6.665,6.665,0,0,1-2.213-.511,5.471,5.471,0,0,0-1.672-.414,5.471,5.471,0,0,0-1.672.415,5.8,5.8,0,0,1-2.578.49,6.109,6.109,0,0,1-2.59-1.121,5.179,5.179,0,0,0-1.362-.712,5.948,5.948,0,0,0-1.763-.03,5.442,5.442,0,0,1-2.638-.233,5.85,5.85,0,0,1-2.37-2.283,5.922,5.922,0,0,0-.754-.965.994.994,0,0,1,1.332-1.476,7.334,7.334,0,0,1,1.06,1.315A4.147,4.147,0,0,0,39.956,44.5a4.1,4.1,0,0,0,1.694.072,7.623,7.623,0,0,1,2.379.079A6.605,6.605,0,0,1,46,45.62a4.531,4.531,0,0,0,1.737.819,4.361,4.361,0,0,0,1.7-.388,7.075,7.075,0,0,1,2.334-.531,7.075,7.075,0,0,1,2.335.529,4.37,4.37,0,0,0,1.7.388,4.531,4.531,0,0,0,1.737-.819,6.6,6.6,0,0,1,1.967-.969,7.622,7.622,0,0,1,2.379-.079,4.1,4.1,0,0,0,1.693-.072A4.156,4.156,0,0,0,65.1,42.909a7.334,7.334,0,0,1,1.06-1.314.994.994,0,0,1,1.332,1.476,5.922,5.922,0,0,0-.754.965,5.852,5.852,0,0,1-2.37,2.283,5.444,5.444,0,0,1-2.637.232,5.971,5.971,0,0,0-1.764.03,5.185,5.185,0,0,0-1.362.712,6.109,6.109,0,0,1-2.591,1.12A3.314,3.314,0,0,1,55.65,48.432Z" transform="translate(-18.139 -18.873)" fill="#babac0"/>
      </g>
      <g id="Group_1111595" data-name="Group 1111595" transform="translate(3)">
        <path id="Path_900528" data-name="Path 900528" d="M70.549,36.5a7.023,7.023,0,0,0,1.687-3.874,7.025,7.025,0,0,0-1.687-3.874,7.078,7.078,0,0,1-1.238-2.235,7.274,7.274,0,0,1,.194-2.63,6.853,6.853,0,0,0-.07-4.143,6.893,6.893,0,0,0-3.088-2.781,7.151,7.151,0,0,1-2.1-1.571,7.1,7.1,0,0,1-.869-2.462,6.946,6.946,0,0,0-1.722-3.78.993.993,0,1,0-1.337,1.469,5.561,5.561,0,0,1,1.125,2.763,8.554,8.554,0,0,0,1.2,3.189,8.614,8.614,0,0,0,2.684,2.1,5.508,5.508,0,0,1,2.291,1.9,5.44,5.44,0,0,1-.075,2.956,8.732,8.732,0,0,0-.182,3.414A8.521,8.521,0,0,0,68.925,29.9a5.514,5.514,0,0,1,1.325,2.73,5.523,5.523,0,0,1-1.325,2.73,8.539,8.539,0,0,0-1.556,2.957,8.719,8.719,0,0,0,.182,3.413,5.479,5.479,0,0,1,.075,2.956,5.512,5.512,0,0,1-2.291,1.9,8.6,8.6,0,0,0-2.684,2.1,8.551,8.551,0,0,0-1.2,3.189,5.556,5.556,0,0,1-1.125,2.762,5.546,5.546,0,0,1-2.813.848,8.582,8.582,0,0,0-3.337.929,8.43,8.43,0,0,0-2.314,2.507,5.614,5.614,0,0,1-2.081,2.15,2.348,2.348,0,0,1-.918.117c-.011,0-.022,0-.033,0H48.81a11.475,11.475,0,0,1-1.932-.353,8.563,8.563,0,0,0-3.482-.347,8.32,8.32,0,0,0-3.05,1.509,5.64,5.64,0,0,1-2.727,1.273,5.641,5.641,0,0,1-2.728-1.273,8.318,8.318,0,0,0-3.049-1.509,8.594,8.594,0,0,0-3.483.347,11.506,11.506,0,0,1-1.93.353h-.016a.132.132,0,0,0-.033,0,2.35,2.35,0,0,1-.918-.117,5.608,5.608,0,0,1-2.081-2.151,8.437,8.437,0,0,0-2.317-2.511,8.6,8.6,0,0,0-3.336-.929,5.533,5.533,0,0,1-2.813-.848,5.551,5.551,0,0,1-1.125-2.762,8.553,8.553,0,0,0-1.2-3.189,8.614,8.614,0,0,0-2.684-2.1,5.508,5.508,0,0,1-2.291-1.9,5.44,5.44,0,0,1,.075-2.956,8.732,8.732,0,0,0,.182-3.414,8.526,8.526,0,0,0-1.555-2.956,5.508,5.508,0,0,1-1.325-2.728A5.525,5.525,0,0,1,6.311,29.9a8.536,8.536,0,0,0,1.556-2.956,8.721,8.721,0,0,0-.182-3.414,5.479,5.479,0,0,1-.075-2.956,5.507,5.507,0,0,1,2.291-1.9,8.6,8.6,0,0,0,2.684-2.1,8.552,8.552,0,0,0,1.2-3.189,5.56,5.56,0,0,1,1.125-2.763,5.54,5.54,0,0,1,2.813-.847,8.6,8.6,0,0,0,3.337-.929,8.437,8.437,0,0,0,2.314-2.507,5.616,5.616,0,0,1,2.081-2.151,5.542,5.542,0,0,1,2.9.238,8.6,8.6,0,0,0,3.482.344,8.33,8.33,0,0,0,3.05-1.51,5.657,5.657,0,0,1,2.727-1.271A5.636,5.636,0,0,1,40.346,3.26a8.335,8.335,0,0,0,3.049,1.507,8.584,8.584,0,0,0,3.483-.347,5.553,5.553,0,0,1,2.9-.238.993.993,0,1,0,.7-1.855,6.9,6.9,0,0,0-4.062.164,7.158,7.158,0,0,1-2.667.324,6.9,6.9,0,0,1-2.289-1.2A7.169,7.169,0,0,0,37.618,0a7.155,7.155,0,0,0-3.84,1.613,6.9,6.9,0,0,1-2.289,1.2,7.168,7.168,0,0,1-2.667-.324,6.906,6.906,0,0,0-4.063-.164,7.023,7.023,0,0,0-3.008,2.868,7.005,7.005,0,0,1-1.722,1.952,7.136,7.136,0,0,1-2.577.658A6.911,6.911,0,0,0,13.577,9.15a6.942,6.942,0,0,0-1.722,3.78,7.1,7.1,0,0,1-.869,2.463,7.163,7.163,0,0,1-2.1,1.571A6.893,6.893,0,0,0,5.8,19.745a6.827,6.827,0,0,0-.071,4.143,7.274,7.274,0,0,1,.194,2.629,7.105,7.105,0,0,1-1.239,2.235A7.037,7.037,0,0,0,3,32.628,7.029,7.029,0,0,0,4.687,36.5a7.094,7.094,0,0,1,1.238,2.235,7.275,7.275,0,0,1-.194,2.63,6.853,6.853,0,0,0,.07,4.143A6.9,6.9,0,0,0,8.89,48.29a7.16,7.16,0,0,1,2.1,1.571,7.1,7.1,0,0,1,.868,2.463,6.946,6.946,0,0,0,1.722,3.78,5.364,5.364,0,0,0,2.76,1.174V67.673a.993.993,0,1,0,1.986,0V57.582a4.913,4.913,0,0,1,1.706.526A7,7,0,0,1,21.75,60.06a6.988,6.988,0,0,0,3.008,2.868,3.722,3.722,0,0,0,.659.175v4.57a2.983,2.983,0,0,1-2.979,2.979H21.3a.993.993,0,0,0,0,1.986h1.135A4.971,4.971,0,0,0,27.4,67.673V63.067c.474-.08.948-.191,1.419-.3a7.162,7.162,0,0,1,2.667-.325,6.893,6.893,0,0,1,2.289,1.2,7.157,7.157,0,0,0,3.84,1.614,7.156,7.156,0,0,0,3.84-1.614,6.9,6.9,0,0,1,2.289-1.2,7.143,7.143,0,0,1,2.667.325c.469.114.943.223,1.419.3v4.606A4.971,4.971,0,0,0,52.8,72.641h1.135A4.971,4.971,0,0,0,58.9,67.675v-10.4a5.357,5.357,0,0,0,2.759-1.174,6.942,6.942,0,0,0,1.722-3.78,7.112,7.112,0,0,1,.869-2.464,7.166,7.166,0,0,1,2.1-1.571,6.9,6.9,0,0,0,3.088-2.781,6.827,6.827,0,0,0,.071-4.143,7.276,7.276,0,0,1-.194-2.63A7.094,7.094,0,0,1,70.549,36.5ZM53.934,70.654H52.8a2.983,2.983,0,0,1-2.979-2.979V63.1a3.782,3.782,0,0,0,.659-.174,7.023,7.023,0,0,0,3.008-2.868,7,7,0,0,1,1.722-1.952,4.92,4.92,0,0,1,1.7-.528v10.09a2.983,2.983,0,0,1-2.979,2.981Z" transform="translate(-3)"/>
        <path id="Path_900529" data-name="Path 900529" d="M91.879,13.305a5.454,5.454,0,0,0,1.511.606.993.993,0,0,0,.49-1.925,3.515,3.515,0,0,1-.965-.378,3.893,3.893,0,0,1-.965-.919A.993.993,0,1,0,90.4,11.932,5.778,5.778,0,0,0,91.879,13.305Z" transform="translate(-40.706 -4.462)"/>
        <path id="Path_900530" data-name="Path 900530" d="M70.779,57.727l-2.043-.206a.993.993,0,0,0-.2,1.974l2.043.207c.033,0,.068.005.1.005a.993.993,0,0,0,.1-1.982Z" transform="translate(-30.98 -24.877)"/>
        <path id="Path_900531" data-name="Path 900531" d="M56.225,57.518l-2.043.206a.993.993,0,0,0,.1,1.982.67.67,0,0,0,.1-.005l2.043-.207a.993.993,0,1,0-.2-1.976Z" transform="translate(-24.748 -24.874)"/>
        <path id="Path_900532" data-name="Path 900532" d="M58.574,44.465l-.023.008c-.019.009-.037.02-.057.03a4.167,4.167,0,0,1-1.679.068,7.621,7.621,0,0,0-2.379.079,6.6,6.6,0,0,0-1.967.969,4.531,4.531,0,0,1-1.737.819,4.37,4.37,0,0,1-1.7-.388,7.075,7.075,0,0,0-2.334-.529,7.074,7.074,0,0,0-2.335.529,4.361,4.361,0,0,1-1.7.388,4.531,4.531,0,0,1-1.737-.819,6.605,6.605,0,0,0-1.967-.969,7.623,7.623,0,0,0-2.379-.079A4.15,4.15,0,0,1,34.9,44.5l-.035-.016a4.224,4.224,0,0,1-1.5-1.574A7.334,7.334,0,0,0,32.3,41.6a.994.994,0,1,0-1.332,1.476,5.922,5.922,0,0,1,.754.965,11.533,11.533,0,0,0,.851,1.126l-8.016,3.864a.994.994,0,0,0-.562.894,5.148,5.148,0,0,0,7.393,4.643l4.383-2.114v2.781a10.924,10.924,0,1,0,21.849,0V52.45l4.383,2.114A5.155,5.155,0,0,0,69.4,49.921a.994.994,0,0,0-.562-.894l-8.014-3.865a11.522,11.522,0,0,0,.851-1.125,5.922,5.922,0,0,1,.754-.965A.994.994,0,0,0,61.1,41.6a7.334,7.334,0,0,0-1.062,1.315A4.352,4.352,0,0,1,58.574,44.465ZM30.53,52.775a3.169,3.169,0,0,1-4.487-2.256l8.431-4.066a4.455,4.455,0,0,0,1.305.15v3.643ZM47.693,64.113V61.7c1.813-.27,3.086-1.271,3.086-2.539a1.006,1.006,0,0,0-.991-1.01.977.977,0,0,0-.991.976,2.685,2.685,0,0,1-2.1.661,2.847,2.847,0,0,1-2.092-.627.993.993,0,0,0-1.986,0c0,1.268,1.273,2.27,3.086,2.539v2.41a8.95,8.95,0,0,1-7.945-8.88V46.5a3.292,3.292,0,0,1,.734.076,5.179,5.179,0,0,1,1.362.712,6.109,6.109,0,0,0,2.593,1.119,5.8,5.8,0,0,0,2.578-.49,5.471,5.471,0,0,1,1.672-.414,5.471,5.471,0,0,1,1.672.415,6.665,6.665,0,0,0,2.213.511,3.314,3.314,0,0,0,.365-.02,6.109,6.109,0,0,0,2.59-1.121,5.185,5.185,0,0,1,1.362-.712,3.332,3.332,0,0,1,.738-.075v8.728a8.95,8.95,0,0,1-7.947,8.879ZM65.931,52.6a3.15,3.15,0,0,1-3.061.17l-5.245-2.53V46.6a4.462,4.462,0,0,0,1.305-.151l8.427,4.067A3.151,3.151,0,0,1,65.931,52.6Z" transform="translate(-12.082 -17.879)"/>
      </g>
    </g>
  </g>
</svg>
