<svg xmlns="http://www.w3.org/2000/svg" width="190" height="226" viewBox="0 0 190 226">
  <g id="Group_1111555" data-name="Group 1111555" transform="translate(-1230.051 -476)">
    <rect id="Rectangle_404169" data-name="Rectangle 404169" width="190" height="226" rx="11" transform="translate(1230.051 476)" fill="#efd026"/>
    <g id="Group_1111554" data-name="Group 1111554" transform="translate(1242.818 520.001)">
      <g id="Group_1111552" data-name="Group 1111552" transform="translate(20.266 2.031)">
        <path id="Path_900395" data-name="Path 900395" d="M268.247,387.582v14.97a5.362,5.362,0,0,1-5.362,5.362h-16.73v-5.93H257.2V372.365h11.046Z" transform="translate(-186.417 -273.478)" fill="#fbc773"/>
        <path id="Path_900396" data-name="Path 900396" d="M237.716,387.581v14.97a5.362,5.362,0,0,1-5.362,5.362H216.819a1.2,1.2,0,0,1-1.2-1.2v-2.547a4.8,4.8,0,0,1,4.8-4.8h7.055a1.538,1.538,0,0,0,1.538-1.537V372.365h8.7Z" transform="translate(-164.16 -273.478)" fill="#fbce85"/>
        <path id="Path_900397" data-name="Path 900397" d="M71.464,26.531a9.52,9.52,0,1,0-7.02-16.3,6.152,6.152,0,0,1-4.307,1.8h-.32a6.152,6.152,0,0,1-4.307-1.8,9.521,9.521,0,1,0-6.674,16.31c.293,0,.581-.018.868-.044Z" transform="translate(-35.635 -7.498)" fill="#fd6773"/>
        <g id="Group_1111549" data-name="Group 1111549" transform="translate(3.68)">
          <path id="Path_900398" data-name="Path 900398" d="M44.139,18.263a9.552,9.552,0,0,1,8.739-8.816,9.7,9.7,0,0,1,1.759.025,9.52,9.52,0,1,0-6.8,17.015A9.507,9.507,0,0,1,44.139,18.263Z" transform="translate(-39.316 -7.497)" fill="#fc4d5a"/>
        </g>
        <path id="Path_900399" data-name="Path 900399" d="M47.554,150.764,45.8,152.522a6.066,6.066,0,0,1-8.7-8.454l2.491-2.639v-17.6H54.131V144.36Z" transform="translate(-32.81 -92.304)" fill="#fd6773"/>
        <path id="Path_900400" data-name="Path 900400" d="M42.284,146.029l2.491-2.639v-17.6H54.13v-1.961H39.585v17.6l-2.491,2.639a6.065,6.065,0,0,0,5.1,10.189,6.066,6.066,0,0,1,.091-8.228Z" transform="translate(-32.81 -92.304)" fill="#fc4d5a"/>
        <path id="Path_900401" data-name="Path 900401" d="M37.15,92.082l-8.6-2.055a3.661,3.661,0,0,1-1.373-6.47l9.075-6.939,8.2-6.948.633,23.973Z" transform="translate(-25.736 -52.821)" fill="#fbc773"/>
        <g id="Group_1111550" data-name="Group 1111550" transform="translate(8.936 14.727)">
          <path id="Path_900402" data-name="Path 900402" d="M67.233,93.159l.26-1.065a15.985,15.985,0,1,1,23.18-14.275v7.2a3.554,3.554,0,0,0,.9,2.363l11.225,12.6a3.718,3.718,0,0,0,2.777,1.245h53.011l13.18-2.488a2.156,2.156,0,0,1,2.388,2.954l-3.233,7.683v0a51.83,51.83,0,0,1-51.83,51.83h-2.743a51.833,51.833,0,0,1-51.833-51.833,43.33,43.33,0,0,1,1.3-10.537Z" transform="translate(-58.708 -61.836)" fill="#efedef"/>
        </g>
        <path id="Path_900403" data-name="Path 900403" d="M127.943,157.955H125.2a51.833,51.833,0,0,1-51.833-51.833,43.329,43.329,0,0,1,1.3-10.537l1.42-5.683.26-1.065A15.965,15.965,0,0,1,73.76,61.946a15.984,15.984,0,0,0-6.267,30.228l-.26,1.065-1.42,5.683a43.33,43.33,0,0,0-1.3,10.537,51.833,51.833,0,0,0,51.833,51.833h2.743a51.62,51.62,0,0,0,22.638-5.194A51.888,51.888,0,0,1,127.943,157.955Z" transform="translate(-49.772 -47.189)" fill="#e5e1e5"/>
        <g id="XMLID_1058_" transform="translate(58.678 54.121)">
          <g id="Group_1111551" data-name="Group 1111551" transform="translate(0)">
            <path id="Path_900404" data-name="Path 900404" d="M274.362,281.02v2.992c0,4.244-3.442,9.044-7.689,9.044H244.851a2.608,2.608,0,0,1-2.608-2.608V281.02h32.119Z" transform="translate(-242.243 -261.011)" fill="#e5e1e5"/>
            <path id="Path_900405" data-name="Path 900405" d="M252.917,287.039a2.608,2.608,0,0,1-2.608-2.608v-3.41h-8.067v9.428a2.608,2.608,0,0,0,2.608,2.608h21.822c3.245,0,6.018-2.8,7.147-6.018Z" transform="translate(-242.242 -261.011)" fill="#d7d0d6"/>
            <path id="Path_900406" data-name="Path 900406" d="M278.907,246.61V249.6a7.69,7.69,0,0,1-7.689,7.689H242.243V246.61h36.664Z" transform="translate(-242.243 -235.926)" fill="#e5e1e5"/>
            <path id="Path_900407" data-name="Path 900407" d="M254.855,252.7a4.545,4.545,0,0,1-4.545-4.545V246.61h-8.067v10.681h28.975a7.69,7.69,0,0,0,7.036-4.589Z" transform="translate(-242.243 -235.926)" fill="#d7d0d6"/>
            <path id="Path_900408" data-name="Path 900408" d="M285.384,207.19v2.992a7.691,7.691,0,0,1-7.689,7.692H242.243V207.19h43.141Z" transform="translate(-242.243 -207.19)" fill="#e5e1e5"/>
            <path id="Path_900409" data-name="Path 900409" d="M261.333,213.192h-5.021a6,6,0,0,1-6-6h-8.067v10.684H277.7a7.691,7.691,0,0,0,7.077-4.682Z" transform="translate(-242.243 -207.191)" fill="#d7d0d6"/>
          </g>
        </g>
      </g>
      <g id="Group_1111553" data-name="Group 1111553" transform="translate(18.232 -0.001)">
        <circle id="Ellipse_11610" data-name="Ellipse 11610" cx="3.209" cy="3.209" r="3.209" transform="translate(20.75 24.701)"/>
        <path id="Path_900410" data-name="Path 900410" d="M145.919,53.15a4.182,4.182,0,0,0-4.035-1.483l-12.993,2.454H75.313L63.586,40.951a1.52,1.52,0,0,1-.386-1.013v-7.2a17.841,17.841,0,0,0-3.3-10.4A11.555,11.555,0,1,0,47.65,3.314a4.108,4.108,0,0,1-2.881,1.218h-.321a4.107,4.107,0,0,1-2.881-1.218A11.553,11.553,0,1,0,30.3,22.656a18.188,18.188,0,0,0-1.091,1.817l-8.735,6.68a5.694,5.694,0,0,0,2.135,10.061l2.4.574v8.56L23.072,52.4a8.1,8.1,0,0,0,9.914,12.586,54.229,54.229,0,0,0,1.195,10.675,2.033,2.033,0,0,0,1.985,1.606,2.058,2.058,0,0,0,.429-.046,2.033,2.033,0,0,0,1.561-2.414A50.126,50.126,0,0,1,37.042,64.3a41.458,41.458,0,0,1,1.237-10.046l1.115-4.46a17.938,17.938,0,0,0,2.737.7,2.033,2.033,0,1,0,.685-4.007,13.95,13.95,0,1,1,12-23.837,13.831,13.831,0,0,1,4.317,10.09v7.2a5.582,5.582,0,0,0,1.415,3.716l12.333,13.85a2.034,2.034,0,0,0,1.518.681h45.65v.959A5.663,5.663,0,0,1,114.4,64.8h-6.309a2.033,2.033,0,0,0,0,4.065h5.489v.959a5.663,5.663,0,0,1-5.656,5.656H82.131a2.033,2.033,0,0,0,0,4.065h26.9v.959a5.663,5.663,0,0,1-5.656,5.656H78.944a2.033,2.033,0,0,0,0,4.065h24.43a9.733,9.733,0,0,0,9.722-9.722V78.049a9.721,9.721,0,0,0,4.545-8.223V68.308a9.737,9.737,0,0,0,6.477-9.163v-.959h4.964a2.025,2.025,0,0,0,.377-.035l13.18-2.49a.1.1,0,0,1,.118.043.1.1,0,0,1,.017.124l-3.233,7.686a2.028,2.028,0,0,0-.159.788,49.855,49.855,0,0,1-49.8,49.8H86.841A49.815,49.815,0,0,1,40.583,82.778a2.033,2.033,0,0,0-3.775,1.509,53.88,53.88,0,0,0,46.278,33.749v7.858h-6.56a6.838,6.838,0,0,0-6.83,6.83v2.547a3.232,3.232,0,0,0,3.228,3.228H96.734a7.4,7.4,0,0,0,7.395-7.395V116.171a53.961,53.961,0,0,0,39.317-51.454l3.075-7.312a4.181,4.181,0,0,0-.6-4.255ZM22.336,36.014a1.585,1.585,0,0,1,.6-1.632l4.3-3.291c-.024.265-.044.532-.056.8a17.98,17.98,0,0,0,.879,6.448L23.551,37.26A1.584,1.584,0,0,1,22.336,36.014Zm13.311,12-1.313,5.252a45.509,45.509,0,0,0-1.085,6.106l-1.436,1.436a4.034,4.034,0,0,1-5.786-5.621l2.491-2.639a2.033,2.033,0,0,0,.555-1.4v-8.4l1.381.33A18.085,18.085,0,0,0,35.648,48.018Zm8.689-33.275a17.889,17.889,0,0,0-10.787,4.3h-.081A7.49,7.49,0,0,1,26,11.017a7.487,7.487,0,0,1,12.719-4.8A8.147,8.147,0,0,0,44.449,8.6h.321A8.147,8.147,0,0,0,50.5,6.213,7.487,7.487,0,0,1,61.318,16.558a7.422,7.422,0,0,1-4.524,2.408,17.852,17.852,0,0,0-12.457-4.223ZM100.063,131.1a3.333,3.333,0,0,1-3.329,3.329H95.059a7.346,7.346,0,0,0,.8-3.329v-1.253a2.033,2.033,0,1,0-4.065,0V131.1a3.333,3.333,0,0,1-3.329,3.329h-14.7v-1.71a2.768,2.768,0,0,1,2.765-2.765h7.055a3.574,3.574,0,0,0,3.57-3.57v-8.222h2.431c.739,0,1.474-.019,2.205-.049v3.07a2.033,2.033,0,1,0,4.065,0V117.8q2.131-.248,4.209-.659V131.1Z" transform="translate(-18.232 0.001)"/>
        <path id="Path_900411" data-name="Path 900411" d="M286.9,243.171a2.033,2.033,0,0,0,0-4.065h-9.458a2.033,2.033,0,1,0,0,4.065Z" transform="translate(-205.711 -174.303)"/>
        <path id="Path_900412" data-name="Path 900412" d="M198.567,321.992a2.033,2.033,0,0,0,0-4.065h-4.309a2.033,2.033,0,1,0,0,4.065Z" transform="translate(-145.069 -231.762)"/>
      </g>
    </g>
  </g>
</svg>
