<svg xmlns="http://www.w3.org/2000/svg" width="86.369" height="86.369" viewBox="0 0 86.369 86.369">
  <g id="Group_1111614" data-name="Group 1111614" transform="translate(-767.051 -5230)">
    <g id="Group_1099341" data-name="Group 1099341" transform="translate(767.051 5230)">
      <g id="Rectangle_402588" data-name="Rectangle 402588" transform="translate(0 0)" fill="#f4c5c5" stroke="#fff" stroke-width="5">
        <rect width="86.369" height="86.369" rx="14" stroke="none"/>
        <rect x="2.5" y="2.5" width="81.369" height="81.369" rx="11.5" fill="none"/>
      </g>
    </g>
    <g id="Group_1111613" data-name="Group 1111613" transform="translate(780.051 5200.482)">
      <path id="Path_900580" data-name="Path 900580" d="M55.037,219.349a4.071,4.071,0,0,0-4.234.582l-.792.653c-4.309,3.631-8.8,7.949-7.2,9,2.883,1.89,8.359,2.027,10.09,1.57,1.054-.279,2.04-1.475,2.874-2.9l1.42-3.728a4.071,4.071,0,0,0-2.159-5.172Z" transform="translate(-37.447 -150.28)" fill="#58565d"/>
      <path id="Path_900581" data-name="Path 900581" d="M79.538,229.12h0a1.3,1.3,0,0,0-1.527.072c-1.154.927-2.425,1.977-3.658,3.05a43.228,43.228,0,0,0-4.536,4.409.257.257,0,0,0,.122.411,17.134,17.134,0,0,0,4.628.624,9.129,9.129,0,0,0,1.683-.121.246.246,0,0,0,.086-.037c.221-.147,1.049-.832,2.227-3.382.135-.291.948-2.221,1.459-3.436A1.3,1.3,0,0,0,79.538,229.12Z" transform="translate(-61.49 -159.011)" fill="#4e4d54"/>
      <path id="Path_900582" data-name="Path 900582" d="M345.517,219.349a4.071,4.071,0,0,1,4.234.582l.792.653c4.309,3.631,8.8,7.949,7.2,9-2.883,1.89-8.359,2.027-10.09,1.57-1.054-.279-2.04-1.475-2.874-2.9l-1.42-3.728a4.071,4.071,0,0,1,2.159-5.172Z" transform="translate(-302.433 -150.28)" fill="#58565d"/>
      <path id="Path_900583" data-name="Path 900583" d="M355.345,229.12h0a1.3,1.3,0,0,1,1.527.072c1.154.927,2.425,1.977,3.658,3.05a43.225,43.225,0,0,1,4.536,4.409.257.257,0,0,1-.122.411,17.134,17.134,0,0,1-4.628.624,9.129,9.129,0,0,1-1.683-.121.246.246,0,0,1-.086-.037c-.221-.147-1.049-.832-2.227-3.382-.135-.291-.948-2.221-1.459-3.436A1.3,1.3,0,0,1,355.345,229.12Z" transform="translate(-312.718 -159.011)" fill="#4e4d54"/>
      <path id="Path_900584" data-name="Path 900584" d="M218.064,412.193H214.1a3.385,3.385,0,0,1-3.385-3.385v-2.531h10.733v2.531A3.385,3.385,0,0,1,218.064,412.193Z" transform="translate(-185.744 -315.363)" fill="#2b2b2d"/>
      <path id="Path_900585" data-name="Path 900585" d="M246.034,406.279v2.531a3.384,3.384,0,0,1-3.385,3.384h3.564a3.385,3.385,0,0,0,3.385-3.384v-2.531Z" transform="translate(-213.894 -315.364)" fill="#222223"/>
      <path id="Path_900586" data-name="Path 900586" d="M166.243,168.14l-4.127-2.2a11.44,11.44,0,0,0-5.2-1.374l-.122,0a11.615,11.615,0,0,0-5.965,1.6l-3.315,1.94a4.948,4.948,0,0,0-3.881,5.593l1.324,7.645a5.666,5.666,0,0,0,2.069,3.584h0a5.263,5.263,0,0,1,1.864,2.908l.842,3.922a2.615,2.615,0,0,0,2.557,2.066h9.238a2.615,2.615,0,0,0,2.557-2.066l.842-3.922a5.263,5.263,0,0,1,1.864-2.908h0a5.666,5.666,0,0,0,2.069-3.584l1.318-7.6A4.945,4.945,0,0,0,166.243,168.14Z" transform="translate(-126.57 -102.29)" fill="#58565d"/>
      <path id="Path_900587" data-name="Path 900587" d="M250.266,168.14l-4.127-2.2a11.441,11.441,0,0,0-5.2-1.374l-.122,0a11.425,11.425,0,0,0-1.916.145,11.673,11.673,0,0,1,3.608,1.23l4.127,2.2a4.945,4.945,0,0,1,3.936,5.6l-1.318,7.6a5.666,5.666,0,0,1-2.069,3.584,5.263,5.263,0,0,0-1.864,2.908l-.842,3.922a2.615,2.615,0,0,1-2.557,2.066h3.627a2.615,2.615,0,0,0,2.557-2.066l.842-3.922a5.263,5.263,0,0,1,1.864-2.908,5.666,5.666,0,0,0,2.069-3.584l1.318-7.6A4.945,4.945,0,0,0,250.266,168.14Z" transform="translate(-210.593 -102.29)" fill="#4e4d54"/>
      <path id="Path_900588" data-name="Path 900588" d="M213.112,368.695c-.391-1.683-.867-1.951-2-1.969a8.194,8.194,0,0,0-2.985.523l-1.423.528-1.423-.528a8.2,8.2,0,0,0-2.985-.523c-1.136.019-1.611.286-2,1.969-.132.568-.487,3.47.154,4.483.785,1.241,2.566,1.757,6.257,1.806,3.691-.049,5.472-.566,6.257-1.806C213.6,372.165,213.244,369.262,213.112,368.695Z" transform="translate(-176.364 -280.497)" fill="#3d3d42"/>
      <path id="Path_900589" data-name="Path 900589" d="M249.155,368.695c-.391-1.683-.867-1.951-2-1.969a8.081,8.081,0,0,0-2.339.313,2.859,2.859,0,0,1,.778,1.656c.132.568.487,3.47-.154,4.483s-1.968,1.551-4.475,1.735c.538.039,1.13.063,1.782.072,3.691-.049,5.472-.566,6.257-1.806C249.642,372.165,249.287,369.262,249.155,368.695Z" transform="translate(-212.408 -280.497)" fill="#343438"/>
      <path id="Path_900590" data-name="Path 900590" d="M60.856,57.256a19.676,19.676,0,0,0-3.213-1.439.24.24,0,0,0-.225.417c1.827,1.373,4.139,3.426,4.744,6.107,1.5,6.67-3.98,8.769-6.521,8.518h0C51.979,70.5,47.484,68,43.715,65.419a5.286,5.286,0,0,0-6.959.867,5.286,5.286,0,0,0-6.959-.867C26.029,68,21.534,70.5,17.874,70.861h0c-2.541.251-8.025-1.849-6.521-8.518.6-2.681,2.917-4.735,4.744-6.107a.24.24,0,0,0-.225-.417,19.682,19.682,0,0,0-3.213,1.439,9.768,9.768,0,0,0-5.312,10.08c1.569,15.906,23.486,7.175,29.411,4.345,5.925,2.83,27.842,11.561,29.411-4.345A9.768,9.768,0,0,0,60.856,57.256Z" transform="translate(-6.419 -6.422)" fill="#8b8992"/>
      <path id="Path_900591" data-name="Path 900591" d="M36.759,132.128c-5.856,2.8-27.338,11.359-29.348-3.806a11.7,11.7,0,0,0-.063,2.94c1.569,15.906,23.486,7.175,29.411,4.345,5.925,2.83,27.842,11.561,29.411-4.345a11.69,11.69,0,0,0-.063-2.94C64.1,143.487,42.616,134.925,36.759,132.128Z" transform="translate(-6.422 -70.347)" fill="#797882"/>
      <g id="Group_1111612" data-name="Group 1111612" transform="translate(0 48.518)">
        <path id="Path_900592" data-name="Path 900592" d="M54.863,50.084a20.462,20.462,0,0,0-3.354-1.5A1.1,1.1,0,0,0,50.48,50.5c1.631,1.226,3.864,3.141,4.42,5.607.525,2.331.179,4.206-1.03,5.574a5.846,5.846,0,0,1-4.564,1.895H49.3a12.41,12.41,0,0,1-2.391-.507.864.864,0,0,0-.508,1.651,14.114,14.114,0,0,0,2.736.576h.01a7.584,7.584,0,0,0,6.02-2.471c1.1-1.243,2.235-3.482,1.42-7.1a9.028,9.028,0,0,0-1.993-3.8,8.833,8.833,0,0,1,4.3,8.895C58.547,64.3,57.211,66.648,54.8,68a12.9,12.9,0,0,1-6.72,1.333c-.027,0-.054-.009-.081-.009a29.048,29.048,0,0,1-4.3-.5h0a58.608,58.608,0,0,1-13-4.351.863.863,0,0,0-.744,0A58.606,58.606,0,0,1,16.96,68.834h0a29.041,29.041,0,0,1-4.287.494c-.028,0-.055.006-.082.01A12.9,12.9,0,0,1,5.87,68c-2.406-1.357-3.742-3.7-4.084-7.174a8.833,8.833,0,0,1,4.3-8.895,9.027,9.027,0,0,0-1.993,3.8c-.815,3.615.322,5.855,1.42,7.1A7.585,7.585,0,0,0,11.529,65.3h.011c3.225-.319,7.372-2.2,12.326-5.588a4.442,4.442,0,0,1,5.825.726.864.864,0,0,0,1.293,0,4.442,4.442,0,0,1,5.825-.726,48.045,48.045,0,0,0,6.173,3.645.864.864,0,0,0,.749-1.556,46.339,46.339,0,0,1-5.946-3.514,6.172,6.172,0,0,0-7.447.376,6.173,6.173,0,0,0-7.447-.376c-4.641,3.175-8.622,5.006-11.513,5.294h-.009A5.847,5.847,0,0,1,6.8,61.685c-1.209-1.368-1.555-3.243-1.03-5.574.556-2.466,2.789-4.381,4.42-5.607a1.1,1.1,0,0,0-1.029-1.923,20.459,20.459,0,0,0-3.355,1.5A10.656,10.656,0,0,0,.067,61c.4,4.016,2.063,6.879,4.954,8.509a12.956,12.956,0,0,0,5.391,1.5c-5.6,4.915-6.3,6.734-6.239,7.767a1.566,1.566,0,0,0,.719,1.244,12.021,12.021,0,0,0,4.432,1.6.864.864,0,0,0,.308-1.7A10.65,10.65,0,0,1,5.9,78.62c.042-.328.6-2.065,7.119-7.57q.582-.026,1.17-.079c-.667.555-1.3,1.093-1.893,1.608a45.062,45.062,0,0,0-4.628,4.5,1.12,1.12,0,0,0,.533,1.8,17.985,17.985,0,0,0,4.877.661,10.029,10.029,0,0,0,1.863-.14,1.107,1.107,0,0,0,.386-.163,6.608,6.608,0,0,0,1.818-2.324l.106.613.075.435c-1,1.587-1.733,1.985-2.09,2.079a9.656,9.656,0,0,1-2.159.191h-.062a.864.864,0,0,0,0,1.727h.068a10.989,10.989,0,0,0,2.6-.249,4.372,4.372,0,0,0,2.108-1.463A6.675,6.675,0,0,0,19.91,83.3a4.423,4.423,0,0,1,1.568,2.423l.842,3.922a3.44,3.44,0,0,0,.525,1.221h0a4.681,4.681,0,0,0,.5,2.277,3.462,3.462,0,0,0,.8.877,4.223,4.223,0,0,0,4.209,3.674h3.964a4.223,4.223,0,0,0,4.209-3.674,3.458,3.458,0,0,0,.8-.877,4.668,4.668,0,0,0,.5-2.268h0a3.443,3.443,0,0,0,.532-1.23l.842-3.922A4.423,4.423,0,0,1,40.771,83.3a6.676,6.676,0,0,0,2.124-3.05A4.365,4.365,0,0,0,45,81.708a11.018,11.018,0,0,0,2.6.249h0c2.533,0,6.013-.507,8.184-1.931a1.566,1.566,0,0,0,.718-1.244c.062-1.033-.634-2.853-6.239-7.767a12.962,12.962,0,0,0,5.391-1.5c2.892-1.631,4.559-4.494,4.955-8.509A10.655,10.655,0,0,0,54.863,50.084ZM44.459,71.6l0-.03,0-.022c1,.816,1.931,1.6,2.778,2.336a51.793,51.793,0,0,1,3.787,3.58,17.225,17.225,0,0,1-3.434.349,9.91,9.91,0,0,1-1.372-.079,9.259,9.259,0,0,1-1.84-2.959c-.028-.061-.111-.25-.34-.787Zm-28.17,3.176a9.258,9.258,0,0,1-1.84,2.959,9.9,9.9,0,0,1-1.372.079,17.225,17.225,0,0,1-3.434-.349,51.825,51.825,0,0,1,3.787-3.58c.848-.739,1.782-1.524,2.784-2.341h0v.009l.419,2.422C16.4,74.521,16.318,74.712,16.289,74.773ZM35.864,92.22a2.328,2.328,0,0,1-1.252.885l-.074.026-.093.031c-.064.02-.13.04-.2.059l-.026.007a15.081,15.081,0,0,1-3.394.387l-.07,0-.419.008-.419-.008-.07,0a15.081,15.081,0,0,1-3.394-.387l-.026-.007c-.068-.019-.134-.039-.2-.059l-.093-.031-.074-.026a2.328,2.328,0,0,1-1.252-.885c-.386-.611-.228-3.029-.042-3.827.3-1.287.45-1.289,1.175-1.3h.113a7.33,7.33,0,0,1,2.556.47l1.423.528a.864.864,0,0,0,.6,0l1.423-.528a7.258,7.258,0,0,1,2.67-.469c.726.012.877.014,1.175,1.3C36.092,89.191,36.25,91.609,35.864,92.22Zm-3.545,3.747H28.355a2.51,2.51,0,0,1-2-.983,19.481,19.481,0,0,0,3.97.367h.031a19.479,19.479,0,0,0,3.97-.367A2.509,2.509,0,0,1,32.319,95.967Zm9.116-17.034a4.793,4.793,0,0,1-1.762,3.033,6.151,6.151,0,0,0-2.16,3.394L37.2,86.8h0a2.344,2.344,0,0,0-2.444-1.439,9.031,9.031,0,0,0-3.3.577l-1.123.417-1.123-.417a9.051,9.051,0,0,0-3.3-.577,2.343,2.343,0,0,0-2.44,1.43l-.308-1.436a6.151,6.151,0,0,0-2.16-3.393,4.793,4.793,0,0,1-1.761-3.033c0-.011,0-.021,0-.032l-.707-4.085-.154-.887h0l-.46-2.658c-.012-.092-.021-.183-.027-.275v-.011c0-.018,0-.037,0-.055q-.007-.119-.007-.238c0-.026,0-.053,0-.079,0-.064,0-.127.008-.19a59.23,59.23,0,0,0,12.448-4.208,59.214,59.214,0,0,0,12.445,4.208c.005.073.009.147.01.221,0,.025,0,.049,0,.074q0,.123-.006.246c0,.021,0,.041,0,.062,0,0,0,.005,0,.008-.007.094-.015.188-.028.282v0l-.373,2.152-.082.472h0l-.52,3L41.44,78.9C41.438,78.912,41.437,78.922,41.435,78.933Zm13.339-.313c-1.86,1.186-4.918,1.609-7.176,1.609h0a9.676,9.676,0,0,1-2.158-.191c-.356-.094-1.086-.491-2.084-2.071l.182-1.047a6.593,6.593,0,0,0,1.812,2.314,1.107,1.107,0,0,0,.388.164,10.028,10.028,0,0,0,1.861.14,17.98,17.98,0,0,0,4.876-.661,1.12,1.12,0,0,0,.533-1.8,45.048,45.048,0,0,0-4.628-4.5c-.592-.515-1.226-1.053-1.893-1.608q.587.052,1.17.079C54.175,76.556,54.733,78.293,54.774,78.62Z" transform="translate(0 -48.518)" fill="#121419"/>
        <path id="Path_900593" data-name="Path 900593" d="M220,385.309a.864.864,0,0,0-1.367,1.055L219.9,388a.863.863,0,1,0,1.367-1.055Z" transform="translate(-192.563 -345.101)" fill="#121419"/>
        <path id="Path_900594" data-name="Path 900594" d="M270.946,385.153a.864.864,0,0,0-1.211.156l-1.266,1.641A.863.863,0,1,0,269.835,388l1.266-1.641A.863.863,0,0,0,270.946,385.153Z" transform="translate(-236.494 -345.101)" fill="#121419"/>
        <path id="Path_900595" data-name="Path 900595" d="M185.768,292.7l-1.711-1.1a.864.864,0,0,0-.936,1.451l1.711,1.1a.864.864,0,1,0,.936-1.451Z" transform="translate(-161.071 -262.671)" fill="#121419"/>
        <path id="Path_900596" data-name="Path 900596" d="M185.644,268.743a.863.863,0,1,0,.126,1.722,2.206,2.206,0,0,1,2.358,2.035.864.864,0,0,0,.86.8l.064,0a.864.864,0,0,0,.8-.924A3.933,3.933,0,0,0,185.644,268.743Z" transform="translate(-162.938 -242.635)" fill="#121419"/>
        <path id="Path_900597" data-name="Path 900597" d="M302.372,291.6l-1.71,1.1a.864.864,0,1,0,.936,1.451l1.711-1.1a.864.864,0,0,0-.936-1.451Z" transform="translate(-264.683 -262.67)" fill="#121419"/>
        <path id="Path_900598" data-name="Path 900598" d="M288.965,270.466a.863.863,0,1,0,.126-1.722,3.933,3.933,0,0,0-4.207,3.631.863.863,0,0,0,.8.924l.064,0a.864.864,0,0,0,.86-.8A2.207,2.207,0,0,1,288.965,270.466Z" transform="translate(-251.122 -242.636)" fill="#121419"/>
      </g>
    </g>
  </g>
</svg>
