<svg xmlns="http://www.w3.org/2000/svg" width="86.369" height="86.369" viewBox="0 0 86.369 86.369">
  <g id="Group_1111633" data-name="Group 1111633" transform="translate(-5902 6376)">
    <g id="Group_1099341" data-name="Group 1099341" transform="translate(5902 -6376)">
      <g id="Rectangle_402588" data-name="Rectangle 402588" transform="translate(0 0)" fill="#f4c5c5" stroke="#fff" stroke-width="5">
        <rect width="86.369" height="86.369" rx="14" stroke="none"/>
        <rect x="2.5" y="2.5" width="81.369" height="81.369" rx="11.5" fill="none"/>
      </g>
    </g>
    <g id="Group_1111632" data-name="Group 1111632" transform="translate(5912.001 -6414.609)">
      <path id="Path_900631" data-name="Path 900631" d="M67.307,133.8c0-2.588-3.208-7.892-7.956-9.432-7.042-2.284-19.249,3.657-31.27-.449l-11.55,1.54c0,2.616-6.459,6.6-8.53,7.833a1.018,1.018,0,0,0-.465,1.127l.489,1.956a1.02,1.02,0,0,0,.81.761,21.765,21.765,0,0,0,8.731-.157c4.5,4.19,11.5,7.537,11.5,7.537v16.811l-3.013.753a2.053,2.053,0,0,0-1.45,1.343l-.29.87a.866.866,0,0,0,.822,1.14h3.944a1.894,1.894,0,0,0,1.576-.844l1.108-1.662a3.081,3.081,0,0,0,.484-1.257l2.288-15.44c6.295,3.461,17.023,3.406,24.378.064l4.674,8.872v5.946l-2.491.916a2.053,2.053,0,0,0-1.3,1.3l-.322.966a.866.866,0,0,0,.822,1.14h3.713a1.894,1.894,0,0,0,1.739-1.142l1.222-2.826a4.106,4.106,0,0,0,.337-1.63V152.5a2.012,2.012,0,0,0-.153-.777,24.1,24.1,0,0,1-1.9-8.284C65.253,139.764,67.307,138.659,67.307,133.8Z" transform="translate(-6.545 -58.606)" fill="#6f6571"/>
      <path id="Path_900632" data-name="Path 900632" d="M123.7,139.978l-.263,1.961a1.464,1.464,0,0,0,1.138,1.634,6.44,6.44,0,0,0,5.063-1.022.8.8,0,0,0,.213-1.125,6.294,6.294,0,0,0-4.519-2.721A1.49,1.49,0,0,0,123.7,139.978Z" transform="translate(-107.619 -71.575)" fill="#5d5360"/>
      <path id="Path_900633" data-name="Path 900633" d="M91.343,66.429c-.308-1.569-2.154-4.115-5.967-2.706-.273.1-.465.486,0,.453,1.2-.084,2.453-.093,2.824,1.2.941,3.294-4.748,4.363-7.272,4.577A2.9,2.9,0,0,0,77.975,72.7c-.021.782.777,1.7,2.267,1.853a13.821,13.821,0,0,0,5.461-.693l.014-.005C87.642,73.123,92.113,70.348,91.343,66.429Z" transform="translate(-67.989 -5.846)" fill="#c9c6ca"/>
      <g id="Group_1111630" data-name="Group 1111630" transform="translate(17.721 102.504)">
        <path id="Path_900634" data-name="Path 900634" d="M139.237,420.719h3.944a1.894,1.894,0,0,0,1.576-.844l1.108-1.662-2.7-1.6-3.013.753a2.053,2.053,0,0,0-1.45,1.343l-.29.87A.867.867,0,0,0,139.237,420.719Z" transform="translate(-138.37 -416.399)" fill="#4b3f4e"/>
        <path id="Path_900635" data-name="Path 900635" d="M417.06,414.942l-2.491.916a2.053,2.053,0,0,0-1.3,1.3l-.322.966a.866.866,0,0,0,.822,1.14h3.713a1.9,1.9,0,0,0,1.739-1.142l.691-1.6Z" transform="translate(-377.741 -414.942)" fill="#4b3f4e"/>
      </g>
      <g id="Group_1111631" data-name="Group 1111631" transform="translate(0.96 73.052)">
        <path id="Path_900636" data-name="Path 900636" d="M86.059,223.423c4.5,4.19,11.5,7.537,11.5,7.537v-2.4a2.053,2.053,0,0,0-1.093-1.815l-6.232-3.3a4.084,4.084,0,0,0-2.989-.335C86.915,223.2,86.523,223.306,86.059,223.423Z" transform="translate(-75.998 -218.106)" fill="#5d5360"/>
        <path id="Path_900637" data-name="Path 900637" d="M218.8,274.874l-.271,1.575c6.295,3.461,17.023,3.406,24.378.064l-.667-1.812a2.044,2.044,0,0,0-2.307-1.307,51.848,51.848,0,0,1-18.747-.188A2.053,2.053,0,0,0,218.8,274.874Z" transform="translate(-191.5 -261.879)" fill="#5d5360"/>
        <path id="Path_900638" data-name="Path 900638" d="M8,186.623a1.018,1.018,0,0,0-.465,1.127l.489,1.956a1.02,1.02,0,0,0,.81.761,25.387,25.387,0,0,0,4.877.366,12.254,12.254,0,0,0-3.127-5.841C9.537,185.694,8.59,186.271,8,186.623Z" transform="translate(-7.505 -184.993)" fill="#5d5360"/>
      </g>
      <path id="Path_900639" data-name="Path 900639" d="M65.3,90.394c-.115-.119-2.8-2.965-1.053-8.4,1.664-5.174,1.131-9.765-1.462-12.6a6.277,6.277,0,0,0-5.573-2.158A11.184,11.184,0,0,0,53.1,64.745c-3.276-1.063-7.36-.5-12.088.143-5.508.754-11.712,1.6-17.714-.113a5.839,5.839,0,0,0,1-4.476,4.614,4.614,0,0,0-2.581-3.238c-2.378-1.089-5.181,0-7.114,1.1a.961.961,0,0,0,.9,1.7c.954-.468,2.639-.975,3.4-.637a.657.657,0,0,1,.383.48,1.25,1.25,0,0,1-.162,1.143c-.851,1.234-3.761,2-6.268,2.213a3.848,3.848,0,0,0-3.831,3.669s0,.008,0,.012,0,.01,0,.014c0,1.012-2.111,3.454-8.062,7.008a1.972,1.972,0,0,0-.9,2.185L.548,77.9a1.985,1.985,0,0,0,1.575,1.474,26.49,26.49,0,0,0,4.469.391,18.816,18.816,0,0,0,4.056-.41A47.2,47.2,0,0,0,21.559,86.42v15.447l-2.286.571a3,3,0,0,0-2.128,1.971l-.67,2.011a.961.961,0,0,0,.911,1.264h6.16a.96.96,0,0,0,.8-.428l1.67-2.506a4.066,4.066,0,0,0,.635-1.649l2.1-14.163a24.427,24.427,0,0,0,10.924,2.388,29.885,29.885,0,0,0,12.211-2.6l4.2,7.964v5.038l-1.849.68a3.028,3.028,0,0,0-1.891,1.9l-.7,2.106a.961.961,0,0,0,.911,1.264h6.16a.961.961,0,0,0,.882-.579l1.716-3.968a5.038,5.038,0,0,0,.416-2.011V93.378a.966.966,0,0,0-.085-.4,23.943,23.943,0,0,1-1.968-8.245,8.709,8.709,0,0,1,.888-3.619,12.476,12.476,0,0,0,1.164-6.078A12.164,12.164,0,0,0,59.3,69.62c-.1-.134-.2-.273-.308-.413a4.975,4.975,0,0,1,2.371,1.487c1,1.092,3.105,4.323,1.05,10.711-2.123,6.6,1.369,10.192,1.518,10.342A.961.961,0,1,0,65.3,90.394ZM59.8,75.142a10.56,10.56,0,0,1-1.022,5.244,10.53,10.53,0,0,0-1.033,4.352A25.161,25.161,0,0,0,59.8,93.579v7.547a3.128,3.128,0,0,1-.258,1.249l-1.465,3.389h-4.2l.281-.842a1.1,1.1,0,0,1,.691-.691l.028-.01,2.491-.916a.961.961,0,0,0,.629-.9V96.458a.961.961,0,0,0-.111-.448l-6.636-12.6a.961.961,0,0,0-1.7.9l1.433,2.721a28.236,28.236,0,0,1-11.243,2.363h-.087a22.137,22.137,0,0,1-10.61-2.471l.24-1.617a.961.961,0,0,0-1.9-.282l-2.637,17.8a2.133,2.133,0,0,1-.333.865l-1.385,2.078H18.719l.249-.746a1.088,1.088,0,0,1,.772-.715l3.013-.753a.961.961,0,0,0,.728-.932V85.807a.961.961,0,0,0-.57-.878,49.265,49.265,0,0,1-10.128-6.25,8.888,8.888,0,0,0,2.094-1.235.961.961,0,0,0-1.2-1.5c-3.415,2.745-9.941,1.759-11.214,1.534a.06.06,0,0,1-.046-.048l-.489-1.956a.06.06,0,0,1,.025-.07,49.064,49.064,0,0,0,5.144-3.469A14.529,14.529,0,0,0,10.225,68.8a5.037,5.037,0,0,0,1.835.74.961.961,0,1,0,.386-1.882c-1.058-.216-1.5-.692-1.5-.886.041-1.517,1.6-1.766,2.073-1.806,1.393-.118,6.065-.686,7.687-3.036a3.178,3.178,0,0,0,.428-2.762,3.051,3.051,0,0,0-.106-.309,2.659,2.659,0,0,1,1.384,1.807c.674,3.432-3.79,5.872-5.022,6.337-.431.163-.862.3-1.279.414a.961.961,0,0,0,.5,1.856c.478-.128.97-.287,1.46-.473.22-.083.468-.19.734-.319a6.258,6.258,0,0,1,2.362,2.1,10.984,10.984,0,0,1-5.073.365.961.961,0,0,0-.426,1.873,10.249,10.249,0,0,0,2.12.194A13.377,13.377,0,0,0,22.888,72a.961.961,0,0,0,.541-1.2,7.653,7.653,0,0,0-2.756-3.424,12.126,12.126,0,0,0,1.254-1.014c6.659,2.161,13.4,1.242,19.347.428,4.495-.615,8.377-1.146,11.235-.219C56.7,67.93,59.706,73.321,59.8,75.142Z" transform="translate(0 0)"/>
      <circle id="Ellipse_11616" data-name="Ellipse 11616" cx="0.961" cy="0.961" r="0.961" transform="translate(10.256 70.844)"/>
    </g>
  </g>
</svg>
