<svg xmlns="http://www.w3.org/2000/svg" width="86.369" height="86.369" viewBox="0 0 86.369 86.369">
  <g id="Group_1111564" data-name="Group 1111564" transform="translate(11680.5 11902.35)">
    <g id="Group_1099347" data-name="Group 1099347" transform="translate(-11585.5 -12119)">
      <g id="Group_1099341" data-name="Group 1099341" transform="translate(-95 216.65)">
        <g id="Rectangle_402588" data-name="Rectangle 402588" transform="translate(0 0)" fill="#f4c5c5" stroke="#fff" stroke-width="5">
          <rect width="86.369" height="86.369" rx="14" stroke="none"/>
          <rect x="2.5" y="2.5" width="81.369" height="81.369" rx="11.5" fill="none"/>
        </g>
      </g>
      <g id="Group_1111570" data-name="Group 1111570" transform="translate(-80.73 190.463)">
        <g id="Group_1111570-2" data-name="Group 1111570" transform="translate(0.847 46.457)">
          <path id="Path_900455" data-name="Path 900455" d="M370.491,110.757c3.479,0,7.2-1.767,8.618-4.291a8.52,8.52,0,0,0,.765-3.554,3.255,3.255,0,0,0-3.417-3.493c-4.024,0-9.763,2.569-12.452,3.892l1.84,7.135A21.134,21.134,0,0,0,370.491,110.757Z" transform="translate(-323.739 -94.19)" fill="#c38778"/>
          <path id="Path_900456" data-name="Path 900456" d="M22.825,110.718a30.911,30.911,0,0,0,7.907-1.2l1.234-5.435H30.732S22.2,99.419,16.78,99.419a4.013,4.013,0,0,0-1.038.131,4.435,4.435,0,0,0-1.632,3.35C14.11,107.013,17.43,110.718,22.825,110.718Z" transform="translate(-13.363 -94.189)" fill="#c38778"/>
          <path id="Path_900457" data-name="Path 900457" d="M54.252,111a21.128,21.128,0,0,1-4.645-.31s-.769-3.131-1.84-6.344c-.933.459-1.5.769-1.5.769H26.1l-2.089,5.237a46.548,46.548,0,0,1-7.13.649c-4.76,0-7.689-3.343-7.689-7.054a6.97,6.97,0,0,1,.684-3.361A3.237,3.237,0,0,0,7.5,103.946c0,4.916,4.021,8.748,9.384,8.748a31.461,31.461,0,0,0,6-.536H48.252a31.462,31.462,0,0,0,6,.536,9.234,9.234,0,0,0,8.618-5.194C61,109.732,57.732,111,54.252,111Z" transform="translate(-7.5 -95.222)" fill="#8c5e5e"/>
          <path id="Path_900458" data-name="Path 900458" d="M160.232,140.685H140.527s-4.551,11.46-4.551,17.616c0,5.51,4.693,9.867,4.693,9.867l2.259,4c.334,2.657,1.83,3.439,3.452,3.439h7.144c1.276,0,2.177-1.006,2.768-1.343a5.667,5.667,0,0,0,.376-1.029l.075-5.292,3.451-.63a13.747,13.747,0,0,0,3.8-9.015C163.993,152.145,160.232,140.685,160.232,140.685Z" transform="translate(-121.465 -130.794)" fill="#c38778"/>
          <path id="Path_900459" data-name="Path 900459" d="M153.1,167.316c-.631-2.07-1.657-4.48-2.394-5.217a30.247,30.247,0,0,1-2.395-11.576c0-5.542,1.264-7.854,1.264-7.854h-3.716L134.363,167.49s-4.693-3.679-4.693-9.189c0-6.156,3.761-17.616,3.761-17.616h-1.694s-3.761,11.46-3.761,17.616,5.033,10.218,5.033,10.218l2.292,4.719s.777,3.389,3.626,3.389h7.018a3.651,3.651,0,0,0,3.25-2.36,5.5,5.5,0,0,1-2.768.666h-7.144c-1.622,0-2.327-.782-2.661-3.439,0,0,10.228-.589,14.7-1.868l.537-1.106A12.451,12.451,0,0,0,153.1,167.316Z" transform="translate(-114.368 -130.794)" fill="#8c5e5e"/>
          <path id="Path_900460" data-name="Path 900460" d="M114.886,53.9a1.249,1.249,0,0,0-.986-.7c-2.627,4.537.04,8.479,4.99,8.479l1.36-3.452A7.937,7.937,0,0,1,114.886,53.9Z" transform="translate(-100.969 -53.185)" fill="#fff0af"/>
          <path id="Path_900461" data-name="Path 900461" d="M108.385,53.124a1.236,1.236,0,0,0-1.366.935c-1.492,5.962,1.815,7.78,5.8,8.947l.553-1.4C109.344,60.39,107.047,58.368,108.385,53.124Z" transform="translate(-95.454 -53.115)" fill="#ffd064"/>
          <path id="Path_900462" data-name="Path 900462" d="M355.205,54.058a1.259,1.259,0,0,0-2.353-.233,7.591,7.591,0,0,1-3.62,3.664,36.37,36.37,0,0,0,.665,4.453c2.129-.817,4.507-2.028,5.6-4.175A9.5,9.5,0,0,0,355.205,54.058Z" transform="translate(-310.633 -53.114)" fill="#fff0af"/>
          <path id="Path_900463" data-name="Path 900463" d="M335.539,91.851a11.125,11.125,0,0,1-1.743.661l1.913,4.855c3-.879,5.622-2.128,6.093-5.238a12.178,12.178,0,0,1-5,3.124A19.881,19.881,0,0,0,335.539,91.851Z" transform="translate(-296.941 -87.476)" fill="#ffd064"/>
          <path id="Path_900464" data-name="Path 900464" d="M192.159,88.214l-.959-3.1a5.083,5.083,0,0,0-4.856-3.581h-9.77a5.074,5.074,0,0,0-1.353.184,5.154,5.154,0,0,0-2.6,3.4l-.654,2.115s6.217,2.272,6.217,10.823a39.327,39.327,0,0,1-2.021,12.478h12.285a29.745,29.745,0,0,1-2.811-12.478C185.638,89.5,192.159,88.214,192.159,88.214Z" transform="translate(-153.391 -78.323)" fill="#f5fcff"/>
          <path id="Path_900465" data-name="Path 900465" d="M163.268,88.674l.654-2.115a6.491,6.491,0,0,1,1.809-3.4,5.083,5.083,0,0,0-3.5,3.4l-.959,3.1s6.521,1.287,6.521,9.837a29.745,29.745,0,0,1-2.811,12.478h1.694A29.745,29.745,0,0,0,169.485,99.5C169.485,90.946,163.268,88.674,163.268,88.674Z" transform="translate(-143.901 -79.768)" fill="#d8e2f3"/>
          <path id="Path_900466" data-name="Path 900466" d="M193.6,327.207c-1.484-1.484-8.187-1.794-11.856-.931-1.726.931-3.969,5.441-3.969,8.5a1.564,1.564,0,0,0,1.7,1.762h14.27a3.311,3.311,0,0,0,2.545-1.414c.012-.129.02-.261.02-.4C196.309,332.513,194.762,328.371,193.6,327.207Z" transform="translate(-158.541 -295)" fill="#ffcdbe"/>
          <path id="Path_900467" data-name="Path 900467" d="M172.684,339.487c-.5,0-.91-.145-.91-.971,0-3.061,1.662-7.036,3.179-8.5a4.65,4.65,0,0,0-2.123.931c-1.164,1.164-2.711,5.307-2.711,7.521a2.408,2.408,0,0,0,2.565,2.716h14.27a2.342,2.342,0,0,0,2.545-2.317,4.914,4.914,0,0,1-2.545.623Z" transform="translate(-151.751 -298.737)" fill="#ebae9d"/>
        </g>
        <g id="Group_1111571" data-name="Group 1111571" transform="translate(0 45.609)">
          <path id="Path_900468" data-name="Path 900468" d="M32.424,93.136H25.406c-2.687,0-3.864-2.354-4.262-3.433a3.216,3.216,0,0,1-2.777-3.519,9.059,9.059,0,0,1,.191-1.692c-1.272-1.175-4.951-5.048-4.951-10.528a45.318,45.318,0,0,1,1.452-9.517,35.431,35.431,0,0,1-4.829.329.847.847,0,1,1,0-1.694,32.739,32.739,0,0,0,5.273-.416c.646-2.5,1.294-4.639,1.645-5.759a11.208,11.208,0,0,1-3.77-1.925c-3.768-1.6-6.918-2.446-9.114-2.446A2.42,2.42,0,0,0,1.695,55.18a7.785,7.785,0,0,0,5.639,7.466.847.847,0,0,1-.509,1.616A9.451,9.451,0,0,1,0,55.18a4.116,4.116,0,0,1,4.264-4.34,22.375,22.375,0,0,1,7.321,1.609,8.981,8.981,0,0,1,.005-5.253A2.074,2.074,0,0,1,13.4,45.622a2.1,2.1,0,0,1,2.128,1.17,6.933,6.933,0,0,0,4.34,3.729,5.907,5.907,0,0,1,4.166-1.7h4.93a.847.847,0,1,1,0,1.694H24.03A4.215,4.215,0,0,0,19.984,53.5l-.708,2.288a9.484,9.484,0,0,1,5.9,6.85.847.847,0,1,1-1.643.414,7.882,7.882,0,0,0-4.76-5.644C17.932,60.092,15.3,68.935,15.3,73.963a13.106,13.106,0,0,0,3.75,8.625,13.419,13.419,0,0,1,2.171-4.416A29.353,29.353,0,0,0,23.89,66.185a.847.847,0,0,1,1.694,0,31.066,31.066,0,0,1-2.007,10.787,19.283,19.283,0,0,1,3.595-.512.847.847,0,1,1,.1,1.691c-2.654.158-4.287.666-4.739,1.1l-.021.021c-.973.991-2.451,4.851-2.451,6.91,0,1.258.562,1.869,1.718,1.869H36.05c1.156,0,1.718-.611,1.718-1.869,0-2.059-1.479-5.919-2.451-6.91l-.021-.021c-.452-.436-2.086-.943-4.739-1.1a.847.847,0,1,1,.1-1.691,19.294,19.294,0,0,1,3.6.512,31.066,31.066,0,0,1-2.007-10.787c0-4.74,1.935-7.385,3.558-8.77a9.331,9.331,0,0,1,2.751-1.627L37.847,53.5A4.215,4.215,0,0,0,33.8,50.513H32.349a.847.847,0,0,1,0-1.694H33.8a5.907,5.907,0,0,1,4.166,1.7,6.933,6.933,0,0,0,4.34-3.729,2.1,2.1,0,0,1,2.128-1.17,2.074,2.074,0,0,1,1.806,1.573,8.981,8.981,0,0,1,.005,5.253,22.376,22.376,0,0,1,7.321-1.609,4.116,4.116,0,0,1,4.264,4.34,9.451,9.451,0,0,1-6.824,9.082.847.847,0,0,1-.509-1.616,7.784,7.784,0,0,0,5.639-7.466,2.42,2.42,0,0,0-2.569-2.646c-2.2,0-5.346.846-9.114,2.446a11.21,11.21,0,0,1-3.77,1.925c.351,1.12,1,3.258,1.645,5.759a32.753,32.753,0,0,0,5.273.416.847.847,0,0,1,0,1.694,35.428,35.428,0,0,1-4.829-.329,45.318,45.318,0,0,1,1.452,9.517c0,5.481-3.679,9.353-4.951,10.528a9.06,9.06,0,0,1,.191,1.692A3.217,3.217,0,0,1,36.686,89.7c-.4,1.079-1.575,3.433-4.262,3.433Zm-9.417-3.388a2.743,2.743,0,0,0,2.4,1.694h7.018a2.743,2.743,0,0,0,2.4-1.694Zm13.6-11.575a13.417,13.417,0,0,1,2.172,4.417,13.106,13.106,0,0,0,3.75-8.625c0-5.031-2.633-13.882-3.468-16.562-1.566.6-5.12,2.642-5.12,8.783a29.238,29.238,0,0,0,2.666,11.987Zm2.418-26.234A6.015,6.015,0,0,1,39.465,53l.709,2.291c3.726-1.229,5.591-3.015,4.423-7.681a.377.377,0,0,0-.344-.3.411.411,0,0,0-.428.237,8.486,8.486,0,0,1-4.8,4.4ZM13.626,47.3c-.019,0-.036,0-.05,0a.377.377,0,0,0-.344.3c-1.167,4.667.7,6.452,4.423,7.681L18.365,53a6.018,6.018,0,0,1,.441-1.058,8.486,8.486,0,0,1-4.8-4.395.4.4,0,0,0-.379-.24ZM32.121,85.029a.847.847,0,0,1-.6-1.441,4.553,4.553,0,0,0,1.327-2.368.847.847,0,0,1,1.694,0c0,1.667-1.627,3.367-1.813,3.556A.844.844,0,0,1,32.121,85.029Zm-6.413,0a.843.843,0,0,1-.6-.253c-.186-.188-1.813-1.889-1.813-3.556a.847.847,0,0,1,1.694,0,4.553,4.553,0,0,0,1.327,2.368.847.847,0,0,1-.605,1.44ZM38.2,70.54a.847.847,0,0,1-.847-.847V66.331a.847.847,0,0,1,1.694,0v3.362A.847.847,0,0,1,38.2,70.54Zm-18.572,0a.847.847,0,0,1-.847-.847V66.331a.847.847,0,0,1,1.694,0v3.362A.847.847,0,0,1,19.629,70.54ZM33.908,57.195a8.026,8.026,0,0,1-5.437-2.85.847.847,0,0,1,1.342-1.034,6.373,6.373,0,0,0,4.1,2.19.847.847,0,0,1,0,1.694Zm-6.664,0a8.026,8.026,0,0,1-5.437-2.85.847.847,0,0,1,1.342-1.034,6.373,6.373,0,0,0,4.1,2.19.847.847,0,0,1,0,1.694Z" transform="translate(0 -45.609)"/>
        </g>
      </g>
    </g>
  </g>
</svg>
