<svg xmlns="http://www.w3.org/2000/svg" width="62.865" height="62.865" viewBox="0 0 62.865 62.865">
  <g id="Group_1111431" data-name="Group 1111431" transform="translate(-768.15 -2830)">
    <g id="Group_1099341" data-name="Group 1099341" transform="translate(768.15 2830)">
      <g id="Rectangle_402588" data-name="Rectangle 402588" transform="translate(0 0)" fill="#efd026" stroke="#fff" stroke-width="5">
        <rect width="62.865" height="62.865" rx="14" stroke="none"/>
        <rect x="2.5" y="2.5" width="57.865" height="57.865" rx="11.5" fill="none"/>
      </g>
    </g>
    <g id="Group_1111430" data-name="Group 1111430" transform="translate(751.292 2841.001)">
      <g id="Group_1111429" data-name="Group 1111429" transform="translate(32.99 9.477)">
        <g id="Group_1111426" data-name="Group 1111426" transform="translate(0 18.102)">
          <path id="Path_900221" data-name="Path 900221" d="M85.048,351.966l2.012,7.51a12.535,12.535,0,0,1,1.326-.985,4.142,4.142,0,0,1,1.474-.641,3.81,3.81,0,0,1,1.707.044h0l4.085.936a3.493,3.493,0,0,0,2.631-.346l10.215-5.9a1.914,1.914,0,0,0-1.914-3.315l-7.113,4.107.015-.054a2.125,2.125,0,0,0-1.487-2.6l-7.131-1.941a3.35,3.35,0,0,0-2.564.684Z" transform="translate(-83.037 -348.753)" fill="#ffd6bd" fill-rule="evenodd"/>
          <path id="Path_900222" data-name="Path 900222" d="M185.494,402.027a2.126,2.126,0,0,0,2.42-1.04,2.1,2.1,0,0,1-.073.491,2.122,2.122,0,0,1-2.6,1.487c-1.388-.379-2.778-.744-4.168-1.117a.487.487,0,1,1,.252-.941C182.714,401.279,184.1,401.649,185.494,402.027Z" transform="translate(-171.39 -396.905)" fill="#f9c6aa" fill-rule="evenodd"/>
          <path id="Path_900223" data-name="Path 900223" d="M107.43,372.125l.3,1.125a12.532,12.532,0,0,1,1.326-.985,4.142,4.142,0,0,1,1.474-.641,3.811,3.811,0,0,1,1.707.044h0l4.085.936a3.493,3.493,0,0,0,2.631-.346l10.215-5.9a1.919,1.919,0,0,0,.7-2.614q-.024-.041-.049-.08a1.916,1.916,0,0,1-.953,1.569l-10.215,5.9a3.493,3.493,0,0,1-2.631.346l-4.085-.936h0a3.811,3.811,0,0,0-1.707-.044,4.14,4.14,0,0,0-1.474.641A12.532,12.532,0,0,0,107.43,372.125Z" transform="translate(-103.708 -362.528)" fill="#f9c6aa" fill-rule="evenodd"/>
          <path id="Path_900224" data-name="Path 900224" d="M61.261,366.2l2.46,9.18a.423.423,0,0,1-.3.516l-1.7.455a.423.423,0,0,1-.516-.3l-2.46-9.18a.423.423,0,0,1,.3-.516l1.7-.455A.423.423,0,0,1,61.261,366.2Z" transform="translate(-58.736 -364.577)" fill="#64b5f6" fill-rule="evenodd"/>
          <path id="Path_900225" data-name="Path 900225" d="M61.261,366.2l.029.107-1.589.426a.423.423,0,0,0-.3.516l2.431,9.074-.108.029a.423.423,0,0,1-.516-.3l-2.46-9.18a.423.423,0,0,1,.3-.516l1.7-.455A.423.423,0,0,1,61.261,366.2Z" transform="translate(-58.736 -364.577)" fill="#42a5f5" fill-rule="evenodd"/>
        </g>
        <g id="Group_1111428" data-name="Group 1111428" transform="translate(6.349)">
          <circle id="Ellipse_11594" data-name="Ellipse 11594" cx="8.729" cy="8.729" r="8.729" fill="#fdb800"/>
          <path id="Path_900226" data-name="Path 900226" d="M181.346,139.162a8.729,8.729,0,1,1-12.3,12.3,8.729,8.729,0,0,0,12.3-12.3Z" transform="translate(-166.958 -137.079)" fill="#f4a40e" fill-rule="evenodd"/>
          <ellipse id="Ellipse_11595" data-name="Ellipse 11595" cx="6.093" cy="6.093" rx="6.093" ry="6.093" transform="translate(2.452 14.62) rotate(-88.224)" fill="#ffda2d"/>
          <g id="Group_1111427" data-name="Group 1111427" transform="translate(2.637 2.636)">
            <path id="Path_900227" data-name="Path 900227" d="M182.381,146.408a6.076,6.076,0,0,1,4.461,1.944,6.093,6.093,0,0,0-8.071,9.057,6.093,6.093,0,0,1,3.61-11Z" transform="translate(-176.288 -146.408)" fill="#ffc700" fill-rule="evenodd"/>
            <path id="Path_900228" data-name="Path 900228" d="M224.388,178.19a.611.611,0,0,1,1.223,0v.507a1.907,1.907,0,0,1,1.169.747.611.611,0,1,1-.989.717.672.672,0,0,0-.235-.205.651.651,0,0,0-.3-.07h-.4a.657.657,0,0,0,0,1.315h.284a1.881,1.881,0,0,1,.47,3.7v.532a.611.611,0,0,1-1.223,0v-.507a1.908,1.908,0,0,1-1.169-.747.611.611,0,1,1,.989-.717.672.672,0,0,0,.235.205.651.651,0,0,0,.3.07h.4a.657.657,0,0,0,0-1.314h-.284a1.881,1.881,0,0,1-.47-3.7Z" transform="translate(-219.408 -175.196)" fill="#ffc700" fill-rule="evenodd"/>
          </g>
        </g>
      </g>
      <path id="Path_900229" data-name="Path 900229" d="M46.047,16.939a1.883,1.883,0,0,1,1.41-1.821v-.532a.612.612,0,1,1,1.223,0v.507a1.888,1.888,0,0,1,1.17.747.612.612,0,1,1-.991.716.659.659,0,0,0-.533-.275h-.4a.657.657,0,1,0,0,1.314h.284a1.88,1.88,0,0,1,.469,3.7v.532a.612.612,0,0,1-1.223,0v-.507a1.9,1.9,0,0,1-1.17-.747.612.612,0,0,1,.991-.717.66.66,0,0,0,.533.275h.4a.657.657,0,0,0,0-1.315h-.284a1.882,1.882,0,0,1-1.88-1.88Zm2.022-4.213a5.481,5.481,0,1,0,5.481,5.481,5.488,5.488,0,0,0-5.481-5.481Zm0,12.186a6.7,6.7,0,1,0-6.7-6.7A6.711,6.711,0,0,0,48.068,24.912Zm0-14.822a8.118,8.118,0,1,0,8.118,8.118,8.127,8.127,0,0,0-8.118-8.118Zm0,17.458a9.341,9.341,0,1,0-9.341-9.341A9.351,9.351,0,0,0,48.068,27.549Zm17.208-9.341a.618.618,0,0,1-.205.46L63.69,19.875a.611.611,0,1,1-.8-.92l.155-.135H59.984a.611.611,0,0,1,0-1.223h3.057l-.155-.135a.611.611,0,1,1,.8-.92l1.381,1.207a.618.618,0,0,1,.205.46Zm-9.214-7.993a.61.61,0,0,1,0-.864l2.16-2.16-.2.014a.612.612,0,0,1-.081-1.221l1.828-.121a.611.611,0,0,1,.651.65L60.293,8.34a.611.611,0,0,1-.609.571h-.041a.611.611,0,0,1-.569-.651l.014-.2-2.161,2.16a.611.611,0,0,1-.865,0Zm-23.615,9.66-1.379-1.207a.612.612,0,0,1,0-.92l1.379-1.207a.611.611,0,0,1,.805.92L33.1,17.6h3.056a.611.611,0,0,1,0,1.223H33.1l.155.135a.611.611,0,0,1-.4,1.071.605.605,0,0,1-.4-.151ZM35.722,6.512a.612.612,0,0,1,.651-.65l1.828.121A.612.612,0,0,1,38.119,7.2l-.2-.014,2.161,2.16a.612.612,0,0,1-.865.865l-2.16-2.16.013.2a.611.611,0,0,1-.569.651h-.042a.612.612,0,0,1-.609-.571ZM46.4,2.586l1.207-1.378a.612.612,0,0,1,.92,0l1.207,1.378a.612.612,0,0,1-.92.806l-.135-.154V6.293a.612.612,0,0,1-1.223,0V3.237l-.135.154a.612.612,0,0,1-.92-.806Zm11.4,28.407L47.727,36.811a2.845,2.845,0,0,1-2.153.275l-4.029-.924a4.323,4.323,0,0,0-3.451.57L36.4,30.39l2.046-1.567a2.289,2.289,0,0,1,2-.571l7.035,1.915a1.477,1.477,0,0,1-.776,2.85L42.94,31.994a.611.611,0,1,0-.321,1.18L46.377,34.2a2.7,2.7,0,0,0,3.094-1.341l7.057-4.074a1.283,1.283,0,0,1,1.744.467A1.278,1.278,0,0,1,57.805,30.993ZM35.972,38.714l1.3-.347-2.326-8.679-1.3.347ZM57.813,27.476a2.5,2.5,0,0,1,.6,4.576L48.339,37.87a3.912,3.912,0,0,1-1.986.532,4.7,4.7,0,0,1-1.052-.124l-4.03-.924a3.2,3.2,0,0,0-2.842.627l.07.258a1.029,1.029,0,0,1-.726,1.258l-1.675.448a1.026,1.026,0,0,1-1.258-.726l-2.426-9.057A1.029,1.029,0,0,1,33.14,28.9l1.674-.448a1.027,1.027,0,0,1,1.236.659L37.7,27.851a3.482,3.482,0,0,1,3.062-.78L47.8,28.986a2.7,2.7,0,0,1,1.971,2.288l6.15-3.551a2.48,2.48,0,0,1,1.9-.247Z" fill-rule="evenodd"/>
    </g>
  </g>
</svg>
