<svg xmlns="http://www.w3.org/2000/svg" width="62.865" height="62.865" viewBox="0 0 62.865 62.865">
  <g id="Group_1111425" data-name="Group 1111425" transform="translate(-525.15 -2830)">
    <g id="Group_1099341" data-name="Group 1099341" transform="translate(525.15 2830)">
      <g id="Rectangle_402588" data-name="Rectangle 402588" transform="translate(0 0)" fill="#efd026" stroke="#fff" stroke-width="5">
        <rect width="62.865" height="62.865" rx="14" stroke="none"/>
        <rect x="2.5" y="2.5" width="57.865" height="57.865" rx="11.5" fill="none"/>
      </g>
    </g>
    <g id="Group_1111424" data-name="Group 1111424" transform="translate(537.15 2842.999)">
      <g id="Group_1111422" data-name="Group 1111422" transform="translate(7.205 0.729)">
        <path id="Path_900214" data-name="Path 900214" d="M102.857,356.17l-1.3,1.3A1.806,1.806,0,0,1,99,354.916l1.3-1.3Z" transform="translate(-98.474 -328.472)" fill="#ff9eb1"/>
        <path id="Path_900215" data-name="Path 900215" d="M0,0H8.948V3.612H0Z" transform="translate(23.195 0) rotate(45)" fill="#a0c8ff"/>
        <path id="Path_900216" data-name="Path 900216" d="M236.211,95.187l-6.327-6.327-1.869,1.87-4.656,4.656-1.9,1.9,6.327,6.327,2.876-2.876Z" transform="translate(-212.457 -83.087)" fill="#dfedff"/>
        <path id="Path_900217" data-name="Path 900217" d="M120.66,210.235a4.477,4.477,0,0,0-1.009,4.78l2.556,2.556a4.472,4.472,0,0,0,4.78-1.009l1.153-1.153,5.007-5.007-6.327-6.327Z" transform="translate(-117.823 -189.872)" fill="#ff9eb1"/>
        <path id="Path_900218" data-name="Path 900218" d="M0,0H4.548V2.927H0Z" transform="translate(19.553 7.904) rotate(-45)" fill="#a0c8ff"/>
        <circle id="Ellipse_11591" data-name="Ellipse 11591" cx="6.648" cy="6.648" r="6.648" transform="translate(10.174 17.51)" fill="#fff2a0"/>
      </g>
      <g id="Group_1111423" data-name="Group 1111423" transform="translate(0 0.001)">
        <path id="Path_900219" data-name="Path 900219" d="M37.247,6.542,30.92.215a.732.732,0,0,0-1.035,0L27.331,2.769a.732.732,0,0,0,0,1.035l1.611,1.611L26.761,7.6l-3.3-3.3a.732.732,0,1,0-1.035,1.035L23.6,6.5,22.245,7.855A.732.732,0,0,0,23.28,8.89l1.352-1.352,5.293,5.293-1.648,1.648-1.743-1.743A.732.732,0,1,0,25.5,13.769l1.743,1.743L25.4,17.351,23.66,15.608a.732.732,0,0,0-1.035,1.035l.884.884a7.325,7.325,0,0,0-2.87.807l-3.4-3.4,1.386-1.386a.732.732,0,0,0-1.035-1.035L9.526,20.575a5.211,5.211,0,0,0-1.328,5.1l-.981.981a2.541,2.541,0,0,0-.442,3l-6.56,6.56a.732.732,0,1,0,1.035,1.035l6.56-6.56a2.541,2.541,0,0,0,3-.442l.981-.981a5.206,5.206,0,0,0,5.1-1.328l.294-.294a7.38,7.38,0,1,0,9.6-9.6l4.177-4.177,1.167,1.167A.732.732,0,1,0,33.161,14l-3.3-3.3L32.046,8.52l1.611,1.611a.732.732,0,0,0,1.035,0l2.554-2.554a.731.731,0,0,0,0-1.035ZM9.011,29.525a1.067,1.067,0,0,1-.76-.315,1.08,1.08,0,0,1,0-1.519l.783-.783,1.52,1.52-.783.783a1.067,1.067,0,0,1-.76.315ZM11.993,27.8,9.665,25.469a3.746,3.746,0,0,1,.895-3.859L16.2,15.967l3.186,3.186a7.371,7.371,0,0,0-2.67,6.754L15.04,24.228A.732.732,0,0,0,14,25.263L15.746,27a3.743,3.743,0,0,1-3.753.793Zm17.952-2.909a5.917,5.917,0,1,1-5.917-5.917A5.923,5.923,0,0,1,29.945,24.888ZM28.831,9.666,27.8,8.631,29.977,6.45l1.035,1.035Zm5.345-1.087L28.883,3.287,30.4,1.767l5.292,5.292Z" transform="translate(0 -0.001)"/>
        <circle id="Ellipse_11592" data-name="Ellipse 11592" cx="0.732" cy="0.732" r="0.732" transform="translate(19.703 9.968)"/>
        <path id="Path_900220" data-name="Path 900220" d="M318.4,285.876v3.658a.732.732,0,1,0,1.463,0v-3.658a.732.732,0,1,0-1.463,0Z" transform="translate(-295.104 -264.281)"/>
        <circle id="Ellipse_11593" data-name="Ellipse 11593" cx="0.732" cy="0.732" r="0.732" transform="translate(23.296 27.448)"/>
      </g>
    </g>
  </g>
</svg>
