<svg xmlns="http://www.w3.org/2000/svg" width="90" height="90" viewBox="0 0 90 90">
  <g id="Group_1111411" data-name="Group 1111411" transform="translate(-195.15 -4513)">
    <circle id="Ellipse_11588" data-name="Ellipse 11588" cx="45" cy="45" r="45" transform="translate(195.15 4513)" fill="#0a3adb"/>
    <g id="Group_1111410" data-name="Group 1111410" transform="translate(209.15 4523.265)">
      <g id="Group_1111408" data-name="Group 1111408" transform="translate(0.911 4.649)">
        <g id="Group_1111387" data-name="Group 1111387" transform="translate(32.733)">
          <path id="Path_900150" data-name="Path 900150" d="M287.013,12.134l-.989,1.493a7.131,7.131,0,0,1-2.183,2.12l-6.924,4.3,8.246,4.194,3.784-4.73a7.427,7.427,0,0,0,1.627-4.64V13.207a1.943,1.943,0,0,0-3.563-1.073Z" transform="translate(-276.918 -11.26)" fill="#ffd15b"/>
        </g>
        <g id="Group_1111388" data-name="Group 1111388" transform="translate(13.992 0)">
          <path id="Path_900151" data-name="Path 900151" d="M129.4,15.747a7.131,7.131,0,0,1-2.183-2.119l-.989-1.493a1.943,1.943,0,0,0-3.563,1.073V14.87a7.427,7.427,0,0,0,1.627,4.64l8.9-1.409Z" transform="translate(-122.663 -11.261)" fill="#ffd15b"/>
        </g>
        <g id="Group_1111389" data-name="Group 1111389" transform="translate(32.733 4.932)">
          <path id="Path_900152" data-name="Path 900152" d="M285.165,59.9l3.777-4.721a14.527,14.527,0,0,0-5.819-3.325l-6.2,3.853Z" transform="translate(-276.919 -51.858)" fill="#ffc344"/>
        </g>
        <g id="Group_1111390" data-name="Group 1111390" transform="translate(15.627 4.932)">
          <path id="Path_900153" data-name="Path 900153" d="M148.142,55.711l-6.2-3.853a14.527,14.527,0,0,0-5.819,3.325L139.9,59.9Z" transform="translate(-136.118 -51.858)" fill="#ffc344"/>
        </g>
        <g id="Group_1111391" data-name="Group 1111391" transform="translate(43.132 10.009)">
          <path id="Path_900154" data-name="Path 900154" d="M362.51,101.571l7.361,2.6a7.463,7.463,0,0,0,7.3-1.332l1.418-1.2a3.3,3.3,0,0,0,0-5.044l-1.418-1.2a7.463,7.463,0,0,0-7.3-1.332l-7.361,2.6Z" transform="translate(-362.51 -93.645)" fill="#f4aa73"/>
        </g>
        <g id="Group_1111392" data-name="Group 1111392" transform="translate(43.132 10.009)">
          <path id="Path_900155" data-name="Path 900155" d="M377.355,98.669l2.406.454a3.284,3.284,0,0,0-1.172-2.522l-1.418-1.2a7.463,7.463,0,0,0-7.3-1.332l-7.361,2.6v3.48l4.468-1.148A23.886,23.886,0,0,1,377.355,98.669Z" transform="translate(-362.51 -93.646)" fill="#919090"/>
        </g>
        <g id="Group_1111393" data-name="Group 1111393" transform="translate(43.132 10.01)">
          <path id="Path_900156" data-name="Path 900156" d="M370.28,95.516l4.08-1.442q.12-.043.242-.081a7.46,7.46,0,0,0-4.732.081l-7.361,2.6v3.48l4.468-1.148.17-.041A4.921,4.921,0,0,1,370.28,95.516Z" transform="translate(-362.509 -93.647)" fill="#848383"/>
        </g>
        <g id="Group_1111394" data-name="Group 1111394" transform="translate(0 10.009)">
          <path id="Path_900157" data-name="Path 900157" d="M24.751,101.571l-7.361,2.6a7.463,7.463,0,0,1-7.3-1.332l-1.418-1.2a3.3,3.3,0,0,1,0-5.044l1.418-1.2a7.463,7.463,0,0,1,7.3-1.332l7.361,2.6Z" transform="translate(-7.5 -93.645)" fill="#f4aa73"/>
        </g>
        <g id="Group_1111395" data-name="Group 1111395" transform="translate(0 10.009)">
          <path id="Path_900158" data-name="Path 900158" d="M9.906,98.669,7.5,99.123A3.284,3.284,0,0,1,8.672,96.6l1.418-1.2a7.463,7.463,0,0,1,7.3-1.332l7.361,2.6v3.48l-4.468-1.148A23.886,23.886,0,0,0,9.906,98.669Z" transform="translate(-7.5 -93.646)" fill="#919090"/>
        </g>
        <g id="Group_1111396" data-name="Group 1111396" transform="translate(0 10.01)">
          <path id="Path_900159" data-name="Path 900159" d="M13.1,96.6l1.418-1.2a7.455,7.455,0,0,1,2.6-1.422,7.463,7.463,0,0,0-7.028,1.422L8.673,96.6A3.284,3.284,0,0,0,7.5,99.126l2.406-.454q1.051-.2,2.112-.3A3.275,3.275,0,0,1,13.1,96.6Z" transform="translate(-7.501 -93.649)" fill="#848383"/>
        </g>
        <g id="Group_1111397" data-name="Group 1111397" transform="translate(11.826 7.07)">
          <path id="Path_900160" data-name="Path 900160" d="M137.435,113.706a19.631,19.631,0,0,1,.846-10.311l1.865-5.132a23.675,23.675,0,0,0,.665-14.028l-1.543-5.951a11.788,11.788,0,0,0-11.41-8.829h-9.308a11.788,11.788,0,0,0-11.41,8.829L105.6,84.235a23.675,23.675,0,0,0,.665,14.028l1.865,5.132a19.632,19.632,0,0,1,.846,10.311,6.886,6.886,0,0,0,6.769,8.151h14.926A6.886,6.886,0,0,0,137.435,113.706Z" transform="translate(-104.837 -69.455)" fill="#f7f5f5"/>
        </g>
        <g id="Group_1111398" data-name="Group 1111398" transform="translate(11.826 7.07)">
          <path id="Path_900161" data-name="Path 900161" d="M112.872,113.706a19.631,19.631,0,0,0-.846-10.311l-1.865-5.132a23.675,23.675,0,0,1-.665-14.028l1.543-5.951a11.788,11.788,0,0,1,11.41-8.829h-3.9a11.788,11.788,0,0,0-11.41,8.829L105.6,84.235a23.675,23.675,0,0,0,.665,14.028l1.865,5.132a19.632,19.632,0,0,1,.846,10.311,6.886,6.886,0,0,0,6.769,8.151h3.9a6.886,6.886,0,0,1-6.769-8.151Z" transform="translate(-104.837 -69.455)" fill="#f0e9e9"/>
        </g>
        <g id="Group_1111399" data-name="Group 1111399" transform="translate(15.84 44.46)">
          <path id="Path_900162" data-name="Path 900162" d="M166.462,384.064l-.013-.068a8.24,8.24,0,0,0-8.088-6.793H146.1A8.24,8.24,0,0,0,138.011,384l-.013.068a6.886,6.886,0,0,0,6.769,8.151h14.926A6.886,6.886,0,0,0,166.462,384.064Z" transform="translate(-137.879 -377.203)" fill="#f4aa73"/>
        </g>
        <g id="Group_1111400" data-name="Group 1111400" transform="translate(15.84 44.46)">
          <path id="Path_900163" data-name="Path 900163" d="M141.318,384.064l.013-.068a8.24,8.24,0,0,1,8.088-6.793H146.1A8.24,8.24,0,0,0,138.011,384l-.013.068a6.886,6.886,0,0,0,6.769,8.151h3.32A6.886,6.886,0,0,1,141.318,384.064Z" transform="translate(-137.879 -377.203)" fill="#ea9f6c"/>
        </g>
        <g id="Group_1111401" data-name="Group 1111401" transform="translate(34.093 8.033)">
          <path id="Path_900164" data-name="Path 900164" d="M301.817,91.2l-1.543-5.951a11.785,11.785,0,0,0-6.745-7.865l-3.99,9.637a18.781,18.781,0,0,0-1.428,7.183V96a11.384,11.384,0,0,0,5.747,9.89l5.841,3.329,1.453-4A23.676,23.676,0,0,0,301.817,91.2Z" transform="translate(-288.111 -77.382)" fill="#919090"/>
        </g>
        <g id="Group_1111402" data-name="Group 1111402" transform="translate(11.826 8.033)">
          <path id="Path_900165" data-name="Path 900165" d="M117.873,87.018l-3.99-9.637a11.785,11.785,0,0,0-6.745,7.865L105.6,91.2a23.675,23.675,0,0,0,.665,14.028l1.452,4,5.841-3.329A11.384,11.384,0,0,0,119.3,96V94.2a18.779,18.779,0,0,0-1.428-7.184Z" transform="translate(-104.837 -77.381)" fill="#919090"/>
        </g>
        <g id="Group_1111403" data-name="Group 1111403" transform="translate(11.826 8.033)">
          <path id="Path_900166" data-name="Path 900166" d="M107.138,85.247,105.594,91.2a23.675,23.675,0,0,0,.665,14.028l1.452,4,3.232-1.842-.783-2.156A23.675,23.675,0,0,1,109.5,91.2l1.543-5.951a11.762,11.762,0,0,1,3.652-5.913l-.808-1.953a11.785,11.785,0,0,0-6.745,7.865Z" transform="translate(-104.836 -77.382)" fill="#848383"/>
        </g>
        <g id="Group_1111404" data-name="Group 1111404" transform="translate(21.831 49.809)">
          <path id="Path_900167" data-name="Path 900167" d="M189.7,421.228a2.52,2.52,0,1,0,2.52,2.52A2.52,2.52,0,0,0,189.7,421.228Z" transform="translate(-187.184 -421.228)" fill="#ea9f6c"/>
        </g>
        <g id="Group_1111405" data-name="Group 1111405" transform="translate(33.512 49.809)">
          <path id="Path_900168" data-name="Path 900168" d="M285.848,421.228a2.52,2.52,0,1,0,2.52,2.52A2.52,2.52,0,0,0,285.848,421.228Z" transform="translate(-283.328 -421.228)" fill="#ea9f6c"/>
        </g>
        <g id="Group_1111406" data-name="Group 1111406" transform="translate(38.178 22.708)">
          <path id="Path_900169" data-name="Path 900169" d="M324.286,198.161a2.553,2.553,0,1,0,2.553,2.553A2.553,2.553,0,0,0,324.286,198.161Z" transform="translate(-321.733 -198.161)" fill="#777272"/>
        </g>
        <g id="Group_1111407" data-name="Group 1111407" transform="translate(17.099 22.708)">
          <path id="Path_900170" data-name="Path 900170" d="M150.794,198.161a2.553,2.553,0,1,0,2.553,2.553A2.553,2.553,0,0,0,150.794,198.161Z" transform="translate(-148.241 -198.161)" fill="#777272"/>
        </g>
      </g>
      <g id="Group_1111409" data-name="Group 1111409" transform="translate(0 3.735)">
        <path id="Path_900171" data-name="Path 900171" d="M60.71,16.918l-1.418-1.2a8.406,8.406,0,0,0-8.192-1.5l-5.084,1.8a12.661,12.661,0,0,0-.846-1.036l1.216-1.52a8.368,8.368,0,0,0,1.827-5.209V6.6A2.854,2.854,0,0,0,42.98,5.02l-.989,1.493a6.173,6.173,0,0,1-1.9,1.849.911.911,0,0,0,.961,1.548,7.987,7.987,0,0,0,2.462-2.39L44.5,6.026a1.032,1.032,0,0,1,1.892.57V8.258a6.539,6.539,0,0,1-1.428,4.07l-1.115,1.394a12.722,12.722,0,0,0-3.073-1.879l0,0,0,0a12.668,12.668,0,0,0-5.009-1.031H26.449c-.136,0-.271,0-.406.009a.919.919,0,0,0-.134-.1l-3.79-2.353a6.176,6.176,0,0,1-1.9-1.849L19.226,5.02A2.854,2.854,0,0,0,13.992,6.6V8.258a8.369,8.369,0,0,0,1.827,5.209l1.216,1.52a12.707,12.707,0,0,0-.846,1.036l-5.084-1.8a8.4,8.4,0,0,0-8.192,1.5L1.5,16.918a4.211,4.211,0,0,0,0,6.437l1.418,1.2a8.4,8.4,0,0,0,8.192,1.5l1.725-.61-.216.834A24.483,24.483,0,0,0,13.3,40.839l1.865,5.132a18.734,18.734,0,0,1,.807,9.833h0a7.8,7.8,0,0,0,7.665,9.227H38.566A7.8,7.8,0,0,0,46.231,55.8h0v0a18.735,18.735,0,0,1,.807-9.829L48.9,40.839a24.483,24.483,0,0,0,.691-14.568l-1.359-5.239.5-.13a23.13,23.13,0,0,1,9.981-.324l1.548.292a2.384,2.384,0,0,1-.732,1.092l-1.418,1.2a6.522,6.522,0,0,1-6.177,1.247.911.911,0,0,0-.543,1.74,8.34,8.34,0,0,0,7.9-1.594l1.418-1.2a4.211,4.211,0,0,0,0-6.437Zm-44.9-8.66V6.6a1.032,1.032,0,0,1,1.892-.57L18.7,7.519a7.985,7.985,0,0,0,2.462,2.39l2.1,1.306a12.667,12.667,0,0,0-1.82.624l0,0,0,0a12.724,12.724,0,0,0-3.073,1.879l-1.115-1.394a6.54,6.54,0,0,1-1.428-4.07ZM2.671,18.311l1.418-1.2a6.577,6.577,0,0,1,6.409-1.17L15.2,17.609a12.658,12.658,0,0,0-.73,1.67l-.553-.142a24.964,24.964,0,0,0-10.773-.35l-1.027.194a2.39,2.39,0,0,1,.55-.67Zm10.709,5L10.5,24.328a6.576,6.576,0,0,1-6.409-1.17l-1.418-1.2a2.384,2.384,0,0,1-.732-1.092l1.548-.292a23.131,23.131,0,0,1,9.981.324l.5.13-.59,2.277h0Zm1,3.419,1.543-5.951a10.871,10.871,0,0,1,5.39-6.855l3.621,8.747A17.781,17.781,0,0,1,26.29,29.5v1.8A10.494,10.494,0,0,1,21,40.4L16.1,43.2l-1.083-2.982a22.668,22.668,0,0,1-.64-13.488ZM43.163,61.053a5.958,5.958,0,0,1-4.6,2.158H23.64a5.975,5.975,0,0,1-5.873-7.073h0l.013-.07a7.336,7.336,0,0,1,7.191-6.046h3.994a.911.911,0,1,0,0-1.822H24.971a9.1,9.1,0,0,0-6.88,3.154,20.549,20.549,0,0,0-1.209-6l-.15-.412,5.174-2.949a12.32,12.32,0,0,0,6.207-10.682V29.5a19.593,19.593,0,0,0-1.5-7.532L22.983,13.2a10.856,10.856,0,0,1,3.465-.568h9.308a10.857,10.857,0,0,1,3.465.568L35.59,21.972a19.593,19.593,0,0,0-1.5,7.532v1.8A12.32,12.32,0,0,0,40.3,41.988l5.174,2.949-.15.412a20.547,20.547,0,0,0-1.209,6,9.1,9.1,0,0,0-6.88-3.154H33.351a.911.911,0,0,0,0,1.822h3.883a7.336,7.336,0,0,1,7.191,6.045l.013.073h0A5.957,5.957,0,0,1,43.163,61.053Zm4.026-20.836L46.105,43.2,41.2,40.4a10.494,10.494,0,0,1-5.287-9.1V29.5a17.779,17.779,0,0,1,1.359-6.835L40.9,13.922a10.87,10.87,0,0,1,5.39,6.855l1.543,5.951a22.668,22.668,0,0,1-.64,13.488Zm1.1-21.08-.553.142a12.658,12.658,0,0,0-.73-1.67l4.707-1.664a6.577,6.577,0,0,1,6.409,1.17l1.418,1.2a2.387,2.387,0,0,1,.55.67l-1.027-.194A24.965,24.965,0,0,0,48.285,19.137Z" transform="translate(0 -3.735)"/>
        <path id="Path_900172" data-name="Path 900172" d="M183.116,413.728a3.432,3.432,0,1,0,3.432,3.432A3.435,3.435,0,0,0,183.116,413.728Zm0,5.041a1.609,1.609,0,1,1,1.609-1.609A1.611,1.611,0,0,1,183.116,418.769Z" transform="translate(-157.853 -363.916)"/>
        <path id="Path_900173" data-name="Path 900173" d="M279.26,413.728a3.432,3.432,0,1,0,3.432,3.432A3.435,3.435,0,0,0,279.26,413.728Zm0,5.041a1.609,1.609,0,1,1,1.609-1.609A1.611,1.611,0,0,1,279.26,418.769Z" transform="translate(-242.316 -363.916)"/>
        <path id="Path_900174" data-name="Path 900174" d="M317.7,190.661a3.464,3.464,0,1,0,3.464,3.464A3.468,3.468,0,0,0,317.7,190.661Zm0,5.106a1.642,1.642,0,1,1,1.642-1.642A1.644,1.644,0,0,1,317.7,195.767Z" transform="translate(-276.055 -167.95)"/>
        <path id="Path_900175" data-name="Path 900175" d="M144.205,197.588a3.464,3.464,0,1,0-3.464-3.464A3.468,3.468,0,0,0,144.205,197.588Zm0-5.106a1.642,1.642,0,1,1-1.642,1.642A1.644,1.644,0,0,1,144.205,192.483Z" transform="translate(-123.642 -167.949)"/>
      </g>
    </g>
  </g>
</svg>
