<svg xmlns="http://www.w3.org/2000/svg" width="62.865" height="62.865" viewBox="0 0 62.865 62.865">
  <g id="Group_1111435" data-name="Group 1111435" transform="translate(-1276.15 -2830)">
    <g id="Group_1099341" data-name="Group 1099341" transform="translate(1276.15 2830)">
      <g id="Rectangle_402588" data-name="Rectangle 402588" transform="translate(0 0)" fill="#efd026" stroke="#fff" stroke-width="5">
        <rect width="62.865" height="62.865" rx="14" stroke="none"/>
        <rect x="2.5" y="2.5" width="57.865" height="57.865" rx="11.5" fill="none"/>
      </g>
    </g>
    <g id="Group_1111434" data-name="Group 1111434" transform="translate(1269.355 2825.4)">
      <path id="Path_900242" data-name="Path 900242" d="M90.465,48.082c-.011-.011-.023-.02-.033-.032l-.343-.378h9.369a.226.226,0,1,0,0-.452H88.218l-3.7-3.7.066-.143a1.273,1.273,0,0,0-2.056-1.431L80.52,43.956V29.634A2.037,2.037,0,0,1,82.554,27.6h19.237a2.037,2.037,0,0,1,2.034,2.034V55.6a2.037,2.037,0,0,1-2.034,2.034H97.343v-.874a.226.226,0,0,0-.226-.226H95.413V55.194h4.046a.226.226,0,0,0,0-.452h-4.24l-.067-.1a1.5,1.5,0,0,0-1.237-.655H86.19a1.5,1.5,0,0,0-1.5,1.5v1.048H82.986a.226.226,0,0,0-.226.226v.876l-.251-.028A1.946,1.946,0,0,1,80.522,55.6V53.854L84.5,49.869l1.212,1.209-.066.143A1.271,1.271,0,0,0,87.7,52.653l2.289-2.289h9.466a.226.226,0,0,0,0-.452H90.526l.172-.33a1.289,1.289,0,0,0,.144-.595,1.26,1.26,0,0,0-.371-.9Z" transform="translate(-55.227 -8.322)" fill="#f1f1f2" fill-rule="evenodd"/>
      <path id="Path_900243" data-name="Path 900243" d="M202.592,88.21l4.413.589a2.038,2.038,0,0,1,1.747,2.285l-3.429,25.74a2.04,2.04,0,0,1-2.286,1.747l-16.2-2.158.028-.422h8.563a.227.227,0,0,0,.226-.226v-1.632h4.448a2.49,2.49,0,0,0,2.486-2.486V88.21Z" transform="translate(-153.54 -64.368)" fill="#60b7ff" fill-rule="evenodd"/>
      <path id="Path_900244" data-name="Path 900244" d="M31.356,308.747a.938.938,0,0,1-1.248.064l-.035-.029-.022-.041c-.015-.029-.037-.057-.055-.085-.292-.45-.373-.819.039-1.231l5.885-5.886,1.322,1.32Z" transform="translate(-8.281 -261.632)" fill="#968996" fill-rule="evenodd"/>
      <path id="Path_900245" data-name="Path 900245" d="M160.844,53a20.969,20.969,0,0,1-.252,5.419,11.749,11.749,0,0,1-1.4,3.8,11.14,11.14,0,0,1-4.767,4.205l-.1.053-.1-.053a11.14,11.14,0,0,1-4.767-4.205,11.743,11.743,0,0,1-1.4-3.8A20.938,20.938,0,0,1,147.791,53l.014-.2.2-.012a11.424,11.424,0,0,0,6.181-2.145l.133-.1.133.1a11.431,11.431,0,0,0,6.181,2.145l.2.012Z" transform="translate(-117.37 -29.544)" fill="#f1f1f2" fill-rule="evenodd"/>
      <path id="Path_900246" data-name="Path 900246" d="M155.723,46.282a.225.225,0,0,0-.218-.207,11.048,11.048,0,0,1-6.59-2.274.225.225,0,0,0-.278,0,11.035,11.035,0,0,1-6.59,2.274.225.225,0,0,0-.215.208c-.267,3.238-.072,6.753,1.561,9.643a11.731,11.731,0,0,0,5.282,4.726.22.22,0,0,0,.1.023.238.238,0,0,0,.1-.023,11.734,11.734,0,0,0,5.282-4.726C155.793,53.036,155.988,49.52,155.723,46.282Z" transform="translate(-111.829 -23.258)" fill="#60b7ff" fill-rule="evenodd"/>
      <path id="Path_900247" data-name="Path 900247" d="M102.225,247.3l.527.527-2.539,2.542-4.342-4.342,2.543-2.542,3.811,3.813Z" transform="translate(-69.421 -207.954)" fill="#968996" fill-rule="evenodd"/>
      <path id="Path_900248" data-name="Path 900248" d="M156.089,300.93a.818.818,0,0,1,1.158,0,.825.825,0,0,1,0,1.161l-2.765,2.768a.821.821,0,0,1-1.161-1.162Z" transform="translate(-122.324 -260.846)" fill="#968996" fill-rule="evenodd"/>
      <path id="Path_900249" data-name="Path 900249" d="M80.54,284.475v-3.043l.213-.012a1.261,1.261,0,0,0,.459-.114l.142-.066,1.212,1.209Z" transform="translate(-55.245 -242.861)" fill="#f1f1f2" fill-rule="evenodd"/>
      <path id="Path_900250" data-name="Path 900250" d="M72.944,223.345a.821.821,0,1,1-1.162-1.16l2.768-2.767a.818.818,0,0,1,1.4.581.8.8,0,0,1-.239.581Z" transform="translate(-46.925 -185.474)" fill="#968996" fill-rule="evenodd"/>
      <path id="Path_900251" data-name="Path 900251" d="M177.846,92.614a7.89,7.89,0,0,1-3.342-2.98,8.358,8.358,0,0,1-.989-2.674,14.772,14.772,0,0,1-.194-3.783l.013-.2.2-.014a8.256,8.256,0,0,0,4.288-1.492l.132-.094.132.094a8.244,8.244,0,0,0,4.288,1.492l.2.014.013.2a14.77,14.77,0,0,1-.194,3.783,8.393,8.393,0,0,1-.989,2.674,7.894,7.894,0,0,1-3.342,2.98l-.1.053Z" transform="translate(-141.002 -58.052)" fill="#f1f1f2" fill-rule="evenodd"/>
      <path id="Path_900252" data-name="Path 900252" d="M177.44,76.457a.226.226,0,0,0-.219-.207,7.776,7.776,0,0,1-4.695-1.619.225.225,0,0,0-.278,0,7.774,7.774,0,0,1-4.693,1.62.226.226,0,0,0-.219.207,15.669,15.669,0,0,0,.176,4.308A8.8,8.8,0,0,0,168.63,83.7a8.523,8.523,0,0,0,3.655,3.135.229.229,0,0,0,.1.023.24.24,0,0,0,.1-.023,8.538,8.538,0,0,0,3.656-3.136,8.8,8.8,0,0,0,1.119-2.936A15.64,15.64,0,0,0,177.44,76.457Z" transform="translate(-135.44 -51.767)" fill="#ffd064" fill-rule="evenodd"/>
      <path id="Path_900253" data-name="Path 900253" d="M116.27,417.83h13.681v2.506H116.27Z" transform="translate(-88.284 -369.164)" fill="#87d4ed" fill-rule="evenodd"/>
      <path id="Path_900254" data-name="Path 900254" d="M141.91,386.105v-1.048a1.049,1.049,0,0,1,1.047-1.048h7.725a1.049,1.049,0,0,1,1.047,1.048v1.048Z" transform="translate(-111.993 -337.891)" fill="#87d4ed" fill-rule="evenodd"/>
      <path id="Path_900255" data-name="Path 900255" d="M38.67,44.508a.452.452,0,0,1,.452-.452h5.111a.452.452,0,1,1,0,.9H39.122A.452.452,0,0,1,38.67,44.508ZM39.528,27.2a.448.448,0,0,1,0,.639l-2.881,2.881a.449.449,0,0,1-.637,0l-1.645-1.643A.452.452,0,1,1,35,28.434l1.325,1.323L38.891,27.2a.449.449,0,0,1,.637,0Zm-2.58,7.166c2.429-1.257,4.775-3.389,4.4-9.222a8.461,8.461,0,0,1-4.4-1.533,8.464,8.464,0,0,1-4.4,1.533C32.172,30.973,34.518,33.1,36.948,34.362Zm4.84-10.1a7.541,7.541,0,0,1-4.563-1.572.451.451,0,0,0-.557,0,7.536,7.536,0,0,1-4.561,1.572.452.452,0,0,0-.437.414c-.566,6.875,2.414,9.276,5.074,10.6a.457.457,0,0,0,.2.047.44.44,0,0,0,.2-.047c2.66-1.325,5.643-3.726,5.077-10.6A.449.449,0,0,0,41.788,24.258Zm-4.84,12.426c3.487-1.783,6.882-4.8,6.3-13.209a11.627,11.627,0,0,1-6.3-2.188,11.627,11.627,0,0,1-6.3,2.188C30.066,31.883,33.461,34.9,36.948,36.684ZM43.682,22.59a10.8,10.8,0,0,1-6.458-2.226.451.451,0,0,0-.557,0A10.789,10.789,0,0,1,30.21,22.59a.452.452,0,0,0-.434.415c-.338,4.089.185,7.285,1.59,9.773a11.887,11.887,0,0,0,5.378,4.817.457.457,0,0,0,.2.047.44.44,0,0,0,.2-.047,11.88,11.88,0,0,0,5.378-4.817c1.408-2.487,1.928-5.684,1.593-9.773A.449.449,0,0,0,43.682,22.59Zm11.307,4.1a1.81,1.81,0,0,0-1.553-2.031L49.278,24.1V47.28a2.716,2.716,0,0,1-2.712,2.712H42.344V51.4a.452.452,0,0,1-.452.452H33.541l15.987,2.13a1.812,1.812,0,0,0,2.033-1.553ZM28.212,48.892H41.441v2.054H28.212Zm11.3-1.726v.822H30.143v-.822a.823.823,0,0,1,.821-.822h7.725A.823.823,0,0,1,39.509,47.166Zm-12.2,1.274a.452.452,0,0,1,.452-.452h1.479v-.822a1.728,1.728,0,0,1,1.725-1.725h7.725a1.724,1.724,0,0,1,1.424.754h4.12a.452.452,0,0,1,0,.9H40.413v.889h1.479a.452.452,0,0,1,.452.452v.648h4.222a1.811,1.811,0,0,0,1.808-1.808V21.312A1.811,1.811,0,0,0,46.566,19.5H27.329a1.811,1.811,0,0,0-1.808,1.808V35.088l1.624-1.623a1.5,1.5,0,0,1,2.42,1.686l3.521,3.521H44.232a.452.452,0,1,1,0,.9H35.373c.009.011.022.019.031.029a1.483,1.483,0,0,1,.437,1.06,1.512,1.512,0,0,1-.169.7h8.561a.452.452,0,1,1,0,.9H34.86l-2.223,2.223a1.5,1.5,0,0,1-2.417-1.685l-.941-.938-3.758,3.759V47.28a1.739,1.739,0,0,0,1.786,1.783Zm-4.391-1.486a.708.708,0,0,1-.5.206A.7.7,0,0,1,21.969,47c-.018-.035-.043-.068-.065-.1-.246-.377-.31-.627.009-.947l5.726-5.727,1,1Zm2.6-8.17a1.492,1.492,0,0,0,.541-.134l.941.938-1.482,1.481Zm3.1-3.84-2.765,2.767a.6.6,0,0,1-.843-.84L27.784,34.1a.6.6,0,0,1,.839,0,.6.6,0,0,1,0,.84Zm3.955,4.5h0l.434.434L30.792,42.1l-4.022-4.022,2.223-2.222Zm2.186,1.643L32,43.852a.6.6,0,0,1-.842-.841l2.768-2.767a.593.593,0,0,1,.839,0,.6.6,0,0,1,0,.841ZM53.556,23.759l-4.278-.569V21.312A2.716,2.716,0,0,0,46.566,18.6H27.329a2.716,2.716,0,0,0-2.712,2.712V35.991l-.24.239a1.5,1.5,0,0,0,0,2.119,1.636,1.636,0,0,0,.24.194v3.428l-3.342,3.342a1.506,1.506,0,0,0-.126,2.079.266.266,0,0,0,.025.035.417.417,0,0,0,.1.163,1.613,1.613,0,0,0,2.276,0l1.064-1.063v.75a2.637,2.637,0,0,0,2.691,2.692V51.4a.452.452,0,0,0,.452.452h1.362a2.694,2.694,0,0,0,1.221.485L49.41,54.875a2.825,2.825,0,0,0,.36.024,2.718,2.718,0,0,0,2.688-2.354L55.89,26.8a2.722,2.722,0,0,0-2.334-3.046Z" fill-rule="evenodd"/>
    </g>
  </g>
</svg>
