<svg xmlns="http://www.w3.org/2000/svg" width="85" height="85" viewBox="0 0 85 85">
  <g id="Group_1111454" data-name="Group 1111454" transform="translate(-1041.051 -2588)">
    <circle id="Ellipse_11596" data-name="Ellipse 11596" cx="42.5" cy="42.5" r="42.5" transform="translate(1041.051 2588)" fill="#796161"/>
    <g id="Group_1111453" data-name="Group 1111453" transform="translate(1047.067 2593.998)">
      <g id="Group_1111452" data-name="Group 1111452" transform="translate(9.762 9.774)">
        <path id="Path_900280" data-name="Path 900280" d="M28.407,385.367a4.286,4.286,0,0,0-2.915,1.475,7.764,7.764,0,0,1,1.473-5.106A7.392,7.392,0,0,0,23.45,384.5a23.887,23.887,0,0,1,1.862-7.461c-1.817.979-3.333,3.125-4.253,5.927-.932-3.287-2.3-5.787-3.9-7.008a44.359,44.359,0,0,1,1.748,9.122,7.924,7.924,0,0,0-2.875-1.435,7.649,7.649,0,0,1,2.01,5.414c2.723,0,5.954.147,8.935.147A5.421,5.421,0,0,1,28.407,385.367Z" transform="translate(-16.036 -336.23)" fill="#afe269" fill-rule="evenodd"/>
        <g id="Group_1111450" data-name="Group 1111450" transform="translate(0 0)">
          <path id="Path_900281" data-name="Path 900281" d="M33.445,17.553A3.686,3.686,0,0,0,37.693,21.8a3.686,3.686,0,0,0,1.555,5.8,3.686,3.686,0,0,0-1.555,5.8,3.686,3.686,0,0,0-4.248,4.248,3.686,3.686,0,0,0-5.8,1.555,3.686,3.686,0,0,0-5.8-1.555,3.686,3.686,0,0,0-4.248-4.248,3.686,3.686,0,0,0-1.555-5.8,3.686,3.686,0,0,0,1.555-5.8,3.686,3.686,0,0,0,4.248-4.248A3.686,3.686,0,0,0,27.643,16a3.686,3.686,0,0,0,5.8,1.555Z" transform="translate(-16.037 -15.998)" fill="#fdcd56" fill-rule="evenodd"/>
          <ellipse id="Ellipse_11597" data-name="Ellipse 11597" cx="5.919" cy="5.919" rx="5.919" ry="5.919" transform="translate(5.446 5.936) rotate(-2.407)" fill="#f5b945"/>
        </g>
        <g id="Group_1111451" data-name="Group 1111451" transform="translate(18.029 25.921)">
          <path id="Path_900282" data-name="Path 900282" d="M384.072,408.522H377.8a3.256,3.256,0,0,0,.357,2.536l-.137.129a.771.771,0,0,0,1.056,1.123l.17-.16a3.231,3.231,0,0,0,.916.381l-.006.209a.77.77,0,0,0,1.539.042l.007-.249a3.253,3.253,0,0,0,2.371-4.011Z" transform="translate(-355.802 -391.123)" fill="#efc7a4" fill-rule="evenodd"/>
          <path id="Path_900283" data-name="Path 900283" d="M252.7,301.516h14.6a4.886,4.886,0,0,1,4.871,4.871V321.08a1.9,1.9,0,0,1-1.9,1.9h-.413a1.9,1.9,0,0,1-1.9-1.9v-4.77a2.152,2.152,0,0,0-2.148-2.148h-11.3a2.152,2.152,0,0,0-2.148,2.148v4.77a1.9,1.9,0,0,1-1.9,1.9h-.738a1.9,1.9,0,0,1-1.9-1.9V306.387A4.885,4.885,0,0,1,252.7,301.516Z" transform="translate(-240.277 -295.926)" fill="#e7eaed" fill-rule="evenodd"/>
          <path id="Path_900284" data-name="Path 900284" d="M247.828,316.006v-4.544a2.272,2.272,0,1,1,0,4.544Zm8.986-14.49H267.3a4.841,4.841,0,0,1,2.949,1,6.743,6.743,0,0,1-13.435-.827C256.812,301.632,256.813,301.574,256.814,301.516Zm3.2,12.646h-6.182a3.2,3.2,0,1,1,6.182,0Z" transform="translate(-240.276 -295.926)" fill="#424852" fill-rule="evenodd"/>
          <path id="Path_900285" data-name="Path 900285" d="M206.5,251.343a3.955,3.955,0,0,1-.514,2.549,6.674,6.674,0,0,1-1.993,2.2.577.577,0,0,1-.8-.136l-.767-1.08a.577.577,0,0,1,.136-.8l.041-.027a8.037,8.037,0,0,0,1.885-1.536,6.573,6.573,0,0,0,.937-1.329.578.578,0,0,1,1.08.165Zm-11.087,2.549a3.978,3.978,0,0,1-.514-2.549.578.578,0,0,1,1.08-.165,6.575,6.575,0,0,0,.937,1.329c.044.049,1.885,1.537,1.884,1.537l.041.027a.577.577,0,0,1,.136.8l-.767,1.08a.577.577,0,0,1-.8.136A6.677,6.677,0,0,1,195.41,253.891Z" transform="translate(-193.145 -250.868)" fill="#636c77" fill-rule="evenodd"/>
          <path id="Path_900286" data-name="Path 900286" d="M194.5,281.988a3.2,3.2,0,0,1-3.186,2.981h-8.732a3.2,3.2,0,0,1-3.186-2.981Z" transform="translate(-179.4 -278.554)" fill="#f4f6f8" fill-rule="evenodd"/>
          <path id="Path_900287" data-name="Path 900287" d="M216.514,275.5h1.493a3.054,3.054,0,0,1,3.045,3.045v4.079a3.054,3.054,0,0,1-3.045,3.045h-1.493a3.054,3.054,0,0,1-3.045-3.045v-4.079A3.054,3.054,0,0,1,216.514,275.5Z" transform="translate(-209.709 -272.781)" fill="#f7f9fb" fill-rule="evenodd"/>
          <path id="Path_900288" data-name="Path 900288" d="M223.267,338.468a3.063,3.063,0,0,1-2.249,1.665h-2.458a1.83,1.83,0,1,1,.482-3.369h1.493a3.055,3.055,0,0,1,2.732,1.7Z" transform="translate(-212.236 -327.284)" fill="#efc7a4" fill-rule="evenodd"/>
          <path id="Path_900289" data-name="Path 900289" d="M229.169,313.222a.595.595,0,1,1-.595.595A.595.595,0,0,1,229.169,313.222Zm-3.852,0a.595.595,0,1,1-.595.595A.595.595,0,0,1,225.318,313.222Z" transform="translate(-219.721 -306.34)" fill="#424852" fill-rule="evenodd"/>
        </g>
      </g>
      <path id="Path_900290" data-name="Path 900290" d="M33.387,42.577a.595.595,0,1,1-.6.595A.593.593,0,0,1,33.387,42.577Zm30.12,9.443v-.058c-.041-.882-.5-8.516-4.695-9.779a5.629,5.629,0,0,0-4-1.67H43.337a3.933,3.933,0,0,0,.327-1.332.791.791,0,0,0-.208-.579.768.768,0,0,0-.566-.245H40.8a3.722,3.722,0,0,0,.338-2.188A.579.579,0,0,0,40.06,36a7.2,7.2,0,0,1-1.911,2.242,3.807,3.807,0,0,0-2.062-.606h-1.5A3.8,3.8,0,0,0,32.6,38.2,6.415,6.415,0,0,1,30.619,36a.579.579,0,0,0-1.08.165,3.8,3.8,0,0,0,.338,2.188H27.788a.785.785,0,0,0-.566.245.766.766,0,0,0-.2.579,3.972,3.972,0,0,0,3.755,3.7v2.659a3.821,3.821,0,0,0,3.791,3.817V60.849a2.677,2.677,0,0,0,2.674,2.672h.737a2.677,2.677,0,0,0,2.674-2.672V56.078A1.377,1.377,0,0,1,42.028,54.7h6.943a3.958,3.958,0,0,0,.6,1.47l-.467.435a.773.773,0,0,0,.53,1.337.761.761,0,0,0,.525-.208l.5-.47a4.117,4.117,0,0,0,.924.464,4.714,4.714,0,0,0,.54.15l-.021.649a.773.773,0,0,0,.748.8h.026a.775.775,0,0,0,.774-.746l.021-.682a3.893,3.893,0,0,0,1.023-.34v3.288a2.677,2.677,0,0,0,2.674,2.672h.41a2.677,2.677,0,0,0,2.674-2.672V46.156c0-.167-.01-.332-.021-.5a17.015,17.015,0,0,1,1.527,6.369.777.777,0,0,0,.774.739h.036a.774.774,0,0,0,.738-.747ZM36.643,43.171a.595.595,0,1,1,.592.595A.593.593,0,0,1,36.643,43.171Zm-3.563,8.2a.774.774,0,0,1,0,1.093L30.447,55.1a.759.759,0,0,1-.545.226A.773.773,0,0,1,29.357,54l1.314-1.311H21.323a.772.772,0,1,1,0-1.545h9.348l-1.314-1.311a.772.772,0,1,1,1.091-1.093Zm-16.229-4.4.005-9.348-1.314,1.311a.772.772,0,0,1-1.091-1.093l2.628-2.63a.777.777,0,0,1,1.1,0l2.628,2.63a.774.774,0,0,1-1.1,1.093L18.4,37.63v9.348a.774.774,0,0,1-1.548,0Zm42.059,13.87a1.132,1.132,0,0,1-1.132,1.127h-.41a1.127,1.127,0,0,1-1.127-1.127v-4.77a2.922,2.922,0,0,0-2.919-2.92H48.405a3.974,3.974,0,1,0-7.914.439A2.92,2.92,0,0,0,39.1,56.078v4.77a1.127,1.127,0,0,1-1.127,1.127H37.24a1.127,1.127,0,0,1-1.127-1.127V56.461a2.817,2.817,0,0,0,1.49-.888,3.139,3.139,0,0,0,.753-2.071,2.946,2.946,0,0,0-2.243-2.959V49.355A3.821,3.821,0,0,0,39.9,45.538V42.878a3.944,3.944,0,0,0,2.218-.821h1.454a7.509,7.509,0,0,0,7.488,6.917,7.529,7.529,0,0,0,7.13-5.128,4.066,4.066,0,0,1,.717,2.309V60.849ZM51.2,55.731c-.005,0-.005-.009-.01-.014a.5.5,0,0,0-.068-.061,2.362,2.362,0,0,1-.566-.951h2.768a1.373,1.373,0,0,1,1.324,1.018,2.431,2.431,0,0,1-2.55.551,2.537,2.537,0,0,1-.9-.543Zm-8.693-4.118a2.426,2.426,0,0,1,3.853,0,2.441,2.441,0,0,1,.5,1.546H42a2.414,2.414,0,0,1,.5-1.546Zm-6.393.572a1.469,1.469,0,0,1,.7,1.318,1.613,1.613,0,0,1-.369,1.053,1.2,1.2,0,0,1-.327.265Zm-3.35-5.3a2.289,2.289,0,0,1,1.828-.933h1.5a2.289,2.289,0,0,1,1.828.933,2.263,2.263,0,0,1-1.828.93h-1.5a2.271,2.271,0,0,1-1.828-.93Zm-4-6.978h2.342a3.852,3.852,0,0,0-.327,1.428A2.43,2.43,0,0,1,28.765,39.9Zm7.322-.716h-1.5a2.273,2.273,0,0,0-2.269,2.272v3.7a3.815,3.815,0,0,1,2.269-.761h1.5a3.83,3.83,0,0,1,2.275.761v-3.7A2.278,2.278,0,0,0,36.087,39.186ZM39.9,41.33a3.75,3.75,0,0,0-.327-1.428h2.347A2.437,2.437,0,0,1,39.9,41.33Zm17.018,1.313A5.967,5.967,0,0,1,46.8,45.628a5.888,5.888,0,0,1-1.667-3.571h9.68a4.057,4.057,0,0,1,2.108.585ZM21.364,16.234a5.146,5.146,0,1,1-5.146,5.146A5.153,5.153,0,0,1,21.364,16.234Zm0,11.837a6.691,6.691,0,1,0-6.689-6.691A6.7,6.7,0,0,0,21.364,28.071ZM12.77,19.077a4.428,4.428,0,0,1-1.475,2.3,4.493,4.493,0,0,1,1.35,5.034A4.483,4.483,0,0,1,16.332,30.1a4.358,4.358,0,0,1,1.548-.282,4.6,4.6,0,0,1,1.184.157,4.453,4.453,0,0,1,2.3,1.473A4.487,4.487,0,0,1,26.4,30.1a4.5,4.5,0,0,1,3.687-3.685,4.511,4.511,0,0,1,1.35-5.031,4.494,4.494,0,0,1-1.35-5.035A4.5,4.5,0,0,1,26.4,12.66a4.52,4.52,0,0,1-5.032-1.348,4.488,4.488,0,0,1-5.032,1.351,4.485,4.485,0,0,1-3.687,3.685,4.444,4.444,0,0,1,.125,2.73ZM9.488,22.1a2.917,2.917,0,0,1,1.231,4.587.772.772,0,0,0,.722,1.254A2.918,2.918,0,0,1,14.8,31.3a.771.771,0,0,0,1.252.724,2.931,2.931,0,0,1,4.591,1.229.77.77,0,0,0,1.444,0,2.92,2.92,0,0,1,4.591-1.229.771.771,0,0,0,1.252-.724,2.918,2.918,0,0,1,3.36-3.358.772.772,0,0,0,.722-1.254A2.925,2.925,0,0,1,33.241,22.1a.772.772,0,0,0,0-1.448,2.917,2.917,0,0,1-1.231-4.587.772.772,0,0,0-.722-1.254,2.918,2.918,0,0,1-3.36-3.358.771.771,0,0,0-1.252-.724A2.931,2.931,0,0,1,22.086,9.5a.77.77,0,0,0-1.444,0,2.919,2.919,0,0,1-4.591,1.229.771.771,0,0,0-1.252.724,2.918,2.918,0,0,1-3.36,3.358.772.772,0,0,0-.722,1.254,2.925,2.925,0,0,1-1.231,4.587.772.772,0,0,0,0,1.448Zm10.469,39.87c-1.288-.009-2.612-.041-3.9-.073-1.231-.03-2.41-.058-3.526-.068a8.231,8.231,0,0,0-.7-2.844c.109.076.213.155.317.237a.772.772,0,0,0,1.252-.675,48.715,48.715,0,0,0-.841-5.66,20.218,20.218,0,0,1,1.475,3.827.775.775,0,0,0,.727.561h.016a.772.772,0,0,0,.737-.532,12.784,12.784,0,0,1,1.755-3.535,26.8,26.8,0,0,0-.867,4.758.772.772,0,0,0,1.4.514,7.376,7.376,0,0,1,1-1.156,11.572,11.572,0,0,0-.364,3.039.775.775,0,0,0,1.34.545,5.237,5.237,0,0,1,.55-.524,5.974,5.974,0,0,0-.374,1.584Zm2.031-3.821a6.883,6.883,0,0,0-1.9.561,6.333,6.333,0,0,1,1.241-3.006.774.774,0,0,0-.909-1.154,7.641,7.641,0,0,0-2.155,1.2,21.761,21.761,0,0,1,1.47-4.862.77.77,0,0,0-1.07-.994,9.495,9.495,0,0,0-3.812,4.353,11.987,11.987,0,0,0-3.5-5.368.775.775,0,0,0-1.21.845,41.679,41.679,0,0,1,1.548,7.377,8.877,8.877,0,0,0-1.735-.666A.773.773,0,0,0,9.181,57.7,6.925,6.925,0,0,1,11,62.571a.764.764,0,0,0,.213.566.773.773,0,0,0,.556.237c1.324,0,2.747.034,4.248.07,1.553.037,3.158.076,4.689.076a.764.764,0,0,0,.556-.237.787.787,0,0,0,.218-.566A4.641,4.641,0,0,1,22.7,59.425a.771.771,0,0,0-.717-1.273Z" fill-rule="evenodd"/>
    </g>
  </g>
</svg>
