<svg xmlns="http://www.w3.org/2000/svg" width="85" height="85" viewBox="0 0 85 85">
  <g id="Group_1111449" data-name="Group 1111449" transform="translate(-200.051 -2226)">
    <circle id="Ellipse_11596" data-name="Ellipse 11596" cx="42.5" cy="42.5" r="42.5" transform="translate(200.051 2226)" fill="#0a3adb"/>
    <g id="Group_1111448" data-name="Group 1111448" transform="translate(208.219 2227.28)">
      <g id="Group_1111446" data-name="Group 1111446" transform="translate(0.813 13.355)">
        <path id="Path_900256" data-name="Path 900256" d="M64.675,91.894V95.62a3.139,3.139,0,0,1-1.246,2.5l-3.812,2.889a3.122,3.122,0,0,1-1.39.6l-5.16.847a18.036,18.036,0,0,0-14.952,15.394l-.348,2.594c-14.7-3.249-22.6-11.08-26.752-19.443l-.026-.05c-4.368-8.827-4.58-18.239-4.247-23.474l10.707.03,19.458-5.122,5.566.9a3.155,3.155,0,0,1,2.373,1.835l.906,2.056a6.776,6.776,0,0,0,2.675,3.054l7.463,4.545,7.274,4.429a3.15,3.15,0,0,1,1.51,2.687Z" transform="translate(-6.635 -65.959)" fill="#fff2e3"/>
        <path id="Path_900257" data-name="Path 900257" d="M63.575,136.365l-3.212-1.955a3.309,3.309,0,0,1,.345,1.474v3.941a3.321,3.321,0,0,1-1.318,2.648l-4.033,3.055a3.291,3.291,0,0,1-1.47.631l-5.459.9a19.085,19.085,0,0,0-14.652,11.809,39.509,39.509,0,0,1-3.712-1.677l1.008-1.008a1.168,1.168,0,0,0,0-1.652L20.885,144.338a1.168,1.168,0,0,0-1.652,0l-1.74,1.74a35.538,35.538,0,0,1-2.942-5.306A39.958,39.958,0,0,1,11.2,127.249a1.167,1.167,0,0,0-1.149-1.1l-1.759-.025A1.167,1.167,0,0,0,7.1,127.352a43.625,43.625,0,0,0,3.646,14.932,39.474,39.474,0,0,0,3.8,6.732l-.513.513a1.168,1.168,0,0,0,0,1.652L24.23,161.37a1.168,1.168,0,0,0,1.652,0l1.163-1.163a42.185,42.185,0,0,0,4.182,2.032,2.058,2.058,0,0,1,1.242,2.175h0l-.2,1.517a51.777,51.777,0,0,0,5.912,1.667l.348-2.593a18.037,18.037,0,0,1,14.952-15.394l5.161-.846a3.112,3.112,0,0,0,1.389-.6l3.812-2.889a3.14,3.14,0,0,0,1.246-2.5v-3.725A3.15,3.15,0,0,0,63.575,136.365Z" transform="translate(-7.045 -113.117)" fill="#fee7c9"/>
        <path id="Path_900258" data-name="Path 900258" d="M55.89,84.778c-5.082,17.1-18.978,3.854-27.768,11.99-5.523,5.111-12.258,5.242-17.016,4.414L11.014,101l-.026-.05c-4.368-8.827-4.58-18.239-4.247-23.474l10.707.03,19.458-5.122,5.566.9a3.155,3.155,0,0,1,2.373,1.835l.906,2.056a6.776,6.776,0,0,0,2.675,3.054Z" transform="translate(-6.635 -65.959)" fill="#3f5959"/>
        <path id="Path_900259" data-name="Path 900259" d="M23.537,136.449a19.892,19.892,0,0,1-9.366,1.539,39.5,39.5,0,0,1-3.565-6.389A43.627,43.627,0,0,1,6.96,116.668c-.008-.147-.015-.656-.022-1.362.018-.479.042-.932.069-1.358l4.09.012c-.026,1.327-.058,2.4-.046,2.6a39.986,39.986,0,0,0,3.356,13.523,35.561,35.561,0,0,0,2.942,5.307l1.74-1.741a1.169,1.169,0,0,1,1.651,0Z" transform="translate(-6.901 -102.431)" fill="#384848"/>
        <path id="Path_900260" data-name="Path 900260" d="M115.29,126.769h-3.752a2.6,2.6,0,0,1-2.6-2.6v-5.614a2.6,2.6,0,0,1,2.6-2.6h3.752a2.6,2.6,0,0,1,2.6,2.6v5.614A2.6,2.6,0,0,1,115.29,126.769Z" transform="translate(-96.404 -104.188)" fill="#384848"/>
        <path id="Path_900261" data-name="Path 900261" d="M408.525,180.676V184.4a3.143,3.143,0,0,1-1.247,2.5l-3.81,2.889c0-4.182-1.1-4.878-3.727-8.118-1.783-2.2-1.556-5.648,0-8.118l7.274,4.43A3.151,3.151,0,0,1,408.525,180.676Z" transform="translate(-350.486 -154.739)" fill="#fcac8d"/>
        <path id="Path_900262" data-name="Path 900262" d="M434.568,198.4v3.724a3.144,3.144,0,0,1-1.246,2.5l-3.811,2.889c0-2.57-.415-3.824-1.345-5.161l.708-.537a3.321,3.321,0,0,0,1.318-2.648v-3.941a3.308,3.308,0,0,0-.346-1.474h0l3.211,1.955A3.15,3.15,0,0,1,434.568,198.4Z" transform="translate(-376.529 -172.465)" fill="#fb946d"/>
        <g id="Group_1111440" data-name="Group 1111440" transform="translate(12.532 0)">
          <g id="Group_1111438" data-name="Group 1111438" transform="translate(3.012)">
            <path id="Path_900263" data-name="Path 900263" d="M144.878,24.048a9.251,9.251,0,0,1,.824,8.786,3.092,3.092,0,0,1-2.8,1.873,9.262,9.262,0,0,1-8.632-12.9,3.092,3.092,0,0,1,2.8-1.874,9.251,9.251,0,0,1,7.809,4.11Z" transform="translate(-133.527 -19.936)" fill="#3f5959"/>
            <path id="Path_900264" data-name="Path 900264" d="M162.451,32.83a3.089,3.089,0,0,1-2.8,1.873,9.227,9.227,0,0,1-2.484-.31,3.091,3.091,0,0,0,1.592-1.611A9.262,9.262,0,0,0,152.616,20.2a3.058,3.058,0,0,1,1.2-.263,9.265,9.265,0,0,1,8.632,12.9Z" transform="translate(-150.278 -19.933)" fill="#384848"/>
          </g>
          <g id="Group_1111439" data-name="Group 1111439" transform="translate(0 8.119)">
            <path id="Path_900265" data-name="Path 900265" d="M115.29,97.027h-3.752a2.6,2.6,0,0,1-2.6-2.6V88.811a2.6,2.6,0,0,1,2.6-2.6h3.752a2.6,2.6,0,0,1,2.6,2.6v5.614A2.6,2.6,0,0,1,115.29,97.027Z" transform="translate(-108.936 -86.208)" fill="#fcc16d"/>
            <path id="Path_900266" data-name="Path 900266" d="M138.127,88.816v5.614a2.6,2.6,0,0,1-2.6,2.6h-3.167a2.379,2.379,0,0,1-.362-.026,2.6,2.6,0,0,0,2.238-2.577V88.816A2.6,2.6,0,0,0,132,86.239a2.363,2.363,0,0,1,.362-.026h3.167A2.6,2.6,0,0,1,138.127,88.816Z" transform="translate(-129.171 -86.212)" fill="#fca62f"/>
          </g>
        </g>
        <g id="Group_1111443" data-name="Group 1111443" transform="translate(40.788 42.218)">
          <g id="Group_1111441" data-name="Group 1111441" transform="translate(0 0)">
            <path id="Path_900267" data-name="Path 900267" d="M356.9,372.627a4.812,4.812,0,0,0,0-6.67,4.5,4.5,0,0,0-6.486,0l-1.454,1.5-1.454-1.5a4.576,4.576,0,0,0-5.647-.575l-.151.1a4.542,4.542,0,0,0-.688,7.142l6.768,6.96a1.626,1.626,0,0,0,2.345,0Z" transform="translate(-339.601 -364.575)" fill="#fb6a3b"/>
          </g>
          <g id="Group_1111442" data-name="Group 1111442" transform="translate(7.103 0)">
            <path id="Path_900268" data-name="Path 900268" d="M407.787,372.627l-6.769,6.959a1.627,1.627,0,0,1-2.345,0l-1.088-1.119,6.372-6.552a4.814,4.814,0,0,0,0-6.671,4.417,4.417,0,0,0-.592-.512,4.454,4.454,0,0,1,1.177-.159,4.509,4.509,0,0,1,3.243,1.381,4.813,4.813,0,0,1,0,6.671Z" transform="translate(-397.586 -364.575)" fill="#fb5532"/>
          </g>
        </g>
        <g id="Group_1111444" data-name="Group 1111444" transform="translate(2.531 10.535)">
          <path id="Path_900269" data-name="Path 900269" d="M58.389,143.137a1.166,1.166,0,0,1-1.442.836,41.29,41.29,0,0,1-16.833-9.057,38.037,38.037,0,0,1-9.17-12.823A43.62,43.62,0,0,1,27.3,107.162a1.167,1.167,0,0,1,1.183-1.229l1.759.025a1.167,1.167,0,0,1,1.149,1.1,39.955,39.955,0,0,0,3.356,13.523,33.933,33.933,0,0,0,8.193,11.379,37.271,37.271,0,0,0,15.067,8.066,1.17,1.17,0,0,1,.819,1.415Z" transform="translate(-27.297 -105.933)" fill="#fc7d4b"/>
        </g>
        <path id="Path_900270" data-name="Path 900270" d="M157.35,335.931l-3.083,3.083a39.316,39.316,0,0,1-7.479-4.678l2.91-2.91A35.9,35.9,0,0,0,157.35,335.931Z" transform="translate(-129.62 -293.269)" fill="#fb5532"/>
        <g id="Group_1111445" data-name="Group 1111445" transform="translate(9.127 28.406)">
          <path id="Path_900271" data-name="Path 900271" d="M91.675,269.193,81.486,259a1.168,1.168,0,0,1,0-1.652l5.192-5.192a1.168,1.168,0,0,1,1.652,0L98.518,262.35a1.168,1.168,0,0,1,0,1.652l-5.192,5.192A1.168,1.168,0,0,1,91.675,269.193Z" transform="translate(-81.144 -251.819)" fill="#a9d3d8"/>
          <path id="Path_900272" data-name="Path 900272" d="M155.855,321.339l-5.191,5.191a1.167,1.167,0,0,1-1.652,0L146.485,324a1.167,1.167,0,0,0,1.652,0l5.191-5.192a1.167,1.167,0,0,0,0-1.652l2.527,2.527A1.168,1.168,0,0,1,155.855,321.339Z" transform="translate(-138.481 -309.157)" fill="#90bac4"/>
        </g>
      </g>
      <g id="Group_1111447" data-name="Group 1111447" transform="translate(0 12.437)">
        <path id="Path_900273" data-name="Path 900273" d="M48.012,35.087c-2.963,5.847-7.871,5.725-12.927,5.391a.919.919,0,0,0-.121,1.833c1.147.076,2.328.154,3.51.154,3.5,0,7-.683,9.653-4.124a6.435,6.435,0,0,0,1.227,2.529c.343.423.666.809.95,1.15,1.808,2.165,2.494,2.987,2.565,5.883a2.19,2.19,0,0,1-.614.2l-5.161.847A18.978,18.978,0,0,0,34.4,57.13c-.032-.011-.063-.023-.1-.032a41.354,41.354,0,0,1-6.442-2.4l.1-.1a2.089,2.089,0,0,0,0-2.951L26,49.676a.919.919,0,1,0-1.3,1.3l1.966,1.966a.249.249,0,0,1,0,.352l-5.192,5.192a.249.249,0,0,1-.352,0L10.932,48.3a.249.249,0,0,1,0-.352l5.192-5.192a.249.249,0,0,1,.352,0l5.111,5.111a.919.919,0,0,0,1.3-1.3l-.907-.907c.322-.262.639-.534.945-.818,1.947-1.8,4.326-2.634,7.716-2.7a.919.919,0,0,0-.017-1.837h-.018a12.771,12.771,0,0,0-8.93,3.186c-.325.3-.661.589-1,.861l-2.9-2.9a2.086,2.086,0,0,0-2.951,0l-.938.938a35.078,35.078,0,0,1-2.255-4.231A39.434,39.434,0,0,1,8.418,25.812l3.206.009h0a.918.918,0,0,0,.234-.03l.566-.149V29.69a3.525,3.525,0,0,0,3.521,3.521H19.7A3.525,3.525,0,0,0,23.22,29.69V24.076A3.525,3.525,0,0,0,19.7,20.555H17.448a8.412,8.412,0,0,1,.5-4.965,2.162,2.162,0,0,1,1.964-1.315,8.341,8.341,0,0,1,8.218,10.263.919.919,0,1,0,1.788.423A10.179,10.179,0,0,0,30.055,21l1.074-.283,5.373.873a2.227,2.227,0,0,1,1.679,1.3l.906,2.056a7.659,7.659,0,0,0,3.038,3.468l1.274.776a.919.919,0,0,0,.956-1.569l-1.274-.776A5.83,5.83,0,0,1,40.77,24.2l-.908-2.059A4.06,4.06,0,0,0,36.8,19.777l-5.566-.9a.922.922,0,0,0-.381.018L29.6,19.22a10.157,10.157,0,0,0-9.594-6.783h-.121a4,4,0,0,0-3.633,2.432,10.266,10.266,0,0,0-.673,5.7,3.528,3.528,0,0,0-3.14,3.164l-.934.246-3.475-.01A2.091,2.091,0,0,0,6.3,23l-1.759-.025H4.512a2.078,2.078,0,0,0-1.773.987l-1.818,0h0a.919.919,0,0,0,0,1.837l1.551,0A45.124,45.124,0,0,0,6.152,40.422a40.714,40.714,0,0,0,3.454,6.252,2.068,2.068,0,0,0-.58,1.358,24.57,24.57,0,0,1-3.584-.36.919.919,0,0,0-.315,1.81,26.059,26.059,0,0,0,4.454.4l.332,0,9.909,9.909a2.089,2.089,0,0,0,2.951,0l.677-.677A45.885,45.885,0,0,0,31.9,62.569a19.068,19.068,0,0,0-.524,2.554l-.348,2.594a.919.919,0,0,0,.789,1.033.934.934,0,0,0,.123.008.919.919,0,0,0,.909-.8l.348-2.594a17.2,17.2,0,0,1,.533-2.52,2.092,2.092,0,0,0,1.59-1.525l.436-1.7a2.083,2.083,0,0,0-.036-1.167,17.139,17.139,0,0,1,11.667-7.7l5.156-.846a4.047,4.047,0,0,0,1.8-.771l3.811-2.888a4.078,4.078,0,0,0,1.611-3.237V39.291a4.1,4.1,0,0,0-1.951-3.472l-9.7-5.907a.919.919,0,1,0-.956,1.57L48.836,32.5a9.108,9.108,0,0,0-.824,2.587Zm2.769,4.626a6.055,6.055,0,0,1-.369-6.253l6.45,3.928a2.245,2.245,0,0,1,1.07,1.9v3.725a2.231,2.231,0,0,1-.882,1.771l-2.423,1.836c-.285-2.632-1.28-3.826-2.913-5.782-.294-.352-.6-.717-.933-1.129ZM14.263,24.076a1.686,1.686,0,0,1,1.684-1.684H19.7a1.686,1.686,0,0,1,1.684,1.684V29.69A1.686,1.686,0,0,1,19.7,31.374H15.947a1.686,1.686,0,0,1-1.684-1.684Zm-10,.994a.244.244,0,0,1,.069-.186.237.237,0,0,1,.183-.076l1.76.025a.25.25,0,0,1,.245.235A41.113,41.113,0,0,0,9.954,38.913a36.8,36.8,0,0,0,2.6,4.809l-1.626,1.626a39,39,0,0,1-3.1-5.672A42.938,42.938,0,0,1,4.263,25.071Zm29.719,34.1-.436,1.7a.251.251,0,0,1-.118.156.235.235,0,0,1-.184.024,44.735,44.735,0,0,1-8.434-3.3l1.676-1.676A42.826,42.826,0,0,0,33.8,58.866.25.25,0,0,1,33.981,59.168Z" transform="translate(0 -12.437)"/>
        <path id="Path_900274" data-name="Path 900274" d="M348.2,365.014h-1.012a5.75,5.75,0,0,0-1.12-6.279,5.416,5.416,0,0,0-7.8,0l-.8.818-.8-.818a5.519,5.519,0,0,0-6.826-.692l-.151.1a5.456,5.456,0,0,0-.853,8.512h-1.425a.919.919,0,0,0,0,1.837h3.21l5.008,5.151a2.544,2.544,0,0,0,3.662,0l6.607-6.795H348.2a.919.919,0,0,0,0-1.837Zm-18.012.391a3.794,3.794,0,0,1-1.146-3.031,3.743,3.743,0,0,1,1.7-2.712l.151-.1a3.383,3.383,0,0,1,1.91-.557,3.6,3.6,0,0,1,2.559,1.015l1.454,1.5a.919.919,0,0,0,1.317,0l1.454-1.5a3.579,3.579,0,0,1,5.169,0,3.9,3.9,0,0,1,.331,5h-5.825a.918.918,0,0,0-.841.549l-.224.509-.683-2.367a.919.919,0,0,0-1.664-.229l-1.967,3.181H331.4Zm7.8,6.96a.707.707,0,0,1-1.028,0l-3.763-3.87h1.2a.919.919,0,0,0,.782-.436l1.146-1.854.811,2.812a.919.919,0,0,0,.821.662l.062,0a.919.919,0,0,0,.841-.549l1-2.282h3.488Z" transform="translate(-286.502 -314.857)"/>
        <path id="Path_900275" data-name="Path 900275" d="M135.338,286.59l-4.725-4.725a.919.919,0,0,0-1.3,1.3l4.725,4.725a.919.919,0,1,0,1.3-1.3Z" transform="translate(-113.236 -248.624)"/>
        <path id="Path_900276" data-name="Path 900276" d="M148.724,339.6a.922.922,0,1,0,1.3.013l-.008-.009A.913.913,0,0,0,148.724,339.6Z" transform="translate(-130.267 -299.286)"/>
        <path id="Path_900277" data-name="Path 900277" d="M165.156,356.028a.922.922,0,1,0,1.3.013l-.008-.009A.913.913,0,0,0,165.156,356.028Z" transform="translate(-144.687 -313.705)"/>
        <path id="Path_900278" data-name="Path 900278" d="M257.935,137.875a3.1,3.1,0,0,0-3.032,2.486.919.919,0,1,0,1.8.359,1.254,1.254,0,0,1,2.459,0,.919.919,0,0,0,1.8-.359A3.1,3.1,0,0,0,257.935,137.875Z" transform="translate(-223.663 -122.509)"/>
        <path id="Path_900279" data-name="Path 900279" d="M432.061,216.054a.919.919,0,0,0-.337-1.255l-.957-.552a.919.919,0,0,0-.918,1.592l.958.552a.918.918,0,0,0,1.255-.337Z" transform="translate(-376.789 -189.418)"/>
      </g>
    </g>
  </g>
</svg>
