<svg id="Group_1111590" data-name="Group 1111590" xmlns="http://www.w3.org/2000/svg" width="85" height="85" viewBox="0 0 85 85">
  <circle id="Ellipse_11596" data-name="Ellipse 11596" cx="42.5" cy="42.5" r="42.5" fill="#efd026"/>
  <g id="Group_1111591" data-name="Group 1111591" transform="translate(17 11)">
    <path id="Path_900499" data-name="Path 900499" d="M21.744,63.245h2.343a1.677,1.677,0,0,0,1.67-1.526l1.608-17.733h-8.9l1.608,17.732a1.677,1.677,0,0,0,1.67,1.526Z" transform="translate(-6.038 0)" fill="#f9bdb9"/>
    <path id="Path_900500" data-name="Path 900500" d="M18.465,43.987,19.528,55.7a10.133,10.133,0,0,0,1.075.063,9.806,9.806,0,0,0,1.543-.122,1.857,1.857,0,0,1,2.1,2.027l-.366,4.057a1.671,1.671,0,0,1-1.662,1.525H24.09a1.671,1.671,0,0,0,1.662-1.525l1.612-17.736Z" transform="translate(-6.038 0)" opacity="0.09"/>
    <path id="Path_900501" data-name="Path 900501" d="M39.917,63.245H42.26a1.677,1.677,0,0,0,1.671-1.526l1.607-17.733h-8.9l1.607,17.732a1.677,1.677,0,0,0,1.67,1.526Z" transform="translate(-6.038 0)" fill="#f9bdb9"/>
    <path id="Path_900502" data-name="Path 900502" d="M36.639,43.987l1.612,17.736a1.671,1.671,0,0,0,1.662,1.525h1.875a1.671,1.671,0,0,1-1.662-1.525l-.371-4.055a1.857,1.857,0,0,1,2.1-2.029,9.823,9.823,0,0,0,1.548.122,10.108,10.108,0,0,0,1.075-.062l1.062-11.712h-8.9Z" transform="translate(-6.038 0)" opacity="0.09"/>
    <path id="Path_900503" data-name="Path 900503" d="M57.217,37.873a8.55,8.55,0,0,1-6.084,8.175,7.744,7.744,0,0,1-12.064,6.4,9.173,9.173,0,0,1-14.134,0,7.744,7.744,0,0,1-12.064-6.4,8.535,8.535,0,0,1-3.2-14.573A7.215,7.215,0,0,1,13.06,21.209a9.228,9.228,0,0,1,9.074-7.569,9.107,9.107,0,0,1,3.617.753,7.961,7.961,0,0,1,12.5,0,9.107,9.107,0,0,1,3.617-.753,9.228,9.228,0,0,1,9.074,7.569,7.215,7.215,0,0,1,3.387,10.266,8.6,8.6,0,0,1,2.885,6.4Z" transform="translate(-6.038 0)" fill="#f4f4f4"/>
    <path id="Path_900504" data-name="Path 900504" d="M57.212,37.875a8.543,8.543,0,0,1-6.075,8.174,7.757,7.757,0,0,1-12.074,6.4,9.162,9.162,0,0,1-14.124,0,7.757,7.757,0,0,1-12.074-6.4A8.536,8.536,0,0,1,7.1,35.588a8.539,8.539,0,0,0,5.075,5.659,1.15,1.15,0,0,1,.725.968,7.762,7.762,0,0,0,11.268,6.128,1.2,1.2,0,0,1,1.383.209,9.145,9.145,0,0,0,12.9,0,1.2,1.2,0,0,1,1.382-.21A7.761,7.761,0,0,0,51.1,42.215a1.15,1.15,0,0,1,.725-.968A8.539,8.539,0,0,0,56.9,35.588a8.569,8.569,0,0,1,.312,2.287Z" transform="translate(-6.038 0)" opacity="0.09"/>
    <path id="Path_900505" data-name="Path 900505" d="M18.7,11.372c-3.672,3.569-7.519,8.314-5.965,10.122,1.632,1.9,6.031.235,10.93-3.666-1.876-1.635-3.089-4.821-4.965-6.456Z" transform="translate(-6.038 0)" fill="#f49d9d"/>
    <path id="Path_900506" data-name="Path 900506" d="M18.815,11.478c1.812,1.65,3.012,4.75,4.85,6.35a23.46,23.46,0,0,1-7.024,4.112,16.546,16.546,0,0,1,2.175-10.462Z" transform="translate(-6.038 0)" opacity="0.09"/>
    <path id="Path_900507" data-name="Path 900507" d="M45.3,11.372c3.672,3.569,7.519,8.314,5.965,10.122-1.632,1.9-6.031.235-10.93-3.666,1.876-1.635,3.089-4.821,4.965-6.456Z" transform="translate(-6.038 0)" fill="#f49d9d"/>
    <path id="Path_900508" data-name="Path 900508" d="M47.363,21.939a23.46,23.46,0,0,1-7.024-4.112c1.837-1.6,3.037-4.7,4.849-6.35A16.546,16.546,0,0,1,47.363,21.939Z" transform="translate(-6.038 0)" opacity="0.09"/>
    <path id="Path_900509" data-name="Path 900509" d="M18.384,21.864c.941,10.6,9.737,15.243,13.618,15.243s12.677-4.64,13.618-15.243C46.585,11.336,39.535,6.646,32,6.646s-14.583,4.69-13.618,15.218Z" transform="translate(-6.038 0)" fill="#f9bdb9"/>
    <path id="Path_900510" data-name="Path 900510" d="M45.625,21.864C44.676,32.464,35.889,37.1,32,37.1a6.139,6.139,0,0,1-1.425-.175c4.275-.9,11.362-5.612,12.2-15.061C43.676,12,37.551,7.253,30.577,6.7c.475-.037.95-.062,1.425-.062,7.537,0,14.586,4.7,13.624,15.224Z" transform="translate(-6.038 0)" opacity="0.09"/>
    <path id="Path_900511" data-name="Path 900511" d="M29.7,27.155A2.817,2.817,0,0,0,32,29.467a2.817,2.817,0,0,0,2.3-2.312c.11-1.245-.857-1.82-2.3-1.82s-2.408.575-2.3,1.82Z" transform="translate(-6.038 0)" fill="#f49d9d"/>
    <path id="Path_900512" data-name="Path 900512" d="M34.3,27.151A2.826,2.826,0,0,1,32,29.463a1.662,1.662,0,0,1-.662-.163,2.91,2.91,0,0,0,1.638-2.15c.1-1.038-.562-1.612-1.638-1.762a3.75,3.75,0,0,1,.662-.05c1.438,0,2.412.575,2.3,1.812Z" transform="translate(-6.038 0)" opacity="0.09"/>
    <path id="Path_900513" data-name="Path 900513" d="M21.1,7.307a4.048,4.048,0,0,1,6.113-4.285,6.175,6.175,0,0,1,9.571,0,4.047,4.047,0,0,1,6.2,3.44,4.071,4.071,0,0,1-.091.845,5.008,5.008,0,1,1-5.622,7.771,6.913,6.913,0,0,1-10.553,0A5.006,5.006,0,1,1,21.1,7.307Z" transform="translate(-6.038 0)" fill="#f4f4f4"/>
    <path id="Path_900514" data-name="Path 900514" d="M46.254,12.321a5.056,5.056,0,0,1-3.932,4.6,5,5,0,0,1-5.047-1.847,6.9,6.9,0,0,1-10.549,0,4.992,4.992,0,0,1-4.551,1.929,5.082,5.082,0,0,1-4.428-4.69,4.872,4.872,0,0,1,.2-1.714,5.033,5.033,0,0,0,4.812,3.575,4.929,4.929,0,0,0,3.181-1.165,1.212,1.212,0,0,1,1.581-.017,6.874,6.874,0,0,0,8.951,0,1.212,1.212,0,0,1,1.581.015,4.949,4.949,0,0,0,3.18,1.165A5.033,5.033,0,0,0,46.05,10.6,4.873,4.873,0,0,1,46.254,12.321Z" transform="translate(-6.038 0)" opacity="0.09"/>
    <path id="Path_900515" data-name="Path 900515" d="M25.756,20.043a1.484,1.484,0,1,1-1.484,1.484A1.484,1.484,0,0,1,25.756,20.043Zm12.493,0a1.484,1.484,0,1,1-1.484,1.484A1.484,1.484,0,0,1,38.249,20.043ZM55.262,31.325A7.941,7.941,0,0,0,52.283,21.09c.578-2.334-2.389-6.083-5.274-9.068a5.767,5.767,0,0,0-3.282-5.184c.01-.126.015-.252.015-.376a4.819,4.819,0,0,0-4.813-4.813,4.75,4.75,0,0,0-1.979.436,6.912,6.912,0,0,0-9.894,0,4.756,4.756,0,0,0-1.979-.436,4.819,4.819,0,0,0-4.813,4.813c0,.124.006.25.015.376a5.766,5.766,0,0,0-3.284,5.186s0,0,0,.005c-2.892,2.982-5.862,6.73-5.272,9.069a7.961,7.961,0,0,0-3.785,6.777,7.784,7.784,0,0,0,.809,3.45,9.277,9.277,0,0,0,3.4,15.269,8.5,8.5,0,0,0,6.5,7.676l.687,7.518A2.412,2.412,0,0,0,21.75,64h2.338a2.434,2.434,0,0,0,2.422-2.207l.6-6.576a9.806,9.806,0,0,0,9.8-.007l.6,6.581A2.436,2.436,0,0,0,39.912,64h2.35a2.434,2.434,0,0,0,2.41-2.207l.688-7.52A8.529,8.529,0,0,0,51.867,46.6a9.29,9.29,0,0,0,3.395-15.272ZM50.693,21c-.659.765-2.2.674-4.268-.222a16.975,16.975,0,0,0-.574-5.321,5.726,5.726,0,0,0,.831-1.6C50.282,17.762,51.318,20.276,50.693,21Zm-5.78.264a4.216,4.216,0,0,1-.035.533C43.949,32.163,35.406,36.352,32,36.352S20.051,32.164,19.132,21.77a4.721,4.721,0,0,1-.033-.556,16.321,16.321,0,0,1,.3-4.526,5.7,5.7,0,0,0,7.349-.509,7.641,7.641,0,0,0,10.514,0,5.694,5.694,0,0,0,7.359.5,16.6,16.6,0,0,1,.3,4.583ZM21.353,8.014a.75.75,0,0,0,.484-.863,3.307,3.307,0,0,1,3.239-4,3.3,3.3,0,0,1,1.744.509.749.749,0,0,0,.973-.156,5.427,5.427,0,0,1,8.419,0,.75.75,0,0,0,.973.156,3.3,3.3,0,0,1,5.057,2.8,3.256,3.256,0,0,1-.076.687.75.75,0,0,0,.485.865,4.258,4.258,0,1,1-4.779,6.605.748.748,0,0,0-.572-.291.669.669,0,0,0-.588.259,6.164,6.164,0,0,1-9.418,0,.749.749,0,0,0-.568-.26H26.7a.751.751,0,0,0-.573.291,4.256,4.256,0,1,1-4.778-6.6Zm-4.03,5.851a5.727,5.727,0,0,0,.837,1.6,16.841,16.841,0,0,0-.573,5.313c-2.069.9-3.62.989-4.28.223C12.683,20.272,13.721,17.757,17.323,13.865Zm7.693,47.784a.949.949,0,0,1-.928.852H21.75a.923.923,0,0,1-.928-.845l-.654-7.165c.148.008.295.022.445.022A8.451,8.451,0,0,0,24.8,53.418a10.2,10.2,0,0,0,.891.817Zm18.161.011a.926.926,0,0,1-.916.841h-2.35A.927.927,0,0,1,39,61.656l-.674-7.427a10.3,10.3,0,0,0,.888-.812A8.562,8.562,0,0,0,43.4,54.513c.146,0,.289-.014.433-.021Zm7.74-16.325a.747.747,0,0,0-.53.712A7,7,0,0,1,39.5,51.831a.75.75,0,0,0-.995.133,8.425,8.425,0,0,1-12.992,0,.749.749,0,0,0-.994-.138,7,7,0,0,1-10.892-5.78.749.749,0,0,0-.53-.714,7.786,7.786,0,0,1-2.917-13.3.75.75,0,0,0,.148-.932,6.391,6.391,0,0,1-.887-3.225,6.472,6.472,0,0,1,3.117-5.532,3.336,3.336,0,0,0,2.163.684,8.355,8.355,0,0,0,2.981-.673c1.136,10.311,9.717,15.5,14.3,15.5s13.182-5.194,14.313-15.5a8.333,8.333,0,0,0,2.975.672,3.319,3.319,0,0,0,2.165-.69,6.451,6.451,0,0,1,2.231,8.769.75.75,0,0,0,.149.925,7.8,7.8,0,0,1-2.915,13.3ZM34.488,31.774a.992.992,0,0,1-.952.458,1.32,1.32,0,0,1-.784-.343V30.06a3.7,3.7,0,0,0,2.295-2.839,2.237,2.237,0,0,0-.546-1.757,3.288,3.288,0,0,0-2.5-.879,3.29,3.29,0,0,0-2.5.879,2.234,2.234,0,0,0-.546,1.757,3.7,3.7,0,0,0,2.3,2.839v1.828a1.317,1.317,0,0,1-.785.343,1,1,0,0,1-.951-.458.75.75,0,1,0-1.217.876,2.482,2.482,0,0,0,2.059,1.086c.078,0,.157,0,.236-.01A2.87,2.87,0,0,0,32,33.193a2.864,2.864,0,0,0,1.406.533c.081.006.16.01.238.01a2.484,2.484,0,0,0,2.061-1.086.75.75,0,0,0-1.218-.876Zm-4.037-4.682v0a.72.72,0,0,1,.158-.612A1.969,1.969,0,0,1,32,26.086a1.974,1.974,0,0,1,1.393.391.728.728,0,0,1,.158.615A2.116,2.116,0,0,1,32,28.718a2.116,2.116,0,0,1-1.552-1.626Z" transform="translate(-6.038 0)" fill="#0b0c0c"/>
  </g>
</svg>
